<svg id="Capa_1" enable-background="new 0 0 511.912 511.912" height="32" viewBox="0 0 511.912 511.912" width="32" xmlns="http://www.w3.org/2000/svg"><g><path d="m312.63 311.233-57.015-25.771c-.066-.03-.133-.059-.2-.087-3.327-1.388-7.12-.636-9.665 1.913-2.547 2.55-3.292 6.345-1.899 9.669.023.057.048.114.073.17l25.627 57.156c1.248 2.783 3.983 4.434 6.848 4.434 1.025 0 2.068-.211 3.064-.658 3.779-1.695 5.47-6.133 3.775-9.912l-1.942-4.332 20.856-20.855 4.3 1.944c3.774 1.707 8.217.028 9.923-3.745 1.706-3.776.029-8.219-3.745-9.926zm-37.901 17.934-10.462-23.333 23.275 10.521z"/><path d="m321.08 222.461c-2.956-2.899-7.705-2.854-10.606.103-2.9 2.958-2.854 7.706.103 10.606l25.649 25.157-47.995-8.784c-3.231-.593-6.467.987-7.992 3.893-1.524 2.907-.982 6.467 1.338 8.788l41.904 41.904c1.465 1.464 3.385 2.197 5.304 2.197s3.839-.732 5.304-2.197c2.929-2.929 2.929-7.678 0-10.606l-24.893-24.892 45.7 8.364c3.807.695 7.355-.95 9.05-4.181 1.728-3.297 1-7.271-1.905-10.176z"/><path d="m220.761 322.884c-2.929-2.929-7.677-2.93-10.607 0-2.929 2.929-2.929 7.678 0 10.606l14.968 14.968-18.446 18.446-14.968-14.968c-2.93-2.929-7.678-2.929-10.607 0s-2.929 7.678 0 10.606l41.982 41.982c1.465 1.464 3.385 2.197 5.304 2.197s3.839-.732 5.304-2.197c2.929-2.929 2.929-7.678 0-10.606l-16.408-16.408 18.445-18.446 16.408 16.408c1.465 1.465 3.384 2.197 5.304 2.197 1.919 0 3.839-.732 5.304-2.197 2.929-2.929 2.929-7.678 0-10.606z"/><path d="m367.346 183.14c-9.134-1.319-17.883 1.677-24.642 8.436l-11.539 11.539c-1.409 1.408-2.199 3.319-2.197 5.311s.796 3.901 2.207 5.307l40.823 40.658c1.406 1.4 3.31 2.186 5.293 2.186h.036c1.996-.01 3.906-.815 5.308-2.237l11.756-11.937c12.141-12.572 10.35-32.3-4.258-46.908-6.93-6.93-14.81-11.202-22.787-12.355zm16.305 48.79-6.412 6.51-30.154-30.033 6.226-6.225c3.478-3.477 7.364-4.849 11.891-4.197 4.681.676 9.769 3.558 14.324 8.115 10.215 10.216 9.407 20.36 4.125 25.83z"/><path d="m300.088 186.936c1.465 1.464 3.385 2.197 5.304 2.197s3.839-.732 5.304-2.197c2.929-2.929 2.929-7.678 0-10.606l-24.893-24.892 45.7 8.364c3.809.694 7.356-.95 9.05-4.181 1.728-3.297 1-7.272-1.905-10.177l-40.96-40.175c-2.956-2.899-7.705-2.854-10.606.103-2.9 2.958-2.854 7.706.103 10.606l25.649 25.158-47.995-8.785c-3.231-.593-6.467.987-7.992 3.893-1.524 2.907-.982 6.467 1.338 8.788z"/><path d="m152.782 333.857c1.407 1.407 3.314 2.197 5.304 2.197s3.896-.79 5.304-2.197l17.528-17.528c2.929-2.929 2.929-7.678 0-10.606-2.93-2.929-7.678-2.929-10.607 0l-12.225 12.225-10.193-10.193 10.933-10.933c2.929-2.929 2.929-7.678-.001-10.606-2.928-2.93-7.677-2.929-10.606 0l-10.932 10.933-10.193-10.193 12.226-12.225c2.929-2.929 2.929-7.678 0-10.606-2.93-2.929-7.678-2.929-10.607 0l-17.528 17.528c-2.929 2.929-2.929 7.678 0 10.606z"/><path d="m349.081 136.722c1.406 1.4 3.31 2.186 5.293 2.186h.036c1.996-.01 3.906-.815 5.308-2.237l11.755-11.936c12.141-12.573 10.35-32.301-4.258-46.908-.001 0 0 0-.001 0-6.928-6.929-14.808-11.201-22.785-12.354-9.133-1.318-17.884 1.677-24.644 8.436l-11.538 11.539c-1.408 1.408-2.198 3.319-2.196 5.311s.796 3.901 2.207 5.306zm-18.688-52.207c3.478-3.478 7.373-4.848 11.892-4.197 4.681.676 9.768 3.558 14.323 8.115h.001c10.215 10.215 9.406 20.359 4.125 25.829l-6.411 6.51-30.155-30.032z"/><path d="m193.526 288.701c9.933 0 19.271-3.868 26.295-10.892 5.795-5.795 9.093-12.904 9.536-20.559.087-1.499.062-3.029-.07-4.55-.363-4.126-4.004-7.173-8.128-6.815-4.126.362-7.178 4.001-6.815 8.127.07.799.084 1.598.039 2.371-.23 3.98-1.97 7.621-5.168 10.819-4.191 4.19-9.763 6.498-15.688 6.498-5.927 0-11.498-2.308-15.688-6.499-4.19-4.19-6.498-9.761-6.498-15.688 0-5.926 2.308-11.498 6.499-15.688 3.144-3.145 7.101-5.25 11.443-6.091 4.066-.787 6.725-4.722 5.938-8.789s-4.723-6.729-8.789-5.938c-7.292 1.412-13.931 4.943-19.198 10.211-7.024 7.023-10.893 16.362-10.893 26.294 0 9.933 3.868 19.271 10.892 26.294 7.022 7.027 16.36 10.895 26.293 10.895z"/><path d="m105.25 330.559c-2.511 1.158-4.702 2.278-6.636 3.267-4.842 2.476-7.493 3.768-10.176 3.768-.969 0-2.42-.683-3.316-2.182-1.033-1.727-.893-3.917.406-6.335 4.112-7.659 13.887-8.808 14.157-8.838 4.101-.383 7.13-4.005 6.773-8.115-.356-4.126-3.976-7.181-8.119-6.825-.73.063-17.995 1.723-26.027 16.681-3.819 7.111-3.843 14.813-.064 21.131 3.498 5.849 9.702 9.482 16.19 9.482 6.42 0 11.325-2.508 17.005-5.412 1.895-.969 3.854-1.971 6.088-3 2.5-1.154 8.587-3.443 11.116.184 1.907 2.737 1.475 7.974-2.552 12-4.155 4.155-9.841 6.473-15.173 6.217-4.161-.22-7.657 2.985-7.86 7.122s2.985 7.656 7.122 7.859c.507.025 1.014.038 1.521.038 9.031 0 18.275-3.908 24.996-10.629 8.873-8.873 10.661-21.987 4.251-31.184-4.823-6.923-15.158-11.932-29.702-5.229z"/><path d="m243.637 238.591c9.933 0 19.271-3.868 26.295-10.892 14.498-14.499 14.498-38.09 0-52.589-7.023-7.023-16.362-10.892-26.295-10.892s-19.271 3.868-26.295 10.892c-14.498 14.499-14.498 38.09 0 52.589 7.023 7.024 16.362 10.892 26.295 10.892zm-15.688-52.874c4.189-4.19 9.762-6.498 15.688-6.498s11.498 2.308 15.688 6.498c8.65 8.65 8.65 22.726 0 31.376-4.189 4.19-9.762 6.498-15.688 6.498s-11.498-2.308-15.688-6.498c-8.65-8.651-8.65-22.726 0-31.376z"/><path d="m498.048 126.225-112.372-112.372c-18.473-18.47-48.524-18.471-66.997 0l-12.494 12.494c-16.411-3.573-33.291-5.405-50.229-5.405-62.771 0-121.785 24.444-166.172 68.831-44.386 44.386-68.831 103.4-68.831 166.172 0 16.938 1.832 33.819 5.405 50.23l-12.494 12.494c-18.471 18.471-18.471 48.525 0 66.996l112.372 112.372c8.948 8.948 20.845 13.875 33.498 13.875 12.654 0 24.551-4.928 33.499-13.875l12.487-12.487c16.406 3.573 33.298 5.398 50.236 5.398 62.771 0 121.786-24.444 166.172-68.831 44.387-44.386 68.831-103.4 68.831-166.172 0-16.937-1.833-33.817-5.405-50.229l12.495-12.495c18.47-18.471 18.47-48.525-.001-66.996zm-462.095 129.72c0-58.765 22.884-114.012 64.437-155.565 41.554-41.553 96.801-64.438 155.565-64.438 12.585 0 25.136 1.069 37.456 3.178l-34.013 34.013c-1.146-.021-2.292-.043-3.443-.043-100.826 0-182.854 82.028-182.854 182.854 0 1.151.022 2.297.043 3.443l-34.012 34.013c-2.11-12.32-3.179-24.871-3.179-37.455zm440.005 0c0 58.765-22.885 114.012-64.438 155.565s-96.801 64.438-155.565 64.438c-12.581 0-25.131-1.078-37.447-3.187l34.012-34.012c1.148.021 2.299.051 3.435.051 100.826 0 182.854-82.028 182.854-182.854 0-1.152-.019-2.299-.04-3.446l34.01-34.01c2.111 12.32 3.179 24.87 3.179 37.455zm11.482-73.33-102.196 102.195c-2.929 2.929-2.929 7.678 0 10.606 1.465 1.465 3.384 2.197 5.304 2.197 1.919 0 3.839-.732 5.304-2.197l27.528-27.528c-5.868 83.055-72.425 149.613-155.481 155.481l103.202-103.202c2.929-2.929 2.929-7.678 0-10.606-2.93-2.929-7.678-2.929-10.607 0l-177.869 177.869c-6.114 6.115-14.244 9.482-22.892 9.482s-16.776-3.367-22.891-9.482l-112.372-112.372c-12.622-12.623-12.622-33.161 0-45.783l98.947-98.946c2.929-2.929 2.929-7.678 0-10.606-2.93-2.929-7.678-2.929-10.607 0l-24.28 24.278c5.868-83.056 72.425-149.614 155.481-155.481l-106.45 106.451c-2.929 2.929-2.929 7.678 0 10.606 2.93 2.929 7.678 2.929 10.607 0l181.118-181.118c12.62-12.621 33.16-12.623 45.782 0l112.372 112.373c12.623 12.622 12.623 33.16 0 45.783z"/><circle cx="37.282" cy="351.943" r="7.5"/><circle cx="159.957" cy="474.623" r="7.5"/><circle cx="474.632" cy="159.945" r="7.5"/><circle cx="351.952" cy="37.267" r="7.5"/></g></svg>