<svg id="Capa_1" enable-background="new 0 0 512.013 512.013" height="32" viewBox="0 0 512.013 512.013" width="32" xmlns="http://www.w3.org/2000/svg"><g><path d="m177.708 379.371h-79.417l27.139-47.005c20.193 10.499 43.639-7.664 38.2-30.033l-16.064-66.064c-3.596-14.791-18.793-23.612-33.454-19.315l-70.852 20.764c-20.456 5.994-23.721 33.544-5.295 44.182l3.979 2.297-29.208 50.591c-36.159 62.629 8.973 140.968 81.388 140.969h83.585c26.633-.001 48.194-21.554 48.193-48.193-.001-26.635-21.555-48.194-48.194-48.193zm-151.983-37.084 32.958-57.086c2.07-3.585.842-8.174-2.745-10.245l-10.475-6.047c-7.009-4.047-5.755-14.521 2.013-16.797 73.811-21.461 71.056-21.243 74.167-21.243 5.063 0 9.999 3.408 11.346 8.944l16.064 66.064c2.44 10.035-8.279 18.06-17.22 12.898l-5.414-3.126c-3.588-2.072-8.175-.842-10.245 2.745-42.979 74.441-45.928 79.55-46.315 80.221-11.353 19.664-8.534 43.494 6.293 60.126-50.227-11.481-77.581-69.422-50.427-116.454zm151.983 118.469c-.131 0-64.459 0-63.311 0-28.032 0-45.581-30.333-31.547-54.641l7.147-12.38c3.672 1.211-.934.389 87.711.636 18.346 0 33.193 14.845 33.193 33.193.001 18.342-14.846 33.192-33.193 33.192zm112.346-259.452c67.648 19.456 66.099 20.215 72.81 20.215 11.551 0 22.817-7.778 25.89-20.41l17.445-71.742c5.036-20.712-17.193-37.317-35.616-26.676l-3.979 2.297-29.208-50.591c-36.138-62.592-126.569-62.713-162.777 0-12.333 21.361-8.879 15.378-17.108 29.632-2.071 3.587-.842 8.174 2.745 10.245 3.586 2.071 8.173.842 10.245-2.745l6.974-12.08c14.018-24.269 49.058-24.303 63.092.005l7.148 12.381c-2.874 2.565-.969.887-44.407 75.641-9.151 15.85-29.494 21.299-45.342 12.149-15.887-9.171-21.322-29.453-12.149-45.343l6.887-11.929c2.071-3.587.842-8.174-2.745-10.245-3.587-2.072-8.174-.843-10.245 2.745l-6.887 11.929c-13.316 23.065-5.431 52.515 17.64 65.833 23.012 13.287 52.546 5.374 65.833-17.64l39.709-68.777 27.139 47.005c-19.2 12.245-15.176 41.629 6.906 48.101zm-36.499-129.349c-15.736-27.256-44.638-25.741-44.538-25.713-3.65 0-7.221.383-10.68 1.101 35.051-37.753 98.906-32.486 126.067 14.555l32.958 57.086c2.071 3.588 6.66 4.817 10.245 2.745l10.475-6.047c7.013-4.047 15.452 2.279 13.54 10.142l-17.445 71.742c-1.575 6.48-8.235 10.347-14.659 8.464l-65.245-19.12c-9.908-2.903-11.503-16.2-2.56-21.362l5.414-3.125c3.584-2.069 4.817-6.659 2.745-10.246-17.794-30.819-30.127-52.18-46.317-80.222zm245.722 262.832c-.263-.455-41.613-72.077-41.792-72.387-13.289-23.013-42.819-30.926-65.833-17.64-23.014 13.287-30.927 42.82-17.64 65.832l39.708 68.778h-54.276c-1.003-22.733-28.456-33.962-45.11-18.066l-49.181 46.944c-11.012 10.511-11.052 28.08 0 38.629l53.408 50.979c15.36 14.659 40.91 3.895 40.91-17.506v-4.595h44.495c4.143 0 7.5-3.358 7.5-7.5s-3.357-7.5-7.5-7.5h-51.995c-4.143 0-7.5 3.358-7.5 7.5v12.095c0 8.093-9.698 12.245-15.553 6.656l-53.408-50.979c-4.826-4.606-4.844-12.305 0-16.928l49.181-46.944c7.471-7.133 19.78-1.86 19.78 8.464v6.251c0 4.142 3.357 7.5 7.5 7.5h92.631c22.711 0 41.934-14.359 48.924-35.514 13.245 42.984-12.899 88.646-55.955 99.483-4.017 1.011-6.453 5.087-5.442 9.104 1.012 4.018 5.087 6.454 9.104 5.442 58.566-14.741 89.997-82.755 58.044-138.098zm-54.674 44.583h-14.296c-.781-3.756-.287-1.288-43.304-76.278-9.151-15.85-3.701-36.19 12.149-45.342 15.848-9.152 36.189-3.7 45.343 12.15l31.66 54.837c14.005 24.273-3.484 54.633-31.552 54.633z"/></g></svg>