<?xml version="1.0" encoding="UTF-8"?>
<svg xmlns="http://www.w3.org/2000/svg" id="icons" viewBox="0 0 60 60" ><path d="M52.319,12.621a1,1,0,0,0-1.414,0,1.383,1.383,0,0,1-1.876,0l-1.65-1.65a1.323,1.323,0,0,1,0-1.876,1,1,0,0,0,0-1.414L40.6.9a3.048,3.048,0,0,0-2.17-.9h-.01a2.985,2.985,0,0,0-2.113.861L36.164.99A3.117,3.117,0,0,0,35.4,4.05c.742,2.524,1.807,9.039-4.216,15.107a1.905,1.905,0,0,0-1.567.036,1.845,1.845,0,0,0-1.056,1.632,2.446,2.446,0,0,1-.729,1.687l-2.416,2.415a1.914,1.914,0,0,0-1.569.036A1.848,1.848,0,0,0,22.793,26.6a2.447,2.447,0,0,1-.73,1.685L19.648,30.7a1.91,1.91,0,0,0-1.569.036,1.851,1.851,0,0,0-1.056,1.632,2.437,2.437,0,0,1-.729,1.686l-2.416,2.416a1.9,1.9,0,0,0-1.566.035,1.847,1.847,0,0,0-1.058,1.632,2.444,2.444,0,0,1-.729,1.686L8.112,42.232a1.888,1.888,0,0,0-1.555.03,1.85,1.85,0,0,0-1.07,1.629,2.483,2.483,0,0,1-.731,1.7L2.613,47.731a2.17,2.17,0,0,0-.579,1.044L.056,57.347A2.167,2.167,0,0,0,2.161,60a2.223,2.223,0,0,0,.492-.056l8.571-1.978a2.169,2.169,0,0,0,1.045-.579l2.966-2.967a4.434,4.434,0,0,1,2.078-1.234A1.858,1.858,0,0,0,18.7,51.759a1.889,1.889,0,0,0-.014-.793l2.315-2.316a4.448,4.448,0,0,1,2.082-1.234,1.856,1.856,0,0,0,1.386-1.426,1.885,1.885,0,0,0-.015-.792l2.316-2.316a4.448,4.448,0,0,1,2.083-1.236,1.851,1.851,0,0,0,1.385-1.426,1.88,1.88,0,0,0-.015-.791l2.317-2.317a4.456,4.456,0,0,1,2.082-1.235,1.852,1.852,0,0,0,1.385-1.425A1.889,1.889,0,0,0,36,33.659l2.316-2.316A4.433,4.433,0,0,1,40.4,30.108a1.852,1.852,0,0,0,1.385-1.425,1.881,1.881,0,0,0,0-.721A14.872,14.872,0,0,1,55.96,24.6a3.132,3.132,0,0,0,3.089-.806l.047-.056a3.059,3.059,0,0,0,0-4.338Zm-41.544,43.4L2.2,58a.163.163,0,0,1-.155-.044.158.158,0,0,1-.044-.155l1.733-7.411L11.3,55.5Zm3.046-3.011L12.75,54.065l-8.139-5.5L6.17,47a4.478,4.478,0,0,0,1.3-2.817L16.614,51.3A6.47,6.47,0,0,0,13.821,53.006Zm5.77-5.77L17.427,49.4,9.75,43.423l2.189-2.19a4.433,4.433,0,0,0,1.3-2.817l9.139,7.118A6.486,6.486,0,0,0,19.591,47.236Zm5.769-5.768L23.2,43.633l-7.676-5.979,2.189-2.189a4.442,4.442,0,0,0,1.3-2.819l9.139,7.12A6.477,6.477,0,0,0,25.36,41.468Zm5.77-5.77-2.166,2.165-7.676-5.979,2.19-2.19a4.438,4.438,0,0,0,1.3-2.816L33.92,34A6.468,6.468,0,0,0,31.13,35.7ZM36.9,29.929l-2.165,2.165-7.676-5.979,2.19-2.189a4.44,4.44,0,0,0,1.3-2.819l9.138,7.12A6.484,6.484,0,0,0,36.9,29.929Zm20.748-7.567-.05.06a1.09,1.09,0,0,1-1.081.258,16.82,16.82,0,0,0-15.951,3.693l-7.749-6.036A16.923,16.923,0,0,0,37.323,3.5a1.088,1.088,0,0,1,.214-1.052l.146-.132A1.039,1.039,0,0,1,38.425,2a1.283,1.283,0,0,1,.76.314L45.366,8.5a3.334,3.334,0,0,0,.6,3.889l1.65,1.65a3.379,3.379,0,0,0,3.884.594l6.187,6.186a1.066,1.066,0,0,1,.314.76A1.09,1.09,0,0,1,57.646,22.362Z"/></svg>
