<svg
xmlns="http://www.w3.org/2000/svg"
xml:space="preserve"
viewBox="0 0 682.667 682.667"
>
<defs>
  <clipPath id="a" clipPathUnits="userSpaceOnUse">
    <path d="M0 512h512V0H0Z" />
  </clipPath>
</defs>
<g clipPath="url(#a)" transform="matrix(1.33333 0 0 -1.33333 0 682.667)">
  <path
    d="M0 0c0-8.662 7.047-15.708 15.709-15.708h160.407c8.662 0 15.709 7.046 15.709 15.708v51.139c0 8.662-7.047 15.709-15.709 15.709H78.741a7.5 7.5 0 0 1 0-15h97.375a.71.71 0 0 0 .709-.709V0a.709.709 0 0 0-.709-.708H15.709A.709.709 0 0 0 15 0v51.139a.71.71 0 0 0 .709.709h28.032a7.5 7.5 0 0 1 7.5 7.5 7.5 7.5 0 0 1-7.5 7.5H15.709C7.047 66.848 0 59.801 0 51.139Zm442.674 15.303h-77.215a50.123 50.123 0 0 1 1.063 10.266v.001c0 3.521-.37 6.956-1.065 10.273h77.217c5.554.032 10.269-4.681 10.269-10.27 0-5.663-4.606-10.27-10.269-10.27M316.498-9.454h-22.926v70.048h22.926c19.313 0 35.024-15.712 35.024-35.025 0-19.312-15.711-35.023-35.024-35.023m-37.926-3.279-42.949-26.074V89.946l42.949-26.073Zm-57.949-31.901H3.488c-17.801 0-32.285 14.483-32.285 32.285v75.837c0 17.803 14.484 32.285 32.285 32.285h217.135zm-37.261-48.987a4.236 4.236 0 0 0-4.008-2.876h-24.93l-2.889 36.86h43.355zm-5.418-98.6c9.411 0 17.068-7.656 17.068-17.068v-56.938H13.405v56.938c0 9.412 7.657 17.068 17.068 17.068zm264.73 243.064h-83.031c-8.701 14.794-24.777 24.751-43.145 24.751H288.17l-56.155 34.091c-.722.414-2.155 1.099-3.892 1.088H3.488c-26.073 0-47.285-21.211-47.285-47.285v-75.837c0-26.073 21.212-47.285 47.285-47.285H59.1l-3.846-40.592a7.5 7.5 0 0 1 6.76-8.174c4.118-.385 7.783 2.635 8.174 6.759l3.979 42.004h62.321l9.215-117.58H63.027l3.83 40.431a7.5 7.5 0 0 1-6.759 8.174c-4.109.385-7.783-2.636-8.174-6.759l-3.965-41.85H30.473c-17.682 0-32.068-14.385-32.068-32.068v-59.438c0-6.892 5.608-12.5 12.5-12.5h186.607c6.892 0 12.5 5.608 12.5 12.5v59.438c0 17.683-14.386 32.068-32.068 32.068H160.75l-5.15 65.724h23.754a19.234 19.234 0 0 1 18.211 13.051l13.165 38.812h17.393c.96.088 2.175.061 3.892 1.089l56.155 34.091h28.328c18.371 0 34.449 9.96 43.148 24.757h83.028c13.933 0 25.269 11.336 25.269 25.27 0 13.827-11.571 25.333-25.269 25.27"
    style="fill:#000000;fill-opacity:1;fill-rule:nonzero;stroke:none"
    transform="translate(44.057 341.227)"
  />
</g>
</svg>