<svg id="Layer_1" enable-background="new 0 0 64 64" viewBox="0 0 64 64" xmlns="http://www.w3.org/2000/svg"><g id="ARC_1050_"><g><path d="m10.985 58.479c-1.453 0-2.807-.545-3.829-1.546-1.064-1.042-1.66-2.51-1.633-4.029.026-1.518.67-2.963 1.768-3.965.204-.186.52-.172.707.032.186.204.172.521-.032.707-.896.818-1.422 2-1.443 3.244-.021 1.246.464 2.447 1.333 3.297.863.845 2.024 1.308 3.26 1.259 1.228-.033 2.397-.559 3.208-1.443.187-.205.502-.217.707-.031.204.187.217.503.031.707-.993 1.083-2.421 1.727-3.918 1.768-.054 0-.107 0-.159 0z"/></g></g><g id="ARC_1051_"><g><path d="m23.461 35.345c-.209 0-.405-.132-.474-.342-1.127-3.384-.222-7.086 2.364-9.663 2.593-2.584 6.305-3.481 9.683-2.342.262.088.402.372.314.633-.089.262-.374.403-.633.314-3.018-1.017-6.334-.211-8.658 2.104-2.315 2.307-3.128 5.617-2.122 8.638.087.262-.055.545-.316.633-.052.017-.105.025-.158.025z"/></g></g><g id="LINE_1410_"><g><path d="m7.628 49.808c-.135 0-.271-.055-.369-.163-.186-.204-.172-.521.032-.707l15.833-14.463c.205-.186.52-.172.707.032.186.204.172.521-.032.707l-15.834 14.463c-.096.088-.216.131-.337.131z"/></g></g><g id="ARC_1052_"><g><path d="m31.988 45.489c-2.027 0-4.058-.45-5.921-1.362-.248-.122-.351-.421-.229-.669s.42-.351.669-.229c3.909 1.912 8.613 1.634 12.275-.726 3.676-2.368 5.916-6.721 5.707-11.088-.208-4.342-2.704-8.324-6.513-10.394-3.837-2.085-8.56-2.005-12.325.211-5.495 3.232-7.684 10.528-4.879 16.262.121.248.019.547-.229.669-.249.122-.547.019-.669-.229-3.081-6.298-.766-14.012 5.271-17.563 4.063-2.392 9.165-2.48 13.31-.228 4.115 2.236 6.81 6.537 7.035 11.225.229 4.791-2.133 9.38-6.164 11.977-2.212 1.422-4.772 2.144-7.338 2.144z"/></g></g><g id="ARC_1053_"><g><path d="m31.92 41.488c-.979 0-1.964-.156-2.924-.476-.262-.087-.403-.37-.316-.632.086-.262.367-.405.632-.316 3.022 1.007 6.336.188 8.651-2.135 2.307-2.315 3.108-5.627 2.09-8.645-.088-.262.052-.545.314-.633.263-.09.545.052.633.314 1.14 3.379.247 7.084-2.329 9.67-1.85 1.859-4.278 2.853-6.751 2.853z"/></g></g><g id="LINE_1411_"><g><path d="m14.692 56.872c-.121 0-.241-.043-.337-.131-.204-.186-.218-.502-.032-.707l14.463-15.833c.187-.204.502-.217.707-.032.204.186.218.502.032.707l-14.464 15.833c-.099.108-.234.163-.369.163z"/></g></g><g id="ARC_1054_"><g><path d="m27 52.896c-.04 0-.08-.004-.12-.014-2.271-.557-4.422-1.474-6.394-2.725-.233-.148-.303-.457-.155-.69.148-.234.458-.302.69-.155 1.881 1.193 3.932 2.067 6.097 2.598.268.066.432.337.367.605-.055.228-.26.381-.485.381z"/></g></g><g id="ARC_1055_"><g><path d="m14.266 43.746c-.166 0-.328-.082-.423-.232-1.251-1.972-2.167-4.124-2.725-6.394-.065-.268.099-.539.367-.605.27-.063.539.099.605.367.531 2.165 1.405 4.216 2.598 6.097.148.233.079.542-.155.69-.083.052-.176.077-.267.077z"/></g></g><g id="LINE_1412_"><g><path d="m28.602 30.245c-.128 0-.256-.049-.354-.146-.195-.195-.195-.512 0-.707l6.273-6.273c.195-.195.512-.195.707 0s.195.512 0 .707l-6.273 6.273c-.097.097-.225.146-.353.146z"/></g></g><g id="LINE_1413_"><g><path d="m29.796 34.703c-.221 0-.423-.147-.482-.371l-1.194-4.458c-.071-.267.087-.541.354-.612.267-.072.542.086.612.354l1.194 4.458c.071.267-.087.541-.354.612-.044.012-.087.017-.13.017z"/></g></g><g id="LINE_1414_"><g><path d="m34.255 35.898c-.128 0-.256-.049-.354-.146-.195-.195-.195-.512 0-.707l6.273-6.273c.195-.195.512-.195.707 0s.195.512 0 .707l-6.273 6.273c-.097.097-.225.146-.353.146z"/></g></g><g id="LINE_1415_"><g><path d="m34.256 35.898c-.043 0-.086-.005-.13-.017l-4.459-1.195c-.267-.071-.425-.346-.354-.612.071-.267.346-.426.612-.354l4.459 1.195c.267.071.425.346.354.612-.059.224-.261.371-.482.371z"/></g></g><g id="ARC_1056_"><g><path d="m37 52.896c-.225 0-.429-.153-.485-.381-.065-.269.099-.539.367-.605 2.028-.497 3.961-1.297 5.747-2.38.237-.142.544-.068.687.168s.068.543-.168.687c-1.872 1.135-3.9 1.975-6.027 2.497-.042.01-.082.014-.121.014z"/></g></g><g id="ARC_1057_"><g><path d="m49.957 43.387c-.088 0-.178-.023-.259-.072-.236-.144-.312-.451-.168-.687 1.082-1.784 1.883-3.717 2.38-5.747.066-.268.339-.43.605-.367.268.066.432.337.367.605-.522 2.128-1.362 4.156-2.497 6.027-.094.155-.259.241-.428.241z"/></g></g><g id="ARC_1058_"><g><path d="m52.396 27.5c-.225 0-.429-.153-.485-.381-.498-2.029-1.298-3.963-2.38-5.747-.143-.236-.068-.543.168-.687.236-.141.544-.068.687.168 1.134 1.871 1.975 3.898 2.497 6.027.065.268-.099.539-.367.605-.041.011-.081.015-.12.015z"/></g></g><g id="ARC_1059_"><g><path d="m42.886 14.542c-.088 0-.178-.023-.259-.072-1.785-1.083-3.718-1.884-5.747-2.38-.268-.066-.432-.336-.367-.605.066-.268.338-.433.605-.367 2.127.521 4.155 1.361 6.027 2.497.236.144.312.451.168.687-.093.155-.258.24-.427.24z"/></g></g><g id="ARC_1060_"><g><path d="m21.114 14.542c-.169 0-.334-.085-.428-.241-.143-.236-.068-.543.168-.687 1.872-1.135 3.9-1.975 6.027-2.497.27-.066.539.098.605.367.065.269-.099.539-.367.605-2.028.497-3.961 1.297-5.747 2.38-.08.05-.17.073-.258.073z"/></g></g><g id="ARC_1061_"><g><path d="m11.604 27.5c-.04 0-.08-.004-.12-.014-.268-.066-.432-.337-.367-.605.522-2.128 1.362-4.156 2.497-6.027.144-.236.452-.31.687-.168.236.144.312.451.168.687-1.082 1.784-1.883 3.717-2.38 5.747-.055.227-.26.38-.485.38z"/></g></g><g id="LINE_1416_"><g><path d="m27 56.312c-.276 0-.5-.224-.5-.5v-3.416c0-.276.224-.5.5-.5s.5.224.5.5v3.416c0 .276-.224.5-.5.5z"/></g></g><g id="LINE_1417_"><g><path d="m27 12.104c-.276 0-.5-.224-.5-.5v-3.416c0-.276.224-.5.5-.5s.5.224.5.5v3.416c0 .276-.224.5-.5.5z"/></g></g><g id="LINE_1418_"><g><path d="m37 56.312c-.276 0-.5-.224-.5-.5v-3.416c0-.276.224-.5.5-.5s.5.224.5.5v3.416c0 .276-.224.5-.5.5z"/></g></g><g id="LINE_1419_"><g><path d="m37 12.104c-.276 0-.5-.224-.5-.5v-3.416c0-.276.224-.5.5-.5s.5.224.5.5v3.416c0 .276-.224.5-.5.5z"/></g></g><g id="LINE_1420_"><g><path d="m42.887 14.542c-.128 0-.256-.049-.354-.146-.195-.195-.195-.512 0-.707l2.415-2.416c.195-.195.512-.195.707 0s.195.512 0 .707l-2.415 2.416c-.097.098-.225.146-.353.146z"/></g></g><g id="LINE_1421_"><g><path d="m49.958 21.613c-.128 0-.256-.049-.354-.146-.195-.195-.195-.512 0-.707l2.416-2.415c.195-.195.512-.195.707 0s.195.512 0 .707l-2.416 2.415c-.098.097-.226.146-.353.146z"/></g></g><g id="LINE_1422_"><g><path d="m55.812 27.5h-3.416c-.276 0-.5-.224-.5-.5s.224-.5.5-.5h3.416c.276 0 .5.224.5.5s-.224.5-.5.5z"/></g></g><g id="LINE_1423_"><g><path d="m11.604 27.5h-3.416c-.276 0-.5-.224-.5-.5s.224-.5.5-.5h3.416c.276 0 .5.224.5.5s-.224.5-.5.5z"/></g></g><g id="LINE_1424_"><g><path d="m55.812 37.5h-3.416c-.276 0-.5-.224-.5-.5s.224-.5.5-.5h3.416c.276 0 .5.224.5.5s-.224.5-.5.5z"/></g></g><g id="LINE_1425_"><g><path d="m11.604 37.5h-3.416c-.276 0-.5-.224-.5-.5s.224-.5.5-.5h3.416c.276 0 .5.224.5.5s-.224.5-.5.5z"/></g></g><g id="LINE_1426_"><g><path d="m52.373 45.802c-.128 0-.256-.049-.354-.146l-2.416-2.415c-.195-.195-.195-.512 0-.707s.512-.195.707 0l2.416 2.415c.195.195.195.512 0 .707-.097.097-.225.146-.353.146z"/></g></g><g id="LINE_1427_"><g><path d="m21.113 14.542c-.128 0-.256-.049-.354-.146l-2.415-2.416c-.195-.195-.195-.512 0-.707s.512-.195.707 0l2.415 2.416c.195.195.195.512 0 .707-.097.098-.225.146-.353.146z"/></g></g><g id="LINE_1428_"><g><path d="m45.302 52.873c-.128 0-.256-.049-.354-.146l-2.415-2.416c-.195-.195-.195-.512 0-.707s.512-.195.707 0l2.415 2.416c.195.195.195.512 0 .707-.097.097-.225.146-.353.146z"/></g></g><g id="LINE_1429_"><g><path d="m14.042 21.613c-.128 0-.256-.049-.354-.146l-2.416-2.415c-.195-.195-.195-.512 0-.707s.512-.195.707 0l2.416 2.415c.195.195.195.512 0 .707-.097.097-.225.146-.353.146z"/></g></g><g id="ARC_1062_"><g><path d="m46.717 53.458c-.644 0-1.285-.247-1.769-.731-.195-.195-.195-.512 0-.707s.512-.195.707 0c.534.534 1.384.587 1.98.124.219-.169.532-.129.702.088.169.218.13.532-.088.702-.452.351-.993.524-1.532.524z"/></g></g><g id="ARC_1063_"><g><path d="m47.943 53.039c-.149 0-.297-.066-.396-.193-.169-.218-.13-.532.088-.702 1.684-1.307 3.201-2.824 4.508-4.508.17-.217.483-.258.702-.088.218.169.258.483.088.702-1.358 1.75-2.935 3.326-4.685 4.685-.09.069-.198.104-.305.104z"/></g></g><g id="ARC_1064_"><g><path d="m52.538 48.442c-.107 0-.215-.034-.306-.105-.218-.169-.258-.483-.088-.702.462-.595.409-1.447-.124-1.98-.195-.195-.195-.512 0-.707s.512-.195.707 0c.889.889.978 2.309.207 3.301-.099.127-.246.193-.396.193z"/></g></g><g id="ARC_1065_"><g><path d="m55.812 37.5c-.276 0-.5-.224-.5-.5s.224-.5.5-.5c.754 0 1.394-.564 1.488-1.313.035-.274.28-.464.559-.434.274.035.468.285.434.559-.158 1.248-1.225 2.188-2.481 2.188z"/></g></g><g id="ARC_1066_"><g><path d="m57.796 35.75c-.021 0-.042-.001-.063-.004-.274-.035-.468-.285-.434-.559.267-2.115.267-4.26 0-6.375-.035-.274.16-.524.434-.559.276-.033.524.16.559.434.277 2.198.277 4.427 0 6.625-.032.253-.247.438-.496.438z"/></g></g><g id="ARC_1067_"><g><path d="m57.795 29.25c-.249 0-.464-.185-.496-.438-.094-.748-.734-1.313-1.488-1.313-.276 0-.5-.224-.5-.5s.224-.5.5-.5c1.257 0 2.323.94 2.48 2.188.035.274-.16.524-.434.559-.02.003-.041.004-.062.004z"/></g></g><g id="ARC_1068_"><g><path d="m52.373 19.198c-.128 0-.256-.049-.354-.146-.195-.195-.195-.512 0-.707.533-.534.586-1.385.124-1.98-.169-.218-.13-.532.088-.702.219-.169.532-.13.702.088.771.992.682 2.412-.207 3.301-.097.097-.225.146-.353.146z"/></g></g><g id="ARC_1069_"><g><path d="m52.539 16.558c-.149 0-.297-.066-.396-.193-1.307-1.684-2.824-3.201-4.508-4.508-.218-.169-.258-.483-.088-.702s.482-.258.702-.088c1.75 1.358 3.326 2.935 4.685 4.685.169.218.13.532-.088.702-.092.069-.2.104-.307.104z"/></g></g><g id="ARC_1070_"><g><path d="m45.302 12.127c-.128 0-.256-.049-.354-.146-.195-.195-.195-.512 0-.707.889-.888 2.309-.977 3.301-.207.218.169.258.483.088.702-.169.217-.482.258-.702.088-.596-.462-1.447-.41-1.98.124-.097.097-.225.146-.353.146z"/></g></g><g id="ARC_1071_"><g><path d="m37 8.688c-.276 0-.5-.224-.5-.5 0-.754-.564-1.394-1.313-1.488-.274-.035-.468-.285-.434-.559s.284-.469.559-.434c1.248.158 2.188 1.225 2.188 2.481 0 .277-.224.5-.5.5z"/></g></g><g id="ARC_1072_"><g><path d="m35.25 6.704c-.021 0-.042-.001-.063-.004-2.115-.267-4.26-.267-6.375 0-.276.03-.524-.16-.559-.434s.16-.524.434-.559c2.198-.277 4.427-.277 6.625 0 .274.035.468.285.434.559-.032.254-.247.438-.496.438z"/></g></g><g id="ARC_1073_"><g><path d="m27 8.688c-.276 0-.5-.224-.5-.5 0-1.257.94-2.323 2.188-2.48.278-.035.524.16.559.434s-.16.524-.434.559c-.749.093-1.313.733-1.313 1.487 0 .277-.224.5-.5.5z"/></g></g><g id="ARC_1074_"><g><path d="m18.698 12.127c-.128 0-.256-.049-.354-.146-.534-.534-1.385-.586-1.98-.124-.219.169-.533.129-.702-.088-.169-.218-.13-.532.088-.702.993-.77 2.412-.681 3.301.207.195.195.195.512 0 .707-.097.097-.225.146-.353.146z"/></g></g><g id="ARC_1075_"><g><path d="m11.461 16.558c-.107 0-.215-.034-.306-.105-.218-.169-.258-.483-.088-.702 1.358-1.75 2.935-3.326 4.685-4.685.219-.17.533-.13.702.088s.13.532-.088.702c-1.684 1.307-3.201 2.824-4.508 4.508-.1.127-.248.194-.397.194z"/></g></g><g id="ARC_1076_"><g><path d="m11.627 19.198c-.128 0-.256-.049-.354-.146-.889-.889-.978-2.309-.207-3.301.169-.218.482-.258.702-.088.218.169.258.483.088.702-.462.595-.409 1.447.124 1.98.195.195.195.512 0 .707-.097.097-.225.146-.353.146z"/></g></g><g id="ARC_1077_"><g><path d="m6.205 29.25c-.021 0-.042-.001-.063-.004-.274-.035-.468-.285-.434-.559.157-1.247 1.224-2.187 2.48-2.187.276 0 .5.224.5.5s-.224.5-.5.5c-.754 0-1.394.564-1.488 1.313-.032.252-.247.437-.495.437z"/></g></g><g id="ARC_1078_"><g><path d="m6.204 35.75c-.249 0-.464-.185-.496-.438-.277-2.198-.277-4.427 0-6.625.035-.274.286-.466.559-.434.274.035.468.285.434.559-.267 2.115-.267 4.26 0 6.375.035.274-.16.524-.434.559-.021.003-.043.004-.063.004z"/></g></g><g id="ARC_1079_"><g><path d="m8.188 37.5c-1.257 0-2.323-.94-2.48-2.188-.035-.274.16-.524.434-.559.275-.031.524.16.559.434.093.749.733 1.313 1.487 1.313.276 0 .5.224.5.5s-.223.5-.5.5z"/></g></g><g id="ARC_1080_"><g><path d="m28.75 58.296c-.021 0-.042-.001-.063-.004-1.247-.157-2.188-1.224-2.188-2.48 0-.276.224-.5.5-.5s.5.224.5.5c0 .754.564 1.394 1.313 1.488.274.035.468.285.434.559-.032.252-.247.437-.496.437z"/></g></g><g id="ARC_1081_"><g><path d="m32 58.5c-1.107 0-2.213-.069-3.313-.208-.274-.035-.468-.285-.434-.559s.282-.468.559-.434c2.115.267 4.26.267 6.375 0 .273-.035.524.16.559.434s-.16.524-.434.559c-1.099.139-2.205.208-3.312.208z"/></g></g><g id="ARC_1082_"><g><path d="m35.25 58.296c-.249 0-.464-.185-.496-.438-.035-.274.16-.524.434-.559.748-.094 1.313-.734 1.313-1.488 0-.276.224-.5.5-.5s.5.224.5.5c0 1.257-.94 2.323-2.188 2.48-.021.003-.043.005-.063.005z"/></g></g></svg>