<?xml version="1.0" encoding="iso-8859-1"?>
<!-- Generator: Adobe Illustrator 19.0.0, SVG Export Plug-In . SVG Version: 6.00 Build 0)  -->
<svg version="1.1" id="Layer_1" xmlns="http://www.w3.org/2000/svg" xmlns:xlink="http://www.w3.org/1999/xlink" x="0px" y="0px"
	 viewBox="0 0 512.006 512.006" style="enable-background:new 0 0 512.006 512.006;" xml:space="preserve">
<g>
	<g>
		<g>
			<path d="M503.523,182.542L280.939,8.65c-14.703-11.486-35.234-11.486-49.937,0L8.504,182.482
				c-7.518,5.871-10.368,15.488-7.27,24.508c3.106,9.02,11.281,14.848,20.813,14.848h37.658v281.6c0,4.719,3.823,8.533,8.533,8.533
				h375.467c4.71,0,8.533-3.814,8.533-8.533v-281.6h37.751c9.523,0,17.681-5.82,20.779-14.822
				C513.874,198.013,511.023,188.404,503.523,182.542z M494.631,201.46c-0.341,0.998-1.485,3.311-4.642,3.311h-46.285
				c-4.71,0-8.533,3.814-8.533,8.533v281.6h-358.4v-281.6c0-4.719-3.823-8.533-8.533-8.533H22.046c-3.183,0-4.326-2.33-4.668-3.336
				c-0.35-1.007-0.879-3.55,1.63-5.504L241.507,22.098c8.516-6.656,20.412-6.656,28.928,0L493.01,195.99
				C495.501,197.936,494.972,200.462,494.631,201.46z"/>
			<path d="M273.037,230.371c10.351,0,20.548,3.072,29.483,8.9c3.951,2.569,9.242,1.459,11.81-2.492
				c2.569-3.951,1.459-9.233-2.492-11.81c-11.716-7.629-25.131-11.665-38.801-11.665c-34.319,0-63.453,25.15-73.264,59.733h-20.603
				c-4.71,0-8.533,3.814-8.533,8.533c0,4.719,3.823,8.533,8.533,8.533h17.452c-0.252,2.807-0.385,5.653-0.385,8.533
				s0.133,5.726,0.385,8.533h-17.452c-4.71,0-8.533,3.814-8.533,8.533s3.823,8.533,8.533,8.533h20.603
				c9.811,34.583,38.945,59.733,73.264,59.733c13.662,0,27.068-4.036,38.792-11.656c3.951-2.569,5.069-7.851,2.5-11.802
				c-2.577-3.959-7.859-5.069-11.81-2.5c-8.943,5.82-19.14,8.892-29.483,8.892c-25.018,0-46.479-17.676-55.359-42.667h29.759
				c4.71,0,8.533-3.814,8.533-8.533s-3.823-8.533-8.533-8.533h-33.65c-0.307-2.798-0.483-5.642-0.483-8.533s0.176-5.735,0.483-8.533
				h33.65c4.71,0,8.533-3.814,8.533-8.533c0-4.719-3.823-8.533-8.533-8.533h-29.759
				C226.559,248.047,248.019,230.371,273.037,230.371z"/>
		</g>
	</g>
</g>
<g>
</g>
<g>
</g>
<g>
</g>
<g>
</g>
<g>
</g>
<g>
</g>
<g>
</g>
<g>
</g>
<g>
</g>
<g>
</g>
<g>
</g>
<g>
</g>
<g>
</g>
<g>
</g>
<g>
</g>
</svg>
