<svg width="463" height="397" viewBox="0 0 463 397" fill="none" xmlns="http://www.w3.org/2000/svg">
<g clip-path="url(#clip0_241_179)">
<path d="M396.076 74.2236H199.231V394.769H396.076V74.2236Z" fill="#010200" stroke="#010200" stroke-width="3" stroke-linecap="round" stroke-linejoin="round"/>
<path d="M250.387 90.9507H219.537V145.818H250.387V90.9507Z" fill="#FFC700"/>
<path d="M314.249 166.778H283.398V221.646H314.249V166.778Z" fill="#878787" stroke="#010200" stroke-width="6.22399" stroke-linecap="round" stroke-linejoin="round"/>
<path d="M378.111 166.778H347.26V221.646H378.111V166.778Z" fill="#3B76B5" stroke="#010200" stroke-width="6.22399" stroke-linecap="round" stroke-linejoin="round"/>
<path d="M378.111 242.606H347.26V297.474H378.111V242.606Z" fill="#3B76B5" stroke="#010200" stroke-width="6.22399" stroke-linecap="round" stroke-linejoin="round"/>
<path d="M250.387 242.606H219.537V297.474H250.387V242.606Z" fill="#878787" stroke="#010200" stroke-width="6.22399" stroke-linecap="round" stroke-linejoin="round"/>
<path d="M378.111 318.434H347.26V373.302H378.111V318.434Z" fill="#878787" stroke="#010200" stroke-width="6.22399" stroke-linecap="round" stroke-linejoin="round"/>
<path d="M199.231 74.2236L215.217 26.8352H382.431L396.076 74.2236H199.231Z" stroke="#010200" stroke-width="3" stroke-linecap="round" stroke-linejoin="round"/>
<path d="M215.217 26.8352V74.2236" stroke="#010200" stroke-width="2.48933" stroke-linecap="round" stroke-linejoin="round"/>
<path d="M229.151 26.8352V74.2236" stroke="#010200" stroke-width="2.48933" stroke-linecap="round" stroke-linejoin="round"/>
<path d="M243.086 26.8352V74.2236" stroke="#010200" stroke-width="2.48933" stroke-linecap="round" stroke-linejoin="round"/>
<path d="M257.021 26.8352V74.2236" stroke="#010200" stroke-width="2.48933" stroke-linecap="round" stroke-linejoin="round"/>
<path d="M270.956 26.8352V74.2236" stroke="#010200" stroke-width="2.48933" stroke-linecap="round" stroke-linejoin="round"/>
<path d="M284.89 26.8352V74.2236" stroke="#010200" stroke-width="2.48933" stroke-linecap="round" stroke-linejoin="round"/>
<path d="M298.825 26.8352V74.2236" stroke="#010200" stroke-width="2.48933" stroke-linecap="round" stroke-linejoin="round"/>
<path d="M312.759 26.8352V74.2236" stroke="#010200" stroke-width="2.48933" stroke-linecap="round" stroke-linejoin="round"/>
<path d="M326.693 26.8352V74.2236" stroke="#010200" stroke-width="2.48933" stroke-linecap="round" stroke-linejoin="round"/>
<path d="M340.628 26.8352V74.2236" stroke="#010200" stroke-width="2.48933" stroke-linecap="round" stroke-linejoin="round"/>
<path d="M354.562 26.8352V74.2236" stroke="#010200" stroke-width="2.48933" stroke-linecap="round" stroke-linejoin="round"/>
<path d="M368.497 26.8352V74.2236" stroke="#010200" stroke-width="2.48933" stroke-linecap="round" stroke-linejoin="round"/>
<path d="M382.431 26.8352V74.2236" stroke="#010200" stroke-width="2.48933" stroke-linecap="round" stroke-linejoin="round"/>
<path d="M250.387 90.9507H219.537V145.818H250.387V90.9507Z" stroke="#010200" stroke-width="6.22399" stroke-linecap="round" stroke-linejoin="round"/>
<path d="M234.962 90.9507V145.818" stroke="#010200" stroke-width="2.48933" stroke-linecap="round" stroke-linejoin="round"/>
<path d="M219.537 108.52H250.388" stroke="#010200" stroke-width="2.48933" stroke-linecap="round" stroke-linejoin="round"/>
<path d="M219.537 128.248H250.388" stroke="#010200" stroke-width="2.48933" stroke-linecap="round" stroke-linejoin="round"/>
<path d="M314.249 90.9507H283.398V145.818H314.249V90.9507Z" fill="#878787" stroke="#010200" stroke-width="6.22399" stroke-linecap="round" stroke-linejoin="round"/>
<path d="M298.825 90.9507V145.818" stroke="#010200" stroke-width="2.48933" stroke-linecap="round" stroke-linejoin="round"/>
<path d="M283.398 108.52H314.249" stroke="#010200" stroke-width="2.48933" stroke-linecap="round" stroke-linejoin="round"/>
<path d="M283.398 128.248H314.249" stroke="#010200" stroke-width="2.48933" stroke-linecap="round" stroke-linejoin="round"/>
<path d="M378.111 90.9507H347.26V145.818H378.111V90.9507Z" fill="#878787" stroke="#010200" stroke-width="6.22399" stroke-linecap="round" stroke-linejoin="round"/>
<path d="M362.686 90.9507V145.818" stroke="#010200" stroke-width="2.48933" stroke-linecap="round" stroke-linejoin="round"/>
<path d="M347.26 108.52H378.112" stroke="#010200" stroke-width="2.48933" stroke-linecap="round" stroke-linejoin="round"/>
<path d="M347.26 128.248H378.112" stroke="#010200" stroke-width="2.48933" stroke-linecap="round" stroke-linejoin="round"/>
<path d="M250.387 166.778H219.537V221.646H250.387V166.778Z" fill="#878787" stroke="#010200" stroke-width="6.22399" stroke-linecap="round" stroke-linejoin="round"/>
<path d="M234.962 166.778V221.645" stroke="#010200" stroke-width="2.48933" stroke-linecap="round" stroke-linejoin="round"/>
<path d="M219.537 184.348H250.388" stroke="#010200" stroke-width="2.48933" stroke-linecap="round" stroke-linejoin="round"/>
<path d="M219.537 204.076H250.388" stroke="#010200" stroke-width="2.48933" stroke-linecap="round" stroke-linejoin="round"/>
<path d="M314.249 166.778H283.398V221.646H314.249V166.778Z" stroke="#010200" stroke-width="6.22399" stroke-linecap="round" stroke-linejoin="round"/>
<path d="M298.825 166.778V221.645" stroke="#010200" stroke-width="2.48933" stroke-linecap="round" stroke-linejoin="round"/>
<path d="M283.398 184.348H314.249" stroke="#010200" stroke-width="2.48933" stroke-linecap="round" stroke-linejoin="round"/>
<path d="M283.398 204.076H314.249" stroke="#010200" stroke-width="2.48933" stroke-linecap="round" stroke-linejoin="round"/>
<path d="M378.111 166.778H347.26V221.646H378.111V166.778Z" stroke="#010200" stroke-width="6.22399" stroke-linecap="round" stroke-linejoin="round"/>
<path d="M362.686 166.778V221.645" stroke="#010200" stroke-width="2.48933" stroke-linecap="round" stroke-linejoin="round"/>
<path d="M347.26 184.348H378.112" stroke="#010200" stroke-width="2.48933" stroke-linecap="round" stroke-linejoin="round"/>
<path d="M347.26 204.076H378.112" stroke="#010200" stroke-width="2.48933" stroke-linecap="round" stroke-linejoin="round"/>
<path d="M250.387 242.606H219.537V297.474H250.387V242.606Z" stroke="#010200" stroke-width="6.22399" stroke-linecap="round" stroke-linejoin="round"/>
<path d="M234.962 242.606V297.474" stroke="#010200" stroke-width="2.48933" stroke-linecap="round" stroke-linejoin="round"/>
<path d="M219.537 260.176H250.388" stroke="#010200" stroke-width="2.48933" stroke-linecap="round" stroke-linejoin="round"/>
<path d="M219.537 279.904H250.388" stroke="#010200" stroke-width="2.48933" stroke-linecap="round" stroke-linejoin="round"/>
<path d="M314.249 242.606H283.398V297.474H314.249V242.606Z" fill="#878787" stroke="#010200" stroke-width="6.22399" stroke-linecap="round" stroke-linejoin="round"/>
<path d="M298.825 242.606V297.474" stroke="#010200" stroke-width="2.48933" stroke-linecap="round" stroke-linejoin="round"/>
<path d="M283.398 260.176H314.249" stroke="#010200" stroke-width="2.48933" stroke-linecap="round" stroke-linejoin="round"/>
<path d="M283.398 279.904H314.249" stroke="#010200" stroke-width="2.48933" stroke-linecap="round" stroke-linejoin="round"/>
<path d="M378.111 242.606H347.26V297.474H378.111V242.606Z" stroke="#010200" stroke-width="6.22399" stroke-linecap="round" stroke-linejoin="round"/>
<path d="M362.686 242.606V297.474" stroke="#010200" stroke-width="2.48933" stroke-linecap="round" stroke-linejoin="round"/>
<path d="M347.26 260.176H378.112" stroke="#010200" stroke-width="2.48933" stroke-linecap="round" stroke-linejoin="round"/>
<path d="M347.26 279.904H378.112" stroke="#010200" stroke-width="2.48933" stroke-linecap="round" stroke-linejoin="round"/>
<path d="M250.387 318.434H219.537V373.302H250.387V318.434Z" fill="#878787" stroke="#010200" stroke-width="6.22399" stroke-linecap="round" stroke-linejoin="round"/>
<path d="M234.962 318.434V373.302" stroke="#010200" stroke-width="2.48933" stroke-linecap="round" stroke-linejoin="round"/>
<path d="M219.537 336.004H250.388" stroke="#010200" stroke-width="2.48933" stroke-linecap="round" stroke-linejoin="round"/>
<path d="M219.537 355.731H250.388" stroke="#010200" stroke-width="2.48933" stroke-linecap="round" stroke-linejoin="round"/>
<path d="M322.234 318.434H275.415V394.768H322.234V318.434Z" fill="#878787" stroke="#010200" stroke-width="3" stroke-linecap="round" stroke-linejoin="round"/>
<path d="M378.111 318.434H347.26V373.302H378.111V318.434Z" stroke="#010200" stroke-width="6.22399" stroke-linecap="round" stroke-linejoin="round"/>
<path d="M362.686 318.434V373.302" stroke="#010200" stroke-width="2.48933" stroke-linecap="round" stroke-linejoin="round"/>
<path d="M347.26 336.004H378.112" stroke="#010200" stroke-width="2.48933" stroke-linecap="round" stroke-linejoin="round"/>
<path d="M347.26 355.731H378.112" stroke="#010200" stroke-width="2.48933" stroke-linecap="round" stroke-linejoin="round"/>
<path d="M298.825 318.434V394.768" stroke="#010200" stroke-width="2.48933" stroke-linecap="round" stroke-linejoin="round"/>
<path d="M295.664 323.176H280.113V370.308H295.664V323.176Z" stroke="#010200" stroke-linecap="round" stroke-linejoin="round"/>
<path d="M317.695 323.176H302.144V370.308H317.695V323.176Z" stroke="#010200" stroke-linecap="round" stroke-linejoin="round"/>
<path d="M295.664 374.452H280.113V390.248H295.664V374.452Z" stroke="#010200" stroke-linecap="round" stroke-linejoin="round"/>
<path d="M317.695 374.452H302.144V390.248H317.695V374.452Z" stroke="#010200" stroke-linecap="round" stroke-linejoin="round"/>
<path d="M231.654 8.05322H224.333V26.8354H231.654V8.05322Z" stroke="#010200" stroke-width="3" stroke-linecap="round" stroke-linejoin="round"/>
<path d="M234.962 2.02905H221.024V8.05302H234.962V2.02905Z" stroke="#010200" stroke-width="3" stroke-linecap="round" stroke-linejoin="round"/>
<path d="M436.997 306.433L462.999 397H396.081L423.311 306.433H436.997Z" fill="#FFC700"/>
<path d="M396.081 394.768V297.473C396.081 297.473 395.325 281.513 412.055 281.513C428.785 281.513 430.154 299.596 430.154 299.596" stroke="#010200" stroke-width="3" stroke-linecap="round" stroke-linejoin="round"/>
<path d="M423.311 306.433C423.311 302.657 426.375 299.596 430.154 299.596C433.933 299.596 436.997 302.657 436.997 306.433H423.311Z" fill="black" stroke="#010200" stroke-width="3" stroke-linecap="round" stroke-linejoin="round"/>
<path d="M198.877 149.312H2.03174V394.768H198.877V149.312Z" fill="#010200" stroke="#010200" stroke-width="3" stroke-linecap="round" stroke-linejoin="round"/>
<path d="M53.1882 166.039H22.3374V220.906H53.1882V166.039Z" fill="#878787" stroke="#010200" stroke-width="6.22399" stroke-linecap="round" stroke-linejoin="round"/>
<path d="M117.051 241.866H86.1997V296.734H117.051V241.866Z" fill="#878787" stroke="#010200" stroke-width="6.22399" stroke-linecap="round" stroke-linejoin="round"/>
<path d="M180.912 241.866H150.061V296.734H180.912V241.866Z" fill="#878787" stroke="#010200" stroke-width="6.22399" stroke-linecap="round" stroke-linejoin="round"/>
<path d="M180.912 318.434H150.061V373.302H180.912V318.434Z" fill="#878787" stroke="#010200" stroke-width="6.22399" stroke-linecap="round" stroke-linejoin="round"/>
<path d="M2.03174 149.312L18.018 101.924H198.877V149.312H2.03174Z" stroke="#010200" stroke-width="3" stroke-linecap="round" stroke-linejoin="round"/>
<path d="M18.0181 101.924V149.312" stroke="#010200" stroke-width="2.48933" stroke-linecap="round" stroke-linejoin="round"/>
<path d="M31.9521 101.924V149.312" stroke="#010200" stroke-width="2.48933" stroke-linecap="round" stroke-linejoin="round"/>
<path d="M45.8867 101.924V149.312" stroke="#010200" stroke-width="2.48933" stroke-linecap="round" stroke-linejoin="round"/>
<path d="M59.8213 101.924V149.312" stroke="#010200" stroke-width="2.48933" stroke-linecap="round" stroke-linejoin="round"/>
<path d="M73.7559 101.924V149.312" stroke="#010200" stroke-width="2.48933" stroke-linecap="round" stroke-linejoin="round"/>
<path d="M87.6909 101.924V149.312" stroke="#010200" stroke-width="2.48933" stroke-linecap="round" stroke-linejoin="round"/>
<path d="M101.625 101.924V149.312" stroke="#010200" stroke-width="2.48933" stroke-linecap="round" stroke-linejoin="round"/>
<path d="M115.56 101.924V149.312" stroke="#010200" stroke-width="2.48933" stroke-linecap="round" stroke-linejoin="round"/>
<path d="M129.494 101.924V149.312" stroke="#010200" stroke-width="2.48933" stroke-linecap="round" stroke-linejoin="round"/>
<path d="M143.429 101.924V149.312" stroke="#010200" stroke-width="2.48933" stroke-linecap="round" stroke-linejoin="round"/>
<path d="M157.363 101.924V149.312" stroke="#010200" stroke-width="2.48933" stroke-linecap="round" stroke-linejoin="round"/>
<path d="M171.297 101.924V149.312" stroke="#010200" stroke-width="2.48933" stroke-linecap="round" stroke-linejoin="round"/>
<path d="M185.232 101.924V149.312" stroke="#010200" stroke-width="2.48933" stroke-linecap="round" stroke-linejoin="round"/>
<path d="M53.1882 166.039H22.3374V220.906H53.1882V166.039Z" stroke="#010200" stroke-width="6.22399" stroke-linecap="round" stroke-linejoin="round"/>
<path d="M37.7632 166.039V220.905" stroke="#010200" stroke-width="2.48933" stroke-linecap="round" stroke-linejoin="round"/>
<path d="M22.3374 183.608H53.1891" stroke="#010200" stroke-width="2.48933" stroke-linecap="round" stroke-linejoin="round"/>
<path d="M22.3374 203.336H53.1891" stroke="#010200" stroke-width="2.48933" stroke-linecap="round" stroke-linejoin="round"/>
<path d="M117.051 166.039H86.1997V220.906H117.051V166.039Z" fill="#878787" stroke="#010200" stroke-width="6.22399" stroke-linecap="round" stroke-linejoin="round"/>
<path d="M101.625 166.039V220.905" stroke="#010200" stroke-width="2.48933" stroke-linecap="round" stroke-linejoin="round"/>
<path d="M86.1997 183.608H117.051" stroke="#010200" stroke-width="2.48933" stroke-linecap="round" stroke-linejoin="round"/>
<path d="M86.1997 203.336H117.051" stroke="#010200" stroke-width="2.48933" stroke-linecap="round" stroke-linejoin="round"/>
<path d="M180.912 166.039H150.061V220.906H180.912V166.039Z" fill="#878787" stroke="#010200" stroke-width="6.22399" stroke-linecap="round" stroke-linejoin="round"/>
<path d="M165.487 166.039V220.905" stroke="#010200" stroke-width="2.48933" stroke-linecap="round" stroke-linejoin="round"/>
<path d="M150.061 183.608H180.913" stroke="#010200" stroke-width="2.48933" stroke-linecap="round" stroke-linejoin="round"/>
<path d="M150.061 203.336H180.913" stroke="#010200" stroke-width="2.48933" stroke-linecap="round" stroke-linejoin="round"/>
<path d="M53.1882 241.866H22.3374V296.734H53.1882V241.866Z" fill="#878787" stroke="#010200" stroke-width="6.22399" stroke-linecap="round" stroke-linejoin="round"/>
<path d="M37.7632 241.866V296.734" stroke="#010200" stroke-width="2.48933" stroke-linecap="round" stroke-linejoin="round"/>
<path d="M22.3374 259.437H53.1891" stroke="#010200" stroke-width="2.48933" stroke-linecap="round" stroke-linejoin="round"/>
<path d="M22.3374 279.164H53.1891" stroke="#010200" stroke-width="2.48933" stroke-linecap="round" stroke-linejoin="round"/>
<path d="M117.051 241.866H86.1997V296.734H117.051V241.866Z" stroke="#010200" stroke-width="6.22399" stroke-linecap="round" stroke-linejoin="round"/>
<path d="M101.625 241.866V296.734" stroke="#010200" stroke-width="2.48933" stroke-linecap="round" stroke-linejoin="round"/>
<path d="M86.1997 259.437H117.051" stroke="#010200" stroke-width="2.48933" stroke-linecap="round" stroke-linejoin="round"/>
<path d="M86.1997 279.164H117.051" stroke="#010200" stroke-width="2.48933" stroke-linecap="round" stroke-linejoin="round"/>
<path d="M180.912 241.866H150.061V296.734H180.912V241.866Z" stroke="#010200" stroke-width="6.22399" stroke-linecap="round" stroke-linejoin="round"/>
<path d="M165.487 241.866V296.734" stroke="#010200" stroke-width="2.48933" stroke-linecap="round" stroke-linejoin="round"/>
<path d="M150.061 259.437H180.913" stroke="#010200" stroke-width="2.48933" stroke-linecap="round" stroke-linejoin="round"/>
<path d="M150.061 279.164H180.913" stroke="#010200" stroke-width="2.48933" stroke-linecap="round" stroke-linejoin="round"/>
<path d="M53.1882 318.434H22.3374V373.302H53.1882V318.434Z" fill="#878787" stroke="#010200" stroke-width="6.22399" stroke-linecap="round" stroke-linejoin="round"/>
<path d="M37.7632 318.434V373.302" stroke="#010200" stroke-width="2.48933" stroke-linecap="round" stroke-linejoin="round"/>
<path d="M22.3374 336.004H53.1891" stroke="#010200" stroke-width="2.48933" stroke-linecap="round" stroke-linejoin="round"/>
<path d="M22.3374 355.731H53.1891" stroke="#010200" stroke-width="2.48933" stroke-linecap="round" stroke-linejoin="round"/>
<path d="M125.034 318.434H78.2153V394.768H125.034V318.434Z" fill="#878787" stroke="#010200" stroke-width="3" stroke-linecap="round" stroke-linejoin="round"/>
<path d="M180.912 318.434H150.061V373.302H180.912V318.434Z" stroke="#010200" stroke-width="6.22399" stroke-linecap="round" stroke-linejoin="round"/>
<path d="M165.487 318.434V373.302" stroke="#010200" stroke-width="2.48933" stroke-linecap="round" stroke-linejoin="round"/>
<path d="M150.061 336.004H180.913" stroke="#010200" stroke-width="2.48933" stroke-linecap="round" stroke-linejoin="round"/>
<path d="M150.061 355.731H180.913" stroke="#010200" stroke-width="2.48933" stroke-linecap="round" stroke-linejoin="round"/>
<path d="M101.625 318.434V394.768" stroke="#010200" stroke-width="2.48933" stroke-linecap="round" stroke-linejoin="round"/>
<path d="M98.4652 323.176H82.9141V370.308H98.4652V323.176Z" stroke="#010200" stroke-linecap="round" stroke-linejoin="round"/>
<path d="M120.496 323.176H104.945V370.308H120.496V323.176Z" stroke="#010200" stroke-linecap="round" stroke-linejoin="round"/>
<path d="M98.4652 374.452H82.9141V390.248H98.4652V374.452Z" stroke="#010200" stroke-linecap="round" stroke-linejoin="round"/>
<path d="M120.496 374.452H104.945V390.248H120.496V374.452Z" stroke="#010200" stroke-linecap="round" stroke-linejoin="round"/>
<path d="M34.4547 83.1418H27.1333V101.924H34.4547V83.1418Z" stroke="#010200" stroke-width="3" stroke-linecap="round" stroke-linejoin="round"/>
<path d="M37.7621 77.1169H23.8242V83.1409H37.7621V77.1169Z" stroke="#010200" stroke-width="3" stroke-linecap="round" stroke-linejoin="round"/>
</g>
<defs>
<clipPath id="clip0_241_179">
<rect width="463" height="397" fill="white"/>
</clipPath>
</defs>
</svg>
