<svg width="270" height="442" viewBox="0 0 270 442" fill="none" xmlns="http://www.w3.org/2000/svg">
<g clip-path="url(#clip0_241_1702)">
<path d="M99.7595 438.412C99.7595 438.412 89.0895 436.128 79.8986 438.737C70.7077 441.346 60.1252 447.024 49.0191 432.11C37.9131 417.198 20.8908 399.027 11.2829 390.322C1.675 381.618 -2.7421 370.977 2.63659 360.469C8.01528 349.961 -4.70849 345.415 2.01361 330.583C8.73572 315.752 16.5269 305.358 17.2655 296.933C18.004 288.509 11.4818 281.152 15.1072 274.511C18.7335 267.871 16.0798 257.414 21.6474 251.926C27.215 246.438 36.4621 258.656 36.4621 258.656C36.4621 258.656 29.8094 251.586 35.9386 246.218C42.0679 240.849 49.9214 238.475 44.2493 233.319C38.5772 228.163 30.4102 233.341 32.9122 225.409C35.4141 217.475 37.5483 213.517 40.4924 208.685C43.4365 203.852 43.4797 198.321 54.435 195.897C65.3903 193.472 91.2518 193.503 130.458 154.573C169.665 115.644 200.93 72.491 215.165 43.8037C229.402 15.1165 231.342 -0.0374196 243.646 0.000804556C255.949 0.0390287 268.348 2.58798 268.223 25.9671C268.099 49.3462 272.422 57.4779 267.554 68.2179C262.686 78.9579 260.921 78.7728 262.832 89.5088C264.742 100.245 258.214 126.882 255.347 144.081C252.479 161.28 248.373 186.647 245.778 200.53C243.181 214.412 248.911 220.801 245.48 239.243C242.05 257.685 228.48 310.727 216.242 339.088C204.003 367.449 214.585 364.49 198.113 379.084C181.642 393.678 166.698 403.541 159.833 414.608C152.97 425.675 136.087 424.865 130.001 432.855C123.915 440.846 111.872 445.669 99.7595 438.412Z" fill="#050504"/>
<path d="M121.684 367.578C121.684 367.578 112.355 369.105 103.261 363.052C94.1679 357 84.9579 358.261 77.7505 360.752C70.543 363.242 71.3569 353.684 67.1167 358.803C62.8764 363.923 54.5607 368.152 52.2647 359.103C49.9688 350.053 43.0125 331.52 47.2769 327.052C51.5413 322.584 49.2925 319.077 46.457 312.626C43.6224 306.175 42.7412 286.24 40.9045 278.999C39.0677 271.759 44.7418 261.064 36.4622 258.655C36.4622 258.655 35.8865 259.425 34.0276 264.025C32.1687 268.625 27.6974 272.813 28.3817 276.26C29.0659 279.706 37.674 279.774 35.0495 286.268C32.426 292.762 34.0668 294.789 34.1673 300.92C34.2678 307.051 38.1513 309.776 34.4195 318.009C30.6877 326.242 26.7127 331.482 24.0892 337.977C21.4656 344.471 16.8154 349.085 16.2397 354.588C15.6649 360.092 21.2606 363.274 19.238 368.441C17.2153 373.607 16.2718 376.397 18.7135 382.302C21.1551 388.208 22.6463 386.331 22.2815 380.076C21.9178 373.821 21.1411 367.064 22.176 363.37C23.21 359.676 17.6393 357.145 19.7816 351.714C21.9238 346.282 29.5834 335.029 30.5962 334.207C31.6081 333.386 37.2018 333.044 34.6978 339.273C32.1949 345.501 29.9069 350.548 28.3917 355.304C26.8755 360.06 26.1118 370.921 28.1827 367.059C30.2536 363.195 33.8628 351.704 34.4647 350.376C35.0666 349.048 40.5146 348.32 40.181 353.293C39.8464 358.265 37.461 360.704 43.0326 363.235C48.6042 365.766 49.397 365.485 53.6554 368.06C57.9137 370.636 60.1052 366.506 63.2693 374.349C66.4324 382.191 65.8084 386.392 69.5232 388.079C73.2369 389.766 81.5054 387.757 84.9498 382.276C88.3943 376.795 100.081 374.907 107.871 371.23C115.662 367.554 121.684 367.578 121.684 367.578Z" fill="#E32982"/>
<path d="M134.581 363.829C134.581 363.829 147.928 347.793 148.068 341.132C148.209 334.469 156.787 326.837 150.805 323.8C144.824 320.762 137.83 318.546 139.491 314.176C141.152 309.807 143.435 312.124 149.879 315.052C156.323 317.979 161.442 322.213 164.028 316.508C166.613 310.804 176.736 306.114 179.144 300.803C181.551 295.491 192.703 276.537 195.35 270.693C197.999 264.85 200.529 262.797 204.74 249.978C208.951 237.159 218.294 218.663 219.351 212.098C220.408 205.532 222.909 195.779 214.95 192.164C206.991 188.549 204.896 191.76 203.542 186.981C202.189 182.203 201.896 177.907 198.979 176.581C196.061 175.256 189.675 182.284 193.672 174.171C197.669 166.059 205.672 163.929 206.415 155.939C207.158 147.95 197.631 144.263 201.871 139.143C206.112 134.023 213.943 127.332 216.712 121.224C219.481 115.115 217.501 111.013 221.112 103.046C224.723 95.0785 230.535 97.0782 229.59 89.2825C228.644 81.4868 227.075 77.8917 226.399 77.264C225.724 76.6363 222.516 74.539 219.145 81.9756C215.774 89.4122 212.21 93.5575 206.971 102.387C201.732 111.217 193.345 117.015 189.949 123.8C186.554 130.585 196.742 113.755 202.52 101.006C208.299 88.2585 213.856 81.8147 221.196 73.2997C228.536 64.7848 230.128 65.507 236.122 51.5763C242.117 37.6456 253.151 26.0044 258.985 25.1312C264.819 24.2581 263.101 33.0859 264.979 38.4232C266.857 43.7605 268.839 51.3862 265.011 60.5369C261.184 69.6876 258.178 83.3748 258.639 88.7091C259.101 94.0434 257.853 102.444 256.199 117.385C254.545 132.327 250.283 144.162 248.423 155.167C246.563 166.171 246.188 183.937 243.518 192.652C240.847 201.367 243.485 216.017 242.79 221.786C242.094 227.554 241.194 252.127 234.742 267.771C228.29 283.416 225.143 300.242 222.328 308.571C219.513 316.899 211.692 341.211 209.164 346.788C206.636 352.365 208.07 369.67 190.454 383.126C172.838 396.582 161.727 402.744 158.958 408.852C156.189 414.96 151.419 419.839 147.538 420.638C143.656 421.436 134.687 422.167 131.339 426.73C127.991 431.294 114.495 439.896 107.862 436.883C107.862 436.883 124.851 424.103 127.813 416.161C130.773 408.218 126.042 400.304 133.326 403.292C140.61 406.281 145.456 406.88 148.635 401.278C151.814 395.676 176.318 371.258 179.522 366.308C182.725 361.358 203.535 328.857 206.277 318.572C209.019 308.288 217.689 279.985 214.517 283.455C211.345 286.926 212.853 271.598 212.853 271.598C212.853 271.598 216.125 261.555 211.013 260.834C205.902 260.112 201.477 271.989 198.67 278.183C195.863 284.377 190.492 294.108 183.555 303.767C176.618 313.427 168.207 318.573 163.222 328.158C158.237 337.744 142.051 361.457 134.578 363.828L134.581 363.829Z" fill="#E32982"/>
<path d="M36.3375 226.965C36.3375 226.965 47.962 230.963 51.941 232.771C55.92 234.579 59.8558 242.131 66.5317 239.399C73.2086 236.667 79.5931 229.639 83.4455 221.141C87.2979 212.642 103.693 205.408 106.953 198.215C110.212 191.024 114.743 188.086 119.694 182.104C124.644 176.122 128.57 169.578 125.315 169.701C122.061 169.824 124.933 165.605 122.207 168.09C119.481 170.574 101.31 183.137 95.5493 185.964C89.7888 188.792 74.146 195.778 69.3722 197.133C64.5994 198.488 54.2078 199.532 50.8357 203.445C47.4626 207.357 44.7858 205.501 41.0289 213.082C37.2729 220.663 36.3354 226.964 36.3354 226.964L36.3375 226.965Z" fill="#E32982"/>
<path d="M45.0883 223.893C45.0883 223.893 54.5163 224.973 59.0258 227.021C63.5354 229.07 65.0426 232.316 68.5423 225.9C72.041 219.482 71.7245 214.534 77.4609 211.055C83.1973 207.575 87.9028 201.428 87.9028 201.428C87.9028 201.428 89.6602 196.14 84.6894 197.224C79.7197 198.309 79.3379 205.501 73.502 202.85C67.6651 200.199 58.8842 204.417 53.6703 204.961C48.4564 205.505 39.6413 224.62 45.0893 223.892L45.0883 223.893Z" fill="#050504"/>
<path d="M31.9929 360.458C31.9929 360.458 33.1746 374.66 35.7358 377.412C38.298 380.166 43.0578 379.468 43.324 383.084C43.5893 386.7 42.2238 389.011 44.8101 390.31C47.3965 391.609 51.0308 392.695 59.2893 396.888C67.5477 401.08 52.4205 391.03 48.5912 388.973C44.7619 386.916 46.2219 387.897 47.3925 384.615C48.5631 381.332 43.0407 378.108 40.3679 376.299C37.6962 374.49 31.9929 360.458 31.9929 360.458Z" fill="#E32982"/>
<path d="M39.0396 417.049C39.0396 417.049 48.2897 414.85 56.6457 418.827C65.0016 422.805 70.6777 432.693 70.6777 432.693C70.6777 432.693 81.0241 437.881 79.0075 433.225C76.9908 428.568 74.091 417.765 65.3321 414.874C56.5723 411.983 43.6516 408.973 40.5648 409.478C37.4791 409.983 32.9836 414.298 39.0386 417.048L39.0396 417.049Z" fill="#E32982"/>
<path d="M100.227 419.33C100.227 419.33 109.593 414.775 111.026 411.613C112.46 408.45 114.849 403.179 114.849 403.179C114.849 403.179 116.879 398.699 112.896 399.432C108.913 400.166 114.151 398.413 110.626 404.44C107.102 410.466 100.227 419.33 100.227 419.33Z" fill="#E32982"/>
<path d="M134.845 185.036C134.845 185.036 144.365 173.47 151.78 171.118C159.195 168.767 161.128 161.699 163.303 157.602C165.477 153.505 172.606 149.752 176.06 145.6C179.513 141.448 181.494 132.178 185.511 128.918C189.528 125.658 196.868 117.869 199.376 112.335C201.884 106.8 205.062 105.702 209.46 96.8941C213.858 88.0864 223.134 76.7278 227.583 74.6174C232.031 72.5071 230.808 67.5017 230.808 67.5017C230.808 67.5017 223.296 74.5772 215.911 82.6626C208.526 90.748 202.644 96.022 201.69 101.627C200.737 107.232 196.961 113.461 193.757 117.727C190.554 121.992 183.926 121.207 180.463 128.849C176.998 136.492 174.754 142.146 173.296 144.662C171.838 147.178 164.181 146.56 161.673 152.095C159.164 157.629 155.121 156.746 153.451 163.932C151.781 171.118 134.845 185.036 134.845 185.036Z" fill="#E32982"/>
<path d="M133.745 176.591C133.745 176.591 153.349 154.351 160.615 144.622C167.882 134.893 177.063 124.445 180.312 117.976C183.562 111.507 198.158 94.302 201.209 87.4257C204.261 80.5494 207.514 81.0734 212.77 69.4784C218.026 57.8824 229.167 44.511 232.033 38.1859C234.9 31.8608 243.456 22.3993 245.058 18.3606C246.66 14.3209 252.112 2.81546 252.112 2.81546C252.112 2.81546 248.325 0.141781 246.891 3.30433C245.457 6.46688 241.35 17.6303 239.678 21.32C238.006 25.0096 228.731 36.3682 226.7 40.8485C224.669 45.3288 216.755 50.9498 214.763 60.2141C212.77 69.4784 207.269 71.111 204.521 77.1726C201.774 83.2341 193.717 92.604 191.925 96.5572C190.133 100.51 175.079 118.495 173.807 123.921C172.535 129.347 160.566 143.33 156.693 146.973C152.819 150.616 147.079 152.775 143.875 157.041C140.672 161.306 140.101 166.768 137.089 169.212C134.075 171.658 133.744 176.592 133.744 176.592L133.745 176.591Z" fill="#E32982"/>
<path d="M102.064 280.104C102.064 280.104 104.595 289.516 108.753 291.405C112.911 293.294 129.733 296.803 129.733 296.803C129.733 296.803 111.467 296.769 107.201 294.831C102.935 292.893 100.297 284.703 102.064 280.104Z" fill="#E32982"/>
<path d="M69.9873 271.73C69.9873 271.73 80.1629 265.388 83.2738 265.529C86.3846 265.67 91.3684 266.346 93.3851 263.766C95.4007 261.186 98.2573 252.783 91.8618 252.186C85.4662 251.588 82.9794 254.272 82.9794 254.272C82.9794 254.272 87.7813 253.593 86.3635 257.716C84.9457 261.84 78.8727 264.732 77.7122 265.193C76.5517 265.654 69.9873 271.73 69.9873 271.73Z" fill="#E32982"/>
<path d="M104.802 235.542C104.802 235.542 111.248 238.83 110.605 242.351C109.961 245.873 106.057 248.866 109.746 250.541C113.435 252.217 121.518 246.99 124.438 248.952C127.358 250.914 130.414 252.578 135.839 256.016C141.264 259.455 142.941 262.759 146.65 265.08C150.36 267.401 154.979 261.414 152.619 259.617C150.259 257.821 151.666 263.821 147.685 261.398C143.704 258.975 137.487 250.982 133.892 248.756C130.298 246.53 126.356 244.02 120.861 242.836C115.366 241.653 110.25 235.432 104.802 235.541V235.542Z" fill="#E32982"/>
<path d="M140.044 222.371C140.044 222.371 139.159 223.891 147.438 225.73C155.718 227.568 162.582 224.331 162.582 224.331C162.582 224.331 152.758 220.503 149.355 221.5C145.953 222.497 140.044 222.371 140.044 222.371Z" fill="#E32982"/>
<path d="M168.567 194.316C168.567 194.316 175.446 199.347 184.171 193.458C184.171 193.458 170.695 192.422 168.567 194.316Z" fill="#E32982"/>
<path d="M87.6707 220.811C87.6707 220.811 96.4245 216.207 100.585 213.33C104.746 210.453 105.604 205.759 108.162 201.517C110.719 197.276 115.743 196.697 116.747 195.883C117.751 195.068 110.211 190.689 107.703 196.224C105.194 201.758 103.308 206.622 100.319 209.713C97.3308 212.805 87.6697 220.81 87.6697 220.81L87.6707 220.811Z" fill="#E32982"/>
<path d="M7.18541 326.942C7.18541 326.942 9.24726 333.599 8.48462 337.385C7.72198 341.17 6.86086 342.368 8.46452 343.732C10.0682 345.096 17.6323 350.12 17.6323 350.12C17.6323 350.12 9.80593 344.976 7.98925 348.283C6.17358 351.589 3.65957 350.129 7.08493 355.181C10.5093 360.233 8.12189 364.098 12.5129 366.319C16.9028 368.539 17.6464 371.101 17.6464 371.101C17.6464 371.101 11.7351 368.735 11.1624 370.698C10.5897 372.663 13.7025 375.601 14.2542 378.585C14.8058 381.57 16.1754 390.455 16.1754 390.455C16.1754 390.455 9.85717 387.585 8.2515 382.724C6.64584 377.862 2.07299 373.243 3.69675 368.26C5.32051 363.276 4.68246 366.084 5.8842 360.632C7.08594 355.18 2.10615 350.058 3.77814 346.368C5.45012 342.679 4.1057 334.44 7.18642 326.941L7.18541 326.942Z" fill="#E32982"/>
<path d="M36.1809 399.543C36.1809 399.543 44.571 397.14 48.1049 399.151C51.6377 401.162 50.9123 401.361 53.3348 404.422C54.3537 405.709 54.9596 406.668 55.7504 407.311C56.8396 408.195 58.2774 408.478 61.6274 408.189L66.5329 407.522C66.5329 407.522 59.5395 407.611 58.5196 404.924C57.4997 402.237 55.245 398.808 51.5252 397.209C47.8064 395.608 41.3707 396.498 36.1809 399.544V399.543Z" fill="#E32982"/>
</g>
<defs>
<clipPath id="clip0_241_1702">
<rect width="269.875" height="442" fill="white"/>
</clipPath>
</defs>
</svg>
