<svg width="592" height="331" viewBox="0 0 592 331" fill="none" xmlns="http://www.w3.org/2000/svg">
<g clip-path="url(#clip0_243_1792)">
<path d="M563.44 131.253H337.648C334.329 131.253 331.64 133.937 331.64 137.25C331.64 140.564 334.329 143.247 337.648 143.247H338.417C342.043 143.614 345.04 146.103 346.135 149.455C352.602 172.017 392.211 192.08 441.504 194.293V201.995C439.588 203.484 438.05 205.427 437.056 207.671L294.508 243.195L292.156 232.002C291.469 228.271 288.206 225.673 284.542 225.676C280.876 225.673 277.614 228.272 276.926 232.002L273.471 248.437L128.007 284.688C127.986 284.672 127.966 284.657 127.945 284.64V272.221C177.184 270.011 216.757 249.99 223.292 227.46H223.304C224.484 223.812 227.913 221.175 231.958 221.175V221.167C235.204 221.085 237.811 218.439 237.811 215.179C237.811 211.866 235.121 209.181 231.803 209.181H6.00847C2.6902 209.181 0.000976562 211.866 0.000976562 215.179C0.000976562 218.439 2.60834 221.085 5.8551 221.167V221.175C9.90086 221.175 13.33 223.813 14.5093 227.46H14.5197C21.0536 249.99 60.6262 270.011 109.867 272.221V284.64C106.399 287.335 104.159 291.528 104.159 296.255C104.159 304.387 110.76 310.977 118.905 310.977C126.099 310.977 132.081 305.833 133.381 299.03L266.176 283.131L263.261 296.995C263.261 296.995 261.747 303.824 257.576 306.898C251.686 311.24 243.415 311.598 243.415 311.598C236.381 312.227 230.761 317.253 230.761 324.231V327.971C230.761 330.185 232.088 330.997 233.867 330.997H335.219C336.998 330.997 338.325 330.184 338.325 327.971V324.231C338.325 317.253 332.705 312.226 325.672 311.598C325.672 311.598 317.399 311.24 311.509 306.898C307.339 303.823 305.822 296.995 305.822 296.995L301.487 276.376L439.249 223.065C441.955 226.284 446.009 228.33 450.544 228.33C458.691 228.33 465.291 221.74 465.291 213.609C465.291 208.882 463.052 204.687 459.583 201.994V194.292C509.061 192.07 548.781 171.868 555.027 149.206C556.187 145.981 559.119 143.603 562.654 143.246H563.44C566.759 143.246 569.448 140.562 569.448 137.249C569.448 133.937 566.759 131.253 563.44 131.253ZM284.542 266.922C281.242 266.922 278.567 264.252 278.567 260.957C278.567 257.662 281.241 254.993 284.542 254.993C287.843 254.993 290.517 257.663 290.517 260.957C290.517 264.251 287.843 266.922 284.542 266.922Z" fill="#080808"/>
<path d="M147.124 212.65C147.071 212.159 146.914 212.09 146.914 212.09C146.914 212.09 147.037 211.546 146.79 210.739C146.545 209.932 145.544 209.477 145.069 209.442C144.594 209.407 143.277 209.214 141.907 208.811C140.537 208.408 139.326 207.286 139.326 207.286C139.326 207.286 139.449 207.094 139.151 206.585C138.852 206.077 138.062 205.094 138.062 205.094C138.062 205.094 138.167 204.901 138.079 204.69C137.991 204.479 137.359 203.883 137.359 203.883C137.359 203.883 137.377 203.725 137.218 203.358C137.059 202.99 136.427 202.586 136.427 202.586C136.427 202.586 136.498 202.445 136.41 202.095C136.322 201.744 135.689 201.252 135.689 201.252C135.689 201.252 135.795 201.147 135.742 200.745C135.689 200.342 135.11 200.219 135.11 200.219L134.987 199.939L135.128 199.535C135.269 199.132 134.496 198.676 134.496 198.676C134.496 198.676 134.601 198.536 134.847 198.396C135.092 198.255 134.812 197.169 134.882 196.468C134.953 195.766 134.672 195.38 134.672 195.38C134.672 195.38 134.988 194.714 135.48 194.048C135.972 193.382 136.077 193.066 135.796 192.155C135.515 191.243 134.637 185.702 134.391 183.844C134.145 181.986 134.075 180.863 134.285 179.285C134.496 177.707 134.426 171.394 134.25 167.607C134.074 163.82 133.442 162.032 133.442 162.032C133.583 161.331 133.336 160.525 133.09 160.104C132.845 159.683 132.81 159.367 133.161 158.912C133.512 158.456 133.618 157.895 133.583 156.562C133.547 155.23 132.564 152.179 132.564 152.179C132.564 152.179 133.302 151.092 133.583 148.918C133.863 146.743 133.688 140.607 133.688 139.59C133.688 138.574 134.566 129.14 134.637 126.089C134.707 123.039 134.32 119.707 134.32 119.707C134.32 119.707 134.637 119.848 134.795 119.584C134.954 119.321 135.182 117.375 135.339 116.778C135.498 116.182 135.48 114.727 135.55 114.043C135.62 113.359 135.409 111.255 135.55 110.869C135.69 110.483 136.076 110.238 136.305 109.887C136.533 109.536 136.568 108.309 136.568 108.309C136.568 108.309 136.779 108.082 137.13 107.345C137.481 106.609 137.516 104.996 137.516 104.996C137.516 104.996 139.15 104.488 139.571 103.891C139.993 103.295 141.117 100.805 141.485 99.6305C141.854 98.4553 141.994 97.5086 141.994 97.5086C141.994 97.5086 143.154 95.8078 143.136 95.2647C143.119 94.7215 143.154 93.6166 143.4 93.1955C143.645 92.7745 143.505 91.8806 143.698 91.4595C143.891 91.0385 143.891 90.337 143.944 90.0391C143.996 89.7411 144.646 88.9166 144.787 88.8638C144.928 88.8111 145.086 88.5483 145.139 88.0217C145.191 87.4961 145.086 86.0933 144.911 85.3567C144.734 84.62 144.015 83.1303 144.015 83.1303C144.015 83.1303 144.086 82.7796 144.138 82.3937C144.191 82.0078 143.681 81.8857 143.699 81.1667C143.717 80.4477 143.436 80.0618 143.418 79.4307C143.401 78.7996 143.085 77.1691 142.926 76.5546C142.767 75.9411 142.259 72.8902 141.96 71.9787C141.662 71.0673 141.626 70.2251 141.521 69.7875C141.415 69.3499 141.538 67.526 141.415 66.2452C141.292 64.9654 140.853 61.1955 140.168 59.2319C139.483 57.2683 138.008 54.6208 137.393 54.1294C136.779 53.638 135.689 53.4632 135.689 53.4632C135.409 53.218 131.334 50.9037 130.105 50.254C128.876 49.6053 124.801 47.3613 124.801 47.3613C124.854 46.8533 124.889 44.2576 124.379 42.9075C123.87 41.5574 122.377 40.5404 122.377 40.5404C122.447 40.1194 122.921 37.2795 123.062 36.8936C123.203 36.5077 123.641 35.6139 123.641 35.6139C123.834 35.7546 124.519 35.9646 125.135 35.5963C125.75 35.228 126.118 33.703 126.189 32.9664C126.259 32.2298 126.347 32.3881 126.469 31.7218C126.593 31.0556 126.259 29.2844 125.837 29.1272C125.415 28.9689 124.801 29.4075 124.801 29.4075C124.801 29.4075 124.871 26.9349 124.73 25.4627C124.589 23.9895 124.256 22.955 123.87 22.149C123.484 21.3421 122.676 20.922 122.325 20.7989C121.974 20.6758 121.921 20.2558 121.781 20.0447C121.64 19.8347 120.815 19.0453 119.48 18.3615C118.146 17.6776 116.67 17.5028 115.757 17.5194C114.844 17.5369 114.106 17.8877 113.158 17.8877C112.21 17.8877 111.384 18.7815 110.822 18.9926C110.26 19.2026 108.539 20.2372 108.292 20.4658C108.046 20.6944 108.047 21.7631 108.047 21.7631C108.047 21.7631 106.589 23.6388 106.484 24.2182C106.378 24.7965 106.449 26.4973 106.8 27.4098C107.151 28.3212 107.275 29.6362 107.275 29.6362C107.275 29.6362 106.678 29.4261 106.678 29.8286C106.678 30.231 106.625 31.337 106.731 32.0032C106.836 32.6695 106.906 34.8783 106.923 35.2818C106.941 35.6852 107.134 36.0184 107.433 36.158C107.732 36.2987 108.101 36.2636 108.101 36.2636C108.206 37.1574 108.715 38.9462 108.715 38.9462C108.434 38.9462 107.38 39.1914 107.064 39.9632C106.748 40.7349 105.659 44.7325 105.027 45.258C104.395 45.7836 102.322 46.3102 100.46 47.3272C98.5988 48.3441 92.4866 51.3951 91.1519 51.8513C89.8171 52.3076 88.7279 53.7446 87.6035 55.4278C86.4791 57.111 82.7557 65.9834 82.1235 66.7542C81.4914 67.526 79.1027 71.4883 77.943 74.3634C76.7834 77.2384 74.9222 82.254 74.9927 83.271C75.0631 84.2879 75.0279 85.3753 75.9057 86.953C76.7834 88.5307 80.8934 92.6338 81.9473 93.7563C83.0013 94.8788 85.846 96.8775 86.76 97.5086C87.673 98.1397 88.4461 99.0863 90.0264 99.9285C91.6068 100.771 96.3137 103.365 96.3137 103.365C96.3137 103.365 95.6463 104.733 95.5935 105.47C95.5406 106.206 94.7852 107.96 94.6805 108.644C94.5758 109.327 94.4173 110.73 94.3644 111.344C94.3116 111.957 93.5385 118.147 93.7675 118.34C93.9955 118.532 94.6629 118.673 94.6629 118.673C94.6629 118.673 94.8909 119.567 94.8556 119.83C94.8204 120.093 94.4867 120.62 94.2763 121.408C94.066 122.197 94.2411 124.862 94.1883 125.809C94.1354 126.756 94.4691 128.509 94.8733 129.438C95.2774 130.367 94.7676 131.051 94.5924 132.419C94.4173 133.787 95.1365 135.821 95.2598 136.925C95.3831 138.03 95.2774 141.501 95.295 143.484C95.3127 145.465 96.1904 147.446 96.2609 147.675C96.3314 147.902 96.2785 149.13 96.2785 149.13C96.2785 149.13 95.1365 150.603 95.0318 151.234C94.9261 151.866 94.6629 154.654 94.5748 155.004C94.4867 155.355 94.6629 156.18 94.8556 156.529C95.0484 156.88 95.0318 157.687 95.0318 158.125C95.0318 158.562 94.523 159.545 94.1188 160.632C93.7147 161.72 92.9074 165.069 92.7136 165.91C92.5208 166.752 92.6079 173.554 92.6607 177.359C92.7136 181.164 93.2577 186.214 93.1696 187.301C93.0815 188.389 93.6266 192.929 93.7489 194.367C93.8722 195.806 94.3282 198.19 94.1883 198.488C94.0473 198.786 93.9427 199.611 93.9427 199.611C93.609 199.821 93.0991 201.014 93.1343 201.294C93.1696 201.574 94.3986 202.924 94.61 203.065C94.8204 203.206 95.436 203.293 95.436 203.293C95.436 203.293 95.3831 204.169 95.3831 204.678C95.3831 205.187 95.2598 207.852 95.2598 207.852C95.2598 207.852 95.0142 208.255 94.7676 208.781C94.522 209.307 94.4867 211.674 94.4867 211.674C94.4867 211.674 94.4163 211.901 94.2763 212.445C94.1354 212.989 94.1178 214.971 94.1178 214.971C94.1178 214.971 93.9592 215.496 93.9427 216.005C93.925 216.514 94.3292 216.97 95.6816 217.32C97.034 217.671 98.72 217.513 99.8621 217.496C101.004 217.479 105.148 217.286 105.588 217.181C106.027 217.075 106.08 216.812 106.009 216.426C105.939 216.041 105.746 215.672 105.746 215.672C105.817 215.269 105.781 214.567 105.676 213.481C105.57 212.394 105.079 212.061 104.867 211.71C104.657 211.359 104.639 210.57 104.481 210.15C104.322 209.729 104.288 208.782 104.288 207.835C104.288 206.889 104.2 204.557 104.235 203.978C104.271 203.399 104.394 202.452 104.306 201.873C104.218 201.295 104.235 199.612 104.235 199.612C104.235 199.612 104.604 199.384 104.956 199.384C105.307 199.384 106.185 199.279 106.22 198.823C106.255 198.367 105.095 196.264 104.991 195.947C104.885 195.632 103.797 196.263 103.797 195.912C103.797 195.561 103.305 194.37 103.305 193.984C103.305 193.598 105.483 191.704 105.483 190.758C105.483 189.811 105.448 179.782 105.553 178.098C105.659 176.415 105.87 173.82 106.15 172.137C106.431 170.454 105.413 166.315 105.413 166.315C105.413 166.315 105.764 164.387 106.115 163.721C106.466 163.054 107.099 162.914 107.766 161.687C108.433 160.46 108.258 158.285 108.328 157.233C108.398 156.181 109.557 152.569 109.873 151.061C110.189 149.552 112.262 139.629 112.332 138.927C112.402 138.226 114.931 133.036 114.931 133.036C115.141 133.596 116.336 137.945 116.582 138.716C116.828 139.488 116.582 141.732 116.511 143.345C116.441 144.958 118.162 151.691 118.408 152.884C118.653 154.075 119.111 156.356 119.111 157.373C119.111 158.39 119.391 158.775 120.129 160.388C120.867 162.001 119.778 162.177 119.637 162.948C119.496 163.72 119.672 164.911 119.672 165.542C119.672 166.174 120.269 167.331 120.269 167.331L120.059 167.927C119.848 168.523 119.918 170.978 120.375 173.398C120.832 175.818 122.834 184.549 122.834 184.549C122.834 184.549 122.675 187.706 122.343 189.125C122.009 190.546 122.115 192.667 122.325 193.299C122.536 193.93 122.712 194.982 122.712 194.982C122.712 194.982 122.36 195.262 122.36 195.315C122.36 195.368 122.588 196.946 122.448 197.506C122.308 198.067 122.641 198.296 122.957 198.523C123.273 198.751 123.783 199.172 123.783 199.172C123.783 199.172 123.748 201.224 123.66 202.223C123.572 203.222 122.869 205.011 122.834 206.326C122.799 207.641 123.36 209.026 123.36 209.026C123.36 209.026 123.325 209.149 123.29 209.289C123.255 209.43 123.202 211.253 123.219 211.498C123.237 211.743 123.378 211.866 123.869 211.954C124.361 212.042 128.752 212.41 129.016 212.41C129.279 212.41 131.861 211.867 131.861 211.867C132.036 211.937 132.67 212.656 133.424 213.076C134.18 213.498 136.937 213.743 138.728 213.743C140.519 213.743 146.42 213.2 146.772 213.147C147.123 213.094 147.176 213.147 147.123 212.655L147.124 212.65ZM93.9592 88.6507C93.696 88.3352 93.2038 87.5282 92.3789 86.8092C91.554 86.0902 89.7093 84.5994 89.7093 84.5994C89.7093 84.5994 90.043 83.8803 90.0606 83.4417C90.0782 83.003 90.3062 82.2499 90.6399 81.9167C90.9736 81.5836 91.2545 80.8646 91.3954 80.5315C91.5363 80.1983 92.5022 78.7251 92.5022 78.7251C92.5022 78.7251 93.1872 81.4605 93.2753 81.9685C93.3634 82.4764 93.9074 84.7038 93.9427 85.5977C93.9779 86.4916 94.7157 89.1401 94.7157 89.1401C94.7157 89.1401 94.2235 88.9652 93.9603 88.6486L93.9592 88.6507Z" fill="#080808"/>
<path fill-rule="evenodd" clip-rule="evenodd" d="M377.193 57.1492C372.81 55.406 369.326 57.141 364.955 60.4495C368.49 55.4308 371.983 53.7259 377.419 55.2694C371.4 52.9344 366.99 54.2659 361.118 57.0975C365.705 52.3054 370.211 50.7091 377.634 53.1475C371.318 49.6497 363.425 51.1095 356.862 54.3363C362.269 48.3989 369.976 45.9977 378.152 50.0614C370.964 44.1313 361.921 44.6124 354.008 47.8268C360.822 41.247 369.239 40.2569 377.917 45.7825C369.439 39.2203 358.54 38.6761 349.093 41.2894C356.145 36.1724 364.676 35.1979 372.921 38.7402C365.831 32.4149 356.497 29.3992 347.628 29.5181C358.691 25.6603 369.887 29.3226 377.901 38.1598C369.791 27.419 353.43 18.8166 341.633 19.6536C350.771 16.4785 361.81 17.7831 371.852 25.8568C363.703 18.0231 352.441 10.6953 343.537 8.92724C352.051 7.19642 362.662 10.6519 371.762 18.6666C366.861 11.5674 360.904 5.19764 355.172 2.08982C365.617 2.70745 375.019 7.36298 380.707 20.0633C379.631 12.541 373.433 5.26075 367.831 0C376.497 2.23052 381.722 8.02303 383.516 14.5077C385.369 8.02303 390.535 2.23052 399.2 0C394.038 4.94831 387.7 12.2161 386.085 20.0633C391.773 7.36298 401.416 2.70745 411.861 2.08982C406.13 5.19661 400.17 11.5674 395.271 18.6666C404.371 10.6519 414.983 7.19538 423.498 8.92724C414.593 10.6953 403.33 18.0231 395.182 25.8568C405.223 17.7831 416.262 16.4785 425.4 19.6536C413.603 18.8166 397.241 27.418 389.133 38.1598C397.146 29.3236 408.344 25.6603 419.405 29.5181C410.537 29.3981 401.203 32.4149 394.113 38.7402C402.358 35.1979 410.889 36.1724 417.942 41.2894C408.494 38.6761 397.595 39.2192 389.117 45.7825C397.795 40.2569 406.212 41.247 413.026 47.8268C405.113 44.6134 396.07 44.1313 388.882 50.0614C397.057 45.9977 404.764 48.3989 410.173 54.3363C403.609 51.1105 395.715 49.6507 389.4 53.1475C396.822 50.7091 401.329 52.3044 405.915 57.0975C400.044 54.2659 395.633 52.9344 389.613 55.2694C395.051 53.7259 398.542 55.4308 402.077 60.4495C397.665 57.1068 394.154 55.3719 389.709 57.201C387.898 56.4395 385.833 55.9936 383.438 56.0143C381.125 56.0329 379.051 56.4488 377.195 57.1492H377.193ZM399.195 66.6931C399.24 66.7541 399.281 66.8162 399.326 66.8772C397.609 67.5218 396.279 68.5718 395.145 70.1071C393.657 68.0856 391.844 66.8865 389.23 66.3879C390.44 63.8749 392.413 62.3758 395.16 61.8234C396.693 63.3369 397.997 65.0398 399.195 66.6931ZM399.856 67.6325C401.145 69.5071 402.276 71.451 403.263 73.4508C402.43 74.0571 401.707 74.8154 401.071 75.7331C399.748 73.6909 397.767 72.3728 395.149 71.8742C396.175 69.7409 397.732 68.3453 399.856 67.6325ZM403.632 74.2112C404.489 76.0279 405.23 77.887 405.861 79.7834C404.586 78.5305 403.056 77.7391 401.061 77.3584C401.707 76.029 402.562 74.983 403.633 74.2112H403.632ZM406.571 82.0967C406.644 82.3574 406.717 82.6191 406.787 82.8819C404.287 83.425 402.512 84.5941 401.059 86.5629C399.57 84.5393 397.754 83.3402 395.137 82.8416C396.348 80.3214 398.3 78.8326 401.052 78.2802C403.383 78.7488 405.351 80.1093 406.571 82.0967ZM407.017 83.7737C407.574 86.0042 407.992 88.274 408.284 90.5677C407.811 91.0012 407.373 91.4946 406.96 92.0523C405.472 90.0307 403.658 88.8306 401.042 88.3309C402.264 85.8159 404.224 84.3199 406.98 83.7654L407.016 83.7737H407.017ZM408.414 91.6571C408.511 92.5261 408.586 93.3972 408.646 94.2704C408.125 94.081 407.569 93.93 406.969 93.8162C407.372 92.9865 407.852 92.2675 408.414 91.6571ZM408.71 95.2666C408.814 97.1899 408.841 99.1225 408.791 101.059C408.117 101.589 407.513 102.226 406.955 102.98C405.471 100.962 403.674 99.7546 401.068 99.2528C402.29 96.7616 404.225 95.2915 406.967 94.7421C407.598 94.8683 408.176 95.0432 408.71 95.2666ZM408.752 102.235C408.712 103.215 408.653 104.196 408.577 105.177C408.074 104.999 407.538 104.854 406.963 104.745C407.446 103.75 408.04 102.915 408.752 102.235ZM408.497 106.112C408.284 108.483 407.969 110.847 407.561 113.189C407.348 113.429 407.143 113.685 406.943 113.956C405.455 111.933 403.64 110.733 401.024 110.235C402.245 107.719 404.206 106.223 406.961 105.67C407.513 105.78 408.023 105.926 408.497 106.112ZM407.172 115.289C407.142 115.441 407.112 115.594 407.081 115.745L406.95 115.719C407.02 115.572 407.095 115.428 407.172 115.289ZM406.892 116.656C406.426 118.847 405.881 121.012 405.273 123.137C404.111 122.165 402.736 121.533 401.014 121.204C402.226 118.712 404.168 117.218 406.892 116.656ZM404.992 124.103C404.618 125.364 404.221 126.609 403.805 127.84C402.729 128.47 401.822 129.317 401.014 130.412C399.526 128.388 397.71 127.188 395.092 126.689C396.304 124.169 398.256 122.68 401.008 122.128C402.527 122.433 403.89 123.117 404.993 124.104L404.992 124.103ZM403.329 129.209C403.179 129.63 403.029 130.049 402.874 130.464C402.622 131.145 402.325 131.793 401.99 132.412C401.673 132.321 401.342 132.243 400.998 132.178C401.595 130.948 402.37 129.961 403.329 129.209ZM401.518 133.223C400.284 135.195 398.63 136.816 396.699 138.096C396.195 137.916 395.656 137.773 395.079 137.663C396.289 135.143 398.242 133.655 400.993 133.103C401.17 133.138 401.346 133.178 401.518 133.223ZM395.675 138.729C394.181 139.586 392.549 140.257 390.836 140.742C391.947 139.643 393.358 138.933 395.078 138.588C395.28 138.629 395.479 138.676 395.675 138.73V138.729ZM389.367 141.108C389.248 141.134 389.127 141.159 389.008 141.184C387.548 139.281 385.769 138.145 383.239 137.662C384.35 135.129 386.463 133.641 389.154 133.102C391.761 133.625 393.929 135.27 395.078 137.662C392.596 138.162 390.82 139.258 389.367 141.108ZM388.006 141.366C384.908 141.861 381.661 141.796 378.567 141.182C379.738 139.823 381.341 138.968 383.237 138.587C385.135 138.968 386.798 139.941 388.005 141.366H388.006ZM377.632 140.976C377.381 140.917 377.132 140.853 376.884 140.785C375.483 139.121 373.781 138.109 371.431 137.661C371.071 137.733 370.725 137.818 370.391 137.916C368.447 136.636 366.766 135.03 365.488 133.105L365.514 133.101C368.108 133.621 370.304 135.264 371.431 137.661C372.618 135.137 374.609 133.65 377.346 133.101C379.897 133.613 382.18 135.257 383.236 137.661C380.813 138.147 379.063 139.205 377.63 140.975L377.632 140.976ZM374.986 140.195C373.772 139.757 372.606 139.227 371.508 138.601C372.774 138.868 373.972 139.415 374.986 140.195ZM364.99 132.299C364.558 131.553 364.18 130.765 363.872 129.931L363.82 129.788C364.519 130.461 365.1 131.262 365.528 132.172C366.714 129.647 368.706 128.161 371.444 127.611C373.994 128.123 376.289 129.772 377.346 132.176C374.747 132.698 372.922 133.877 371.431 135.889C369.943 133.87 368.13 132.673 365.514 132.176C365.337 132.211 365.162 132.252 364.99 132.299ZM363.226 128.126C362.749 126.756 362.303 125.367 361.887 123.963C362.802 123.087 363.87 122.459 365.53 122.126C368.124 122.647 370.318 124.291 371.446 126.687C372.634 124.163 374.624 122.674 377.362 122.126C379.914 122.638 382.196 124.283 383.252 126.687C380.66 127.209 378.838 128.381 377.349 130.383C375.864 128.376 374.052 127.184 371.445 126.687C368.845 127.21 367.02 128.388 365.53 130.4C364.846 129.473 364.093 128.719 363.226 128.126ZM361.64 123.115C361.041 121.02 360.513 118.892 360.061 116.742C362.458 117.351 364.458 118.949 365.522 121.202C363.99 121.512 362.725 122.195 361.64 123.115ZM359.861 115.765L359.81 115.51C361.491 113.298 362.574 111.753 365.542 111.156C368.137 111.678 370.332 113.322 371.458 115.718C372.645 113.194 374.637 111.707 377.375 111.156C379.926 111.669 382.209 113.314 383.264 115.718C380.673 116.239 378.554 117.559 377.361 119.414C376.173 117.481 374.066 116.214 371.458 115.718C368.859 116.24 366.885 117.344 365.542 119.432C364.279 117.475 362.36 116.288 359.86 115.765H359.861ZM359.572 114.25C359.076 111.517 358.71 108.754 358.482 105.984C358.834 105.859 359.216 105.753 359.638 105.668C362.233 106.189 364.427 107.831 365.554 110.228C366.74 107.704 368.732 106.217 371.471 105.668C374.02 106.179 376.313 107.829 377.372 110.232C374.772 110.755 372.948 111.932 371.458 113.946C369.97 111.927 368.156 110.729 365.541 110.231C362.95 110.753 361.126 112.337 359.638 114.34L359.571 114.249L359.572 114.25ZM358.413 105.075C358.365 104.4 358.325 103.723 358.295 103.047C358.732 103.576 359.165 104.149 359.633 104.744C359.208 104.829 358.802 104.941 358.412 105.075H358.413ZM358.246 101.692C358.184 99.4887 358.216 97.2861 358.348 95.0939C358.739 94.9532 359.168 94.8352 359.645 94.7401C362.225 95.2563 364.409 96.8857 365.541 99.2601C362.956 99.7846 361.138 101.366 359.653 103.365C359.215 102.776 358.75 102.21 358.246 101.692ZM358.413 94.1411C358.455 93.5762 358.503 93.0113 358.558 92.4485C358.91 92.8778 359.263 93.3372 359.64 93.8152C359.21 93.9031 358.802 94.0107 358.413 94.1411ZM358.688 91.2443C358.978 88.7468 359.406 86.2732 359.982 83.8358C362.435 84.4255 364.495 86.0301 365.575 88.3258C366.762 85.8014 368.754 84.3148 371.492 83.7644C374.042 84.2775 376.335 85.9277 377.392 88.3299C374.794 88.8524 372.968 90.0307 371.479 92.043C369.991 90.0235 368.176 88.8275 365.562 88.3299C362.971 88.8513 361.148 90.4352 359.659 92.4371C359.351 92.0202 359.029 91.6208 358.688 91.2443ZM360.198 82.9554C360.299 82.5539 360.404 82.1525 360.514 81.7522C361.86 80.01 363.019 78.7933 365.575 78.2791C368.169 78.8006 370.364 80.4424 371.492 82.8405C372.679 80.3152 374.67 78.8275 377.408 78.2791C379.958 78.7912 382.242 80.4352 383.296 82.8405C380.704 83.3609 378.882 84.5341 377.394 86.536C375.908 84.5289 374.098 83.3361 371.49 82.8405C368.89 83.363 367.065 84.5403 365.575 86.5536C364.192 84.6769 362.525 83.5089 360.197 82.9543L360.198 82.9554ZM361.078 79.8258C361.657 77.9646 362.334 76.1293 363.107 74.3292C364.143 75.1113 364.992 76.1366 365.568 77.3563C363.739 77.7256 362.293 78.6247 361.078 79.8258ZM363.51 73.4157C364.409 71.42 365.434 69.4698 366.59 67.5745C368.741 68.278 370.525 69.7906 371.504 71.8721C372.691 69.3478 374.682 67.8611 377.42 67.3107C379.971 67.8228 382.254 69.4678 383.31 71.8721C380.719 72.3925 378.6 73.7136 377.407 75.5686C376.218 73.6339 374.11 72.3687 371.503 71.8721C368.904 72.3945 366.931 73.4984 365.588 75.5862C365.022 74.712 364.327 73.9919 363.509 73.4157H363.51ZM367.087 66.7789L367.141 66.692C368.198 65.0357 369.481 63.3897 371.023 61.9341C371.185 61.8927 371.35 61.8555 371.517 61.8234C374.068 62.3334 376.361 63.9836 377.418 66.3868C374.82 66.9093 372.995 68.0877 371.505 70.1009C370.319 68.4932 368.927 67.4059 367.088 66.7789H367.087ZM372.063 61.0154C374.206 59.2463 376.793 57.86 379.899 57.2351C381.392 58.0534 382.626 59.3094 383.323 60.8985C380.731 61.4209 378.909 62.5921 377.42 64.595C376.041 62.7317 374.381 61.5689 372.063 61.0154ZM381.274 57.0137C381.971 56.9299 382.69 56.8813 383.435 56.8761C384.141 56.8699 384.818 56.9051 385.469 56.9765C384.674 57.5455 383.974 58.25 383.337 59.1087C382.717 58.2717 382.04 57.5765 381.274 57.0137ZM386.794 57.1782C389.882 57.7845 392.328 59.2494 394.375 61.0837C392.186 61.6765 390.58 62.8114 389.245 64.6188C387.756 62.5962 385.941 61.3971 383.325 60.8974C384.071 59.1956 385.271 57.9655 386.794 57.1772V57.1782ZM401.024 99.2539C399.859 96.8857 397.722 95.2625 395.124 94.7421C392.385 95.2915 390.433 96.7657 389.22 99.2642C391.827 99.7649 393.627 100.962 395.112 102.978C396.599 100.968 398.436 99.7804 401.024 99.2539ZM389.185 99.2632C388.032 96.8888 385.878 95.2615 383.283 94.7411C380.608 95.276 378.527 96.7606 377.409 99.2632C380.004 99.7629 381.808 100.953 383.289 102.954C384.774 100.957 386.601 99.7856 389.184 99.2632H389.185ZM377.363 99.2632C376.297 96.8857 374.01 95.2491 371.477 94.7411C368.753 95.2873 366.768 96.7626 365.579 99.2632C368.181 99.7639 369.988 100.961 371.471 102.972C372.957 100.965 374.777 99.7877 377.363 99.2632ZM400.997 121.203C399.837 118.819 397.711 117.167 395.104 116.644C392.353 117.195 390.381 118.686 389.169 121.202C391.784 121.702 393.598 122.9 395.086 124.921C396.576 122.908 398.4 121.728 400.997 121.203ZM389.163 121.202C388.012 118.812 385.868 117.166 383.263 116.644C380.575 117.184 378.478 118.675 377.365 121.202C379.971 121.7 381.779 122.892 383.265 124.898C384.752 122.896 386.574 121.724 389.164 121.202H389.163ZM377.356 121.202C376.298 118.803 374.005 117.155 371.457 116.644C368.725 117.192 366.723 118.688 365.536 121.203C368.146 121.702 369.958 122.899 371.445 124.915C372.936 122.903 374.759 121.725 377.357 121.201L377.356 121.202ZM377.35 132.177C379.955 132.674 381.764 133.865 383.251 135.872C384.737 133.871 386.558 132.699 389.147 132.177C387.996 129.79 385.854 128.135 383.251 127.612C380.559 128.152 378.462 129.645 377.35 132.177ZM389.159 132.177C391.772 132.676 393.586 133.875 395.074 135.896C396.564 133.882 398.389 132.701 400.99 132.177C399.829 129.788 397.702 128.136 395.091 127.612C392.342 128.164 390.37 129.663 389.159 132.177ZM383.251 126.688C385.867 127.187 387.682 128.386 389.17 130.408C390.661 128.391 392.488 127.212 395.089 126.688C393.939 124.295 391.772 122.649 389.166 122.127C386.474 122.668 384.361 124.156 383.251 126.688ZM377.376 110.234C379.982 110.731 381.791 111.923 383.277 113.93C384.764 111.929 386.585 110.756 389.174 110.235C388.024 107.847 385.881 106.192 383.277 105.67C380.586 106.209 378.489 107.703 377.376 110.234ZM389.184 110.235C391.798 110.733 393.613 111.932 395.1 113.954C396.59 111.938 398.416 110.757 401.016 110.235C399.856 107.846 397.728 106.193 395.117 105.67C392.368 106.222 390.397 107.721 389.184 110.235ZM359.661 104.749C362.263 105.25 364.072 106.446 365.554 108.458C367.045 106.446 368.871 105.268 371.47 104.743C374.077 105.241 375.888 106.433 377.374 108.441C378.862 106.438 380.685 105.266 383.276 104.743C382.221 102.34 379.938 100.695 377.387 100.184C374.65 100.733 372.658 102.22 371.471 104.743C370.344 102.347 368.149 100.704 365.556 100.184C362.493 100.797 361.438 102.422 359.662 104.748L359.661 104.749ZM383.277 104.745C385.894 105.244 387.709 106.443 389.197 108.466C390.687 106.448 392.514 105.269 395.115 104.745C393.966 102.351 391.799 100.708 389.193 100.185C386.5 100.724 384.388 102.213 383.277 104.745ZM395.118 104.745C397.735 105.244 399.551 106.444 401.04 108.468C402.53 106.449 404.357 105.269 406.96 104.745C405.801 102.353 403.645 100.709 401.034 100.185C398.281 100.736 396.329 102.225 395.118 104.745ZM383.264 115.72C385.881 116.219 387.787 117.419 389.183 119.44C390.601 117.349 392.502 116.243 395.103 115.72C393.954 113.327 391.786 111.683 389.179 111.159C386.487 111.7 384.375 113.187 383.264 115.72ZM395.104 115.72C397.723 116.219 399.703 117.538 401.025 119.579C402.462 117.506 404.345 116.243 406.947 115.72C405.787 113.328 403.632 111.683 401.018 111.159C398.266 111.711 396.314 113.201 395.103 115.72H395.104ZM401.044 77.3584C399.883 74.9737 397.758 73.3225 395.149 72.798C392.399 73.3505 390.428 74.8413 389.216 77.3573C391.83 77.857 393.645 79.0551 395.132 81.0766C396.623 79.0613 398.446 77.8819 401.044 77.3584ZM389.209 77.3563C388.059 74.9675 385.915 73.3215 383.31 72.798C380.621 73.3391 378.525 74.8299 377.412 77.3573C380.016 77.855 381.826 79.0468 383.312 81.0528C384.799 79.0509 386.62 77.8788 389.209 77.3563ZM377.402 77.3573C376.345 74.9582 374.05 73.3101 371.504 72.798C368.771 73.3474 366.77 74.8423 365.582 77.3584C368.193 77.857 370.004 79.054 371.493 81.0704C372.981 79.0582 374.806 77.8808 377.403 77.3563L377.402 77.3573ZM377.395 88.332C380.002 88.8286 381.811 90.0204 383.296 92.0274C384.783 90.0266 386.605 88.8544 389.194 88.332C388.042 85.9452 385.9 84.2889 383.296 83.7665C380.606 84.3075 378.507 85.8004 377.395 88.332ZM389.204 88.332C391.818 88.8317 393.632 90.0307 395.119 92.0512C396.61 90.0359 398.436 88.8555 401.036 88.332C399.876 85.9432 397.747 84.291 395.137 83.7665C392.389 84.3189 390.417 85.817 389.204 88.332ZM383.297 82.8436C385.914 83.3423 387.728 84.5413 389.217 86.5629C390.708 84.5455 392.534 83.3661 395.136 82.8436C393.986 80.4496 391.818 78.8047 389.212 78.2822C386.521 78.8233 384.408 80.31 383.297 82.8436ZM359.667 93.8224C362.269 94.3231 364.078 95.5191 365.561 97.5313C367.051 95.517 368.877 94.3397 371.477 93.8172C374.083 94.3128 375.894 95.5056 377.381 97.5127C378.868 95.5108 380.691 94.3386 383.282 93.8172C382.227 91.4119 379.944 89.768 377.392 89.2558C374.655 89.8062 372.663 91.2939 371.477 93.8172C370.348 91.4201 368.154 89.7773 365.56 89.2558C362.498 89.8714 361.442 91.4957 359.667 93.8224ZM383.284 93.8183C385.9 94.3169 387.716 95.516 389.203 97.5375C390.694 95.5211 392.521 94.3418 395.123 93.8183C393.973 91.4243 391.806 89.7804 389.199 89.2569C386.508 89.798 384.396 91.2857 383.284 93.8183ZM395.126 93.8183C397.742 94.3169 399.558 95.517 401.047 97.5406C402.538 95.5211 404.365 94.3418 406.968 93.8183C405.808 91.4264 403.652 89.7814 401.039 89.2569C398.287 89.8093 396.335 91.2991 395.125 93.8183H395.126ZM377.422 66.3889C380.028 66.8865 381.838 68.0784 383.323 70.0854C384.809 68.0835 386.631 66.9103 389.22 66.3899C388.069 64.0011 385.926 62.3469 383.322 61.8255C380.633 62.3645 378.535 63.8584 377.422 66.3889ZM383.311 71.8742C385.927 72.3728 387.834 73.5719 389.231 75.5944C390.648 73.5036 392.547 72.3976 395.149 71.8742C394 69.4802 391.832 67.8352 389.226 67.3128C386.534 67.8539 384.422 69.3405 383.311 71.8742Z" fill="black"/>
<path fill-rule="evenodd" clip-rule="evenodd" d="M530.591 90.1218C534.023 89.4783 537.385 88.9642 540.657 88.5679C541.39 92.9948 541.746 97.9452 541.639 103.23C541.508 109.685 540.702 115.897 539.388 121.466C543.501 115.726 546.47 107.58 547.122 98.9497C547.425 94.9439 547.197 91.2329 546.532 87.9741C552.431 87.5044 557.965 87.4506 563 87.7796C563.413 91.3167 563.598 95.1291 563.52 99.1318C563.388 105.587 562.583 111.799 561.266 117.367C565.379 111.628 568.348 103.48 569 94.8529C569.171 92.5944 569.174 90.4301 569.025 88.3889C583.577 90.4229 592.607 96.1678 591.966 104.643C590.862 119.216 561.589 136.35 526.596 142.905C491.602 149.46 464.117 142.958 465.222 128.385C465.944 118.834 478.766 108.181 497.37 100.129C497.779 103.651 497.961 107.444 497.883 111.426C497.751 117.881 496.946 124.093 495.632 129.662C499.745 123.922 502.714 115.776 503.366 107.147C503.619 103.799 503.502 100.66 503.067 97.8159C508.019 95.9299 513.293 94.2332 518.794 92.7807C519.517 97.1796 519.865 102.089 519.759 107.328C519.63 113.784 518.826 119.996 517.508 125.565C521.621 119.825 524.59 111.677 525.242 103.049C525.566 98.7553 525.284 94.8043 524.505 91.383C526.509 90.9288 528.539 90.5077 530.59 90.1229L530.591 90.1218Z" fill="black"/>
<path fill-rule="evenodd" clip-rule="evenodd" d="M450.17 81.6726L448.527 135.435C447.59 166.079 401.085 164.658 402.021 134.017L404.125 65.1879C404.31 59.1171 415.24 58.0794 427.481 62.4949C433.281 64.5879 450.42 73.453 450.169 81.6716L450.17 81.6726ZM430.312 79.2093C430.333 78.4975 429.424 77.5964 428.93 77.1764C427.863 76.265 426.496 75.5439 425.179 75.069C424.15 74.6976 422.92 74.3934 421.817 74.4296C421.396 74.4441 420.558 74.5393 420.328 74.9655C420.288 75.0411 420.27 75.1249 420.268 75.2097C420.246 75.9204 421.155 76.8226 421.649 77.2426C422.716 78.1541 424.083 78.8752 425.4 79.35C426.429 79.7214 427.663 80.0266 428.764 79.9894C429.183 79.9749 430.021 79.8797 430.251 79.4535C430.291 79.378 430.308 79.2952 430.312 79.2093ZM418.297 69.5548C418.318 68.844 417.409 67.9419 416.915 67.5219C415.848 66.6115 414.481 65.8904 413.164 65.4155C412.135 65.0441 410.903 64.7399 409.8 64.7761C409.381 64.7896 408.543 64.8858 408.315 65.312C408.273 65.3876 408.256 65.4703 408.253 65.5562C408.231 66.268 409.142 67.1701 409.634 67.5891C410.701 68.5006 412.068 69.2217 413.385 69.6955C414.415 70.0679 415.648 70.3731 416.749 70.3359C417.168 70.3214 418.006 70.2262 418.236 69.8C418.276 69.7234 418.294 69.6407 418.297 69.5548ZM432.71 70.9949C432.731 70.2842 431.822 69.382 431.328 68.962C430.259 68.0516 428.894 67.3305 427.577 66.8556C426.548 66.4832 425.315 66.179 424.213 66.2152C423.794 66.2297 422.956 66.3259 422.726 66.7522C422.686 66.8266 422.668 66.9104 422.666 66.9963C422.644 67.7071 423.553 68.6092 424.047 69.0292C425.114 69.9396 426.481 70.6607 427.798 71.1356C428.828 71.507 430.059 71.8122 431.16 71.775C431.581 71.7615 432.419 71.6653 432.647 71.2391C432.689 71.1635 432.707 71.0808 432.71 70.9949ZM444.72 80.7922C444.742 80.0804 443.831 79.1783 443.339 78.7593C442.272 77.8478 440.905 77.1268 439.588 76.6519C438.558 76.2805 437.325 75.9753 436.224 76.0125C435.805 76.026 434.967 76.1222 434.737 76.5484C434.697 76.6239 434.679 76.7067 434.676 76.7926C434.655 77.5033 435.564 78.4055 436.056 78.8255C437.125 79.737 438.492 80.458 439.809 80.9329C440.838 81.3043 442.068 81.6095 443.173 81.5723C443.59 81.5578 444.43 81.4626 444.658 81.0364C444.7 80.9598 444.718 80.8781 444.72 80.7922ZM447.84 81.7388C447.929 78.809 444.18 75.0918 442.15 73.363C437.745 69.6127 432.115 66.6404 426.691 64.681C422.446 63.1488 417.372 61.8928 412.83 62.0459C411.104 62.1039 407.646 62.498 406.703 64.2516C406.533 64.5661 406.461 64.9055 406.449 65.2582C406.36 68.1892 410.109 71.9074 412.137 73.6351C416.544 77.3864 422.172 80.3587 427.598 82.3182C431.843 83.8504 436.915 85.1063 441.459 84.9532C443.186 84.8953 446.643 84.5001 447.588 82.7465C447.756 82.433 447.828 82.0937 447.84 81.7388Z" fill="black"/>
<path fill-rule="evenodd" clip-rule="evenodd" d="M475.797 41.935C477.226 55.2447 480.686 64.9272 482.173 75.7445C483.813 87.6782 485.045 114.631 484.289 134.177H446.09C445.335 114.631 446.567 87.6782 448.209 75.7445C449.695 64.9272 453.153 55.2447 454.582 41.935H475.797ZM477.292 33.3564H453.086V40.4794H477.292V33.3564ZM484.217 135.89C483.945 141.833 483.475 146.997 482.761 150.697H447.621C446.905 146.997 446.436 141.833 446.163 135.89H484.217ZM474.01 43.94H456.37C455.217 52.9759 452.796 61.509 451.143 70.2779H479.238C477.585 61.509 475.164 52.9759 474.01 43.94ZM448.332 139.084C448.52 142.299 448.799 145.58 449.305 148.694H481.076C481.576 145.58 481.861 142.299 482.048 139.084H448.332Z" fill="black"/>
<path fill-rule="evenodd" clip-rule="evenodd" d="M523.123 41.1114L515.251 57.1037C518.908 63.4404 520.215 77.2942 515.608 86.7077C509.938 98.2969 500.407 100.207 491.846 96.0322C483.285 91.8578 478.934 83.1788 484.605 71.5897C489.215 62.17 500.978 54.6766 508.23 53.671L516.099 37.687C508.346 32.2908 515.721 20.6364 521.557 28.8602C522.997 30.891 523.901 31.22 526.716 31.0369C536.977 30.3706 532.351 44.0279 523.123 41.1114ZM488.35 90.2242C484.752 86.4367 483.68 80.8304 487.055 73.9298C491.45 64.9488 503.988 58.161 508.814 59.7687C502.41 62.8931 494.709 69.4502 491.022 76.987C488.543 82.0543 487.792 86.5008 488.349 90.2242H488.35Z" fill="black"/>
<path fill-rule="evenodd" clip-rule="evenodd" d="M544.869 50.5135C545.499 50.7287 546.042 51.0556 546.448 51.4601C546.024 51.7736 545.646 52.146 545.329 52.5764C545.216 51.848 545.067 51.1601 544.869 50.5135ZM538.099 44.5337C543.914 46.6318 544.949 50.3366 545.169 55.8446C545.214 56.9578 540.921 56.8698 541.015 55.8446C541.436 51.1921 538.65 49.0258 534.758 46.8739C535.839 47.1511 538.574 45.4213 538.18 44.6402C538.16 44.5989 538.134 44.5637 538.099 44.5337ZM535.507 46.5604C535.911 46.4404 536.346 46.2428 536.568 46.1197C536.745 46.0204 538.261 45.0448 537.926 44.7085C537.621 44.4013 536.356 45.1555 536.112 45.3086C535.759 45.5279 535.356 45.7938 535.064 46.0886C534.489 46.667 534.726 46.7932 535.507 46.5604ZM550.138 50.7224C548.081 50.7224 546.298 51.7487 545.421 53.2468C545.483 53.7578 545.53 54.2886 545.565 54.84C545.996 54.6569 546.45 54.5048 546.928 54.3889C547.284 54.302 547.644 54.2389 548.003 54.1965C549.589 52.624 551.526 51.8998 553.583 51.8356C552.656 51.1425 551.453 50.7224 550.138 50.7224ZM529.749 53.8416C521.176 55.9397 516.437 66.243 518.227 74.6539C518.386 75.4009 518.598 76.1416 518.87 76.8555C517.049 68.5562 521.693 57.3478 529.749 53.8416ZM524.626 85.0296C516.68 75.105 523.625 57.0333 536.528 55.557C524.233 58.8469 519.589 74.5391 524.626 85.0296ZM530.942 87.0066C528.412 85.042 527.3 79.1874 528.06 73.3132C528.977 66.2243 532.547 59.0062 538.658 57.2516C528.577 62.9261 527.42 80.5675 530.942 87.0066ZM543.581 57.923C543.636 57.9199 543.689 57.9178 543.743 57.9168C539.318 59.3238 536.227 66.8854 536.671 75.794C536.857 79.5226 537.677 83.2832 539.143 86.7252C537.034 83.8574 535.563 79.5267 535.297 74.6198C534.814 65.6719 538.523 58.1961 543.581 57.923ZM536.103 50.7224C537.77 50.7224 539.258 51.3959 540.228 52.4481C540.486 53.2033 540.601 53.9968 540.608 54.811C540.198 54.6393 539.767 54.4976 539.314 54.3879C538.956 54.301 538.598 54.2379 538.237 54.1955C536.651 52.6229 534.714 51.8987 532.658 51.8346C533.584 51.1414 534.787 50.7224 536.103 50.7224ZM537.518 54.1355C536.687 53.4154 535.708 52.8681 534.561 52.5578C532.346 51.9577 529.973 52.3726 527.883 53.2271C525.504 54.1996 523.308 55.8042 521.553 57.6706C519.819 59.5162 518.379 61.7664 517.64 64.2007C516.824 66.8864 516.551 69.8318 517.031 72.6065C517.415 74.8195 518.299 76.9983 519.845 78.6484C519.219 75.253 519.505 71.6216 520.452 68.3141C521.127 65.9605 522.318 63.7445 523.802 61.8026C525.713 59.3041 528.241 57.0985 531.061 55.6821C533.043 54.6879 535.29 54.0372 537.518 54.1355ZM530.39 88.5957C521.394 88.1829 518.19 77.8342 520.881 68.4383C523.402 59.6362 533.562 52.1832 540.602 55.3004C540.596 55.469 540.584 55.6377 540.57 55.8073C540.567 55.8456 540.566 55.8828 540.568 55.9191C540.276 55.8487 539.971 55.8021 539.655 55.7804C537.574 55.6449 535.595 56.7064 534.027 57.9809C532.163 59.4945 530.574 61.5284 529.345 63.5779C528.151 65.5695 527.144 67.8289 526.602 70.0905C525.811 73.3887 525.538 77.0045 526.08 80.3637C526.556 83.307 527.718 86.3124 530.032 88.3029C530.15 88.4043 530.269 88.5016 530.389 88.5957H530.39ZM540.232 89.3034C539.469 89.6882 538.65 89.9355 537.773 90.0234C527.346 91.0569 524.696 79.9581 527.036 70.195C528.67 63.3751 535.26 54.6796 540.8 56.455C541.002 56.665 541.314 56.8088 541.652 56.905C537.028 58.1185 533.483 65.0356 533.483 73.3876C533.483 80.8603 536.322 87.1866 540.232 89.3034ZM543.103 57.1605C548.168 57.1605 552.276 64.4263 552.276 73.3876C552.276 82.349 548.169 89.6137 543.103 89.6137C538.036 89.6137 533.929 82.348 533.929 73.3876C533.929 64.4273 538.037 57.1605 543.103 57.1605ZM545.991 89.294C546.759 89.682 547.585 89.9355 548.469 90.0234C558.897 91.0569 561.546 79.9581 559.206 70.195C557.564 63.3441 550.924 54.6031 545.368 56.4777C545.174 56.6784 544.887 56.816 544.571 56.9091C549.186 58.1361 552.722 65.046 552.722 73.3866C552.722 80.8479 549.892 87.167 545.99 89.293L545.991 89.294ZM555.851 88.5957C564.848 88.1829 568.052 77.8342 565.361 68.4383C562.833 59.6166 552.634 52.1491 545.592 55.3211C545.6 55.4887 545.608 55.6563 545.615 55.828C545.615 55.8642 545.615 55.9004 545.614 55.9346C545.925 55.8549 546.249 55.8032 546.586 55.7804C548.668 55.6449 550.646 56.7064 552.214 57.9809C554.077 59.4945 555.667 61.5284 556.896 63.5779C558.091 65.5695 559.097 67.8289 559.639 70.0905C560.429 73.3887 560.702 77.0045 560.16 80.3637C559.684 83.307 558.522 86.3124 556.208 88.3029C556.09 88.4043 555.971 88.5016 555.85 88.5957H555.851ZM548.724 54.1355C549.555 53.4154 550.533 52.8681 551.68 52.5578C553.897 51.9577 556.269 52.3726 558.358 53.2271C560.738 54.1996 562.934 55.8042 564.689 57.6706C566.424 59.5162 567.863 61.7664 568.602 64.2007C569.418 66.8864 569.69 69.8318 569.211 72.6065C568.827 74.8195 567.944 76.9983 566.397 78.6484V78.6453L566.424 78.4984L566.426 78.4839C566.435 78.4332 566.444 78.3804 566.453 78.3287L566.477 78.1818L566.48 78.1621C566.539 77.7928 566.587 77.4193 566.624 77.0459V77.0376L566.639 76.8886V76.872L566.654 76.7231V76.7117C566.663 76.6072 566.672 76.5006 566.679 76.3951V76.3879L566.689 76.2306V76.2265C566.696 76.1189 566.702 76.0103 566.707 75.9027C566.711 75.7951 566.715 75.6885 566.719 75.5819V75.5685L566.723 75.4164V75.4081C566.725 75.3016 566.728 75.194 566.729 75.0864V75.0833C566.731 74.7077 566.724 74.3312 566.709 73.9556L566.707 73.9163L566.701 73.7787V73.7684L566.692 73.6163V73.6028L566.682 73.4539V73.4414C566.675 73.3369 566.667 73.2345 566.659 73.1311L566.657 73.0969L566.648 72.9769L566.643 72.9128L566.633 72.8135L566.628 72.7628L566.616 72.6355V72.619L566.6 72.4814L566.596 72.441L566.581 72.3107L566.578 72.2807L566.564 72.1606L566.558 72.1058L566.542 71.9817V71.9744L566.521 71.8244L566.518 71.7975L566.5 71.662L566.496 71.6361L566.477 71.4985L566.474 71.4768L566.451 71.332L566.431 71.2026L566.429 71.1882L566.418 71.1178L566.4 71.0123V71.0081L566.376 70.8757L566.374 70.8623L566.354 70.7516L566.347 70.7071L566.329 70.6088L566.318 70.5509L566.314 70.5271L566.288 70.3895V70.3864L566.269 70.2995C566.253 70.2157 566.236 70.1329 566.219 70.0501V70.047L566.189 69.9053L566.184 69.8867L566.153 69.7439L566.15 69.7274L566.117 69.5836L566.115 69.5691L566.08 69.4232L566.041 69.2639L566.039 69.2535L566.002 69.1056L566 69.0963L565.962 68.9463V68.939L565.92 68.788V68.7828L565.878 68.6307V68.6266L565.835 68.4745V68.4724L565.791 68.3162L565.759 68.2066L565.726 68.0969L565.693 67.9883L565.659 67.8786L565.624 67.77L565.588 67.6613L565.551 67.5517L565.514 67.443L565.477 67.3354L565.438 67.2279L565.399 67.1203L565.36 67.0127L565.319 66.9061L565.279 66.7985L565.237 66.6919L565.196 66.5864L565.153 66.4799L565.11 66.3733L565.065 66.2678L565.021 66.1623L564.976 66.0578V66.0557L564.929 65.9512L564.883 65.8467L564.835 65.7422L564.788 65.6377L564.739 65.5343L564.69 65.4298L564.64 65.3253L564.59 65.2229C564.558 65.1556 564.524 65.0904 564.491 65.0253L564.487 65.017L564.435 64.9146V64.9125L564.381 64.8111L564.328 64.7108V64.7087L564.274 64.6083V64.6063L564.218 64.508V64.5059L564.163 64.4066V64.4045L564.107 64.3052V64.3031L564.05 64.2049V64.2028L563.993 64.1055V64.1035L563.934 64.0052V64.0031L563.876 63.9059V63.9038L563.817 63.8066L563.757 63.7083V63.7062L563.697 63.609V63.6069L563.636 63.5127V63.5096L563.575 63.4155V63.4134L563.513 63.3172V63.3151L563.451 63.221V63.2189L563.388 63.1248L563.386 63.1227L563.324 63.0275V63.0255L563.261 62.9313H563.259L563.197 62.8372L563.195 62.8351L563.131 62.742V62.7399L563.066 62.6478V62.6447L563.001 62.5537V62.5516L562.936 62.4596L562.934 62.4575L562.869 62.3664L562.867 62.3644L562.802 62.2733L562.8 62.2713L562.734 62.1813L562.731 62.1782L562.666 62.0881L562.664 62.0861L562.599 61.9971L562.597 61.994L562.53 61.9061L562.528 61.904L562.461 61.8161L562.459 61.813L562.372 61.6992L562.37 61.6971L562.281 61.5833V61.5802L562.189 61.4674L562.187 61.4643L562.096 61.3526L562.094 61.3495L562.003 61.2377L562.001 61.2357L561.909 61.1229L561.907 61.1208L561.813 61.0091L561.811 61.007L561.717 60.8963L561.715 60.8932L561.621 60.7836L561.619 60.7815L561.523 60.6708L561.424 60.5591L561.422 60.556C561.29 60.408 561.157 60.2611 561.022 60.1173L561.02 60.1142C559.349 58.3275 557.361 56.7788 555.202 55.6956C553.219 54.7014 550.972 54.0496 548.744 54.1479L548.724 54.1355Z" fill="black"/>
<path fill-rule="evenodd" clip-rule="evenodd" d="M430.331 48.8822C425.574 54.7378 423.762 58.815 426.114 62.408C430.929 69.7648 447.112 70.0928 450.846 65.4983C454.581 60.9038 451.018 45.5136 442.984 42.1151C438.919 40.3956 435.202 42.8869 430.331 48.8822ZM438.024 41.5388C438.44 39.4749 438.183 37.2837 436.762 35.3635C435.724 36.905 432.172 39.1014 431.57 42.3654C429.768 40.2591 426.669 39.2825 425.459 38.2613C424.41 41.0557 425.226 43.758 426.772 45.884C424.083 45.0543 420.862 45.8312 419.265 45.6026C419.837 48.5283 422.053 50.3792 424.589 51.3423C421.083 52.0158 419.163 56.1169 417.666 57.3738C419.995 58.7322 422.507 58.5822 424.71 57.6873C424.89 56.7303 425.234 55.7972 425.653 54.9157C426.724 52.6656 428.366 50.4899 429.933 48.5604C431.511 46.6196 433.327 44.5577 435.342 43.0586C436.17 42.442 437.065 41.8999 438.024 41.5388ZM426.378 52.3873C421.855 51.8927 420.355 56.0268 418.646 57.3656C420.469 57.619 420.729 54.4698 426.378 52.3873ZM427.643 50.7961C423.01 51.451 420.459 47.4545 419.819 45.9554C421.475 47.0448 422.782 49.2598 427.643 50.7961ZM430.396 47.0106C425.993 45.526 425.613 40.8126 425.75 39.1862C426.701 40.9005 426.819 43.4652 430.396 47.0106ZM432.726 44.5029C432.072 40.4112 435.475 38.0865 436.714 36.2822C436.945 38.0244 434.54 38.699 432.726 44.5029ZM438.447 43.2697C438.216 43.5531 438.423 44.1035 438.909 44.4966C439.395 44.8908 439.976 44.9788 440.206 44.6953C440.437 44.4108 440.23 43.8614 439.744 43.4683C439.258 43.0741 438.677 42.9852 438.447 43.2697ZM449.502 57.4866C449.271 57.7701 449.478 58.3194 449.963 58.7136C450.449 59.1067 451.032 59.1957 451.262 58.9112C451.493 58.6277 451.286 58.0773 450.799 57.6842C450.313 57.2911 449.733 57.2011 449.502 57.4866ZM447.497 63.0722C447.266 63.3567 447.472 63.9061 447.959 64.2992C448.444 64.6923 449.026 64.7813 449.256 64.4978C449.488 64.2133 449.28 63.664 448.794 63.2709C448.308 62.8777 447.727 62.7887 447.496 63.0722H447.497ZM443.99 56.361C443.76 56.6455 443.966 57.1959 444.452 57.589C444.938 57.9822 445.52 58.0711 445.75 57.7866C445.981 57.5032 445.773 56.9538 445.287 56.5596C444.801 56.1665 444.22 56.0775 443.99 56.361ZM447.359 52.2166C447.128 52.5 447.335 53.0504 447.821 53.4435C448.307 53.8367 448.889 53.9256 449.12 53.6411C449.351 53.3577 449.143 52.8073 448.657 52.4142C448.171 52.021 447.589 51.932 447.359 52.2166ZM437.378 54.5412C437.147 54.8247 437.354 55.3751 437.84 55.7682C438.326 56.1613 438.908 56.2503 439.138 55.9658C439.369 55.6813 439.162 55.1319 438.677 54.7388C438.191 54.3457 437.609 54.2567 437.378 54.5412ZM440.747 50.3957C440.516 50.6792 440.723 51.2296 441.208 51.6227C441.694 52.0158 442.276 52.1048 442.506 51.8213C442.737 51.5368 442.531 50.9875 442.045 50.5944C441.559 50.2012 440.977 50.1112 440.747 50.3957ZM444.115 46.2502C443.884 46.5337 444.091 47.0841 444.577 47.4772C445.064 47.8704 445.645 47.9593 445.876 47.6759C446.106 47.3914 445.899 46.842 445.413 46.4489C444.927 46.0557 444.346 45.9657 444.115 46.2502ZM442.763 65.7786C442.533 66.0621 442.739 66.6115 443.225 67.0056C443.712 67.3998 444.292 67.4877 444.524 67.2043C444.755 66.9198 444.547 66.3704 444.061 65.9773C443.575 65.5841 442.994 65.4941 442.763 65.7786ZM440.62 60.5086C440.389 60.792 440.596 61.3414 441.082 61.7356C441.568 62.1297 442.149 62.2187 442.381 61.9342C442.611 61.6497 442.404 61.1003 441.918 60.7072C441.432 60.3141 440.851 60.2251 440.62 60.5086ZM434.008 58.6867C433.778 58.9712 433.985 59.5206 434.471 59.9147C434.957 60.3089 435.539 60.3979 435.77 60.1134C436 59.8299 435.793 59.2795 435.307 58.8864C434.821 58.4922 434.239 58.4032 434.008 58.6867ZM437.061 65.1279C436.83 65.4124 437.037 65.9618 437.523 66.3559C438.009 66.7491 438.591 66.838 438.821 66.5535C439.052 66.2701 438.845 65.7207 438.359 65.3265C437.873 64.9324 437.291 64.8444 437.061 65.1279ZM430.639 62.8332C430.408 63.1167 430.615 63.6671 431.1 64.0602C431.586 64.4534 432.168 64.5423 432.399 64.2578C432.63 63.9744 432.423 63.424 431.938 63.0308C431.452 62.6377 430.87 62.5498 430.639 62.8332ZM427.541 56.689C427.31 56.9724 427.518 57.5228 428.004 57.916C428.49 58.3091 429.07 58.3981 429.301 58.1136C429.532 57.8301 429.325 57.2807 428.839 56.8876C428.353 56.4934 427.772 56.4045 427.541 56.689ZM431.272 52.0965C431.041 52.381 431.248 52.9314 431.733 53.3246C432.221 53.7177 432.802 53.8067 433.032 53.5232C433.263 53.2397 433.057 52.6893 432.571 52.2952C432.085 51.902 431.503 51.8131 431.272 52.0965ZM434.641 47.951C434.411 48.2356 434.618 48.7839 435.104 49.178C435.59 49.5712 436.171 49.6601 436.401 49.3767C436.632 49.0922 436.425 48.5418 435.94 48.1487C435.453 47.7555 434.872 47.6665 434.641 47.951Z" fill="black"/>
</g>
<defs>
<clipPath id="clip0_243_1792">
<rect width="592" height="331" fill="white"/>
</clipPath>
</defs>
</svg>
