<svg width="483" height="421" viewBox="0 0 483 421" fill="none" xmlns="http://www.w3.org/2000/svg">
<g clip-path="url(#clip0_241_171)">
<path d="M433.838 122.453L430.654 121.831L425.575 119.202L425.003 119.138L423.18 119.324L420.521 118.576L420.166 118.667L419.414 119.065L419.03 119.159L418.727 119.113L418.044 118.881L417.688 118.823L417.289 118.905L416.915 119.065L416.534 119.159L416.417 119.128L416.087 119.061L415.791 118.814L415.488 118.202L415.248 117.915L414.543 117.554L413.145 117.316L412.45 116.888L412.028 116.371L411.309 115.231L410.859 114.775L410.909 114.62L410.994 114.51L411.234 114.36L411.026 113.676L410.431 113.471L409.039 113.385L408.907 112.857L408.287 112.808L407.66 112.991L407.537 113.031L407.011 113.324L406.857 113.556L406.627 114.24L406.473 114.506L406.224 114.616L405.566 114.699L405.282 114.793L405.072 115.031L404.741 115.698L404.553 115.89L404.352 115.862L403.483 115.471L400.737 115.449L400.233 115.284L399.729 115.027L398.499 114.158L398.329 114.137L398.036 114.421L398.065 114.687L398.163 114.934L398.106 115.176L397.117 115.769L396.409 115.231L396.037 113.935L396.056 112.26L395.369 112.23L393.36 111.129L393.011 111.081L392.076 111.166L390.744 110.87L390.422 110.943L390.24 111.607L390.486 112.367L390.609 113.156L390.055 113.862L389.646 113.953L388.395 113.507L386.972 113.495L386.592 113.339L386.189 112.673L386.287 112.099L386.441 111.5L386.243 110.739L386.117 110.742L385.685 111.011L385.541 111.029L385.455 110.861L385.389 110.487L385.351 110.383L385.253 110.182L384.998 109.302L384.863 109.164L384.412 109.014L384.243 108.883L384.205 108.69L384.274 108.216L384.224 108.015L382.095 106.016L381.563 105.387L381.362 104.834L381.535 104.4L382.105 104.372L382.241 103.99L382.134 103.702L380.582 102.101L380.355 101.78L380.424 101.762V101.493L380.326 101.102L380.128 100.711L379.577 100.194L376.648 98.7662L376.293 98.7078L376.025 98.8022L375.418 99.2086L375.077 99.276L374.804 99.2454L374.155 99.1816L373.307 98.7293L371.783 97.6199L371.716 97.583L370.831 97.2405L369.927 97.1488L368.085 97.3448L368.306 97.7817L367.393 97.8581L367.172 97.9525L367.003 98.2402L367.013 98.5459L366.937 98.8031L366.547 98.9496L366.235 99.4108L365.766 99.5763L363.039 99.7417L362.485 99.9251L362.047 98.5558L361.455 97.9723L359.418 97.4985L358.609 97.1344L358.049 96.6273L357.048 95.3254L356.674 95.2337L355.978 94.8184L355.642 94.7635L355.301 94.9406L354.889 95.4693L354.486 95.6374L353.8 95.5241L353.113 95.1906L352.388 95.0314L351.589 95.4226L351.214 95.9233L351.135 96.2686L351.037 96.461L350.553 96.5194L350.279 96.4457L349.278 95.9935L348.67 96.2506L347.861 96.8683L347.033 97.3394L346.337 97.1623L346.145 96.737L346.183 96.309L346.281 95.8631V95.365L346.155 94.9281L344.612 92.22L344.259 91.9144L344.013 91.7004L343.021 91.3488L342.666 91.1349L342.471 91.1106L342.354 91.2392L342.229 91.5053L342.055 91.7471L341.826 91.8209L341.299 91.7202L341.126 91.5242L341.047 91.0809L341.145 90.4057L341.413 90.2403L341.548 90.0659L341.321 89.3538L340.703 88.6139L340.027 87.9692L339.34 87.9872L337.897 88.3783L337.154 88.167L336.571 87.748L336.087 87.2958L334.727 85.379L334.352 85.0247L333.216 84.7038L332.57 84.3522L331.377 83.2122L330.807 82.9002L330.71 82.9029L330.121 82.9308L328.732 83.4046L328.024 83.5143L327.209 83.41L326.912 83.0405L326.921 81.2459L326.836 80.9582L326.525 80.4566L326.458 80.2147L326.515 79.9216L326.807 79.5979L326.911 79.3471L327.085 78.7573L327.245 78.3572L327.324 77.9472L327.277 77.3206L326.773 76.4341L325.259 75.8317L324.831 75.1565L324.963 74.3896L326.203 71.4128L326.232 70.8958L326.184 70.4957L326.222 70.0587L326.814 68.7749L327.015 68.729L327.355 69.0931L327.43 68.2498L327.6 67.25L327.648 66.4004L327.351 66.021L326.35 66.2224L325.995 66.0758L325.85 65.3548L324.994 65.7369L321.565 69.0931L321.392 69.4726L321.294 69.9464L321.369 70.2341L321.492 70.4759L321.521 70.8095L321.275 72.3532L321.048 73.1201L320.752 73.6676L320.402 73.8906L319.07 74.0956L314.618 76.2444L313.663 76.4152L313.427 76.3478L308.626 75.0702L306.652 75.348L306.173 75.4118L305.751 75.2923L303.951 74.3572H303.969L304.209 74.3752L304.171 73.6694L303.989 72.9358L303.835 72.8773L303.97 72.3055L304.131 71.9414L304.367 71.6663L304.956 71.1376L305.693 70.627L306.458 70.2538L306.468 69.9329L306.241 69.5535L306.048 69.0976L305.513 67.0127L305.202 66.8571L304.859 66.9057L304.22 67.1898L303.76 66.9695L303.836 66.092L304.466 64.1509L304.639 63.2644L304.781 62.8671L305.111 62.3959L305.867 61.8241L306.182 61.4726L306.258 60.9655L306.066 60.6508L305.672 60.3119L305.241 60.0458L304.944 59.9451L304.551 60.1105L304.529 60.4225L304.57 60.756L304.334 60.9826L303.745 60.7165L302.87 58.8913L302.206 58.3195L301.519 57.9374L300.451 56.7974L299.825 56.5097L299.148 56.5771L297.111 57.4088L296.378 57.4178L295.818 57.1516L295.266 56.7785L294.602 56.4486L293.27 56.293L291.872 56.3973L291.441 56.5475L291.176 56.8352L290.618 57.7891L290.486 58.1892L290.392 58.3357L290.257 58.4301L290.196 58.3906L290.149 58.4121L290.026 58.7268L288.898 57.7001L288.615 55.7131V53.4483L288.341 51.5684L287.818 50.645L287.182 50.0552L286.489 49.719L285.777 49.5724L283.718 49.5598L283.318 49.2721L283.624 48.7345L283.68 48.3434L283.463 48.0863L283.01 47.946L282.559 47.9829L282.238 48.1942L281.916 48.4998L281.475 48.8298L280.078 49.3216L279.307 49.407L278.746 49.2569L277.349 48.5511L276.917 48.2274L276.42 47.6008L276.259 47.0442L276.202 45.4888L275.365 42.7476L275.097 41.3324L275.548 40.5196L275.183 39.3553L274.924 38.8995L274.492 38.762L274.042 38.7035L273.793 38.4158L273.4 37.4835L272.949 36.713L272.417 35.7806L271.876 35.2825L271.047 35.0353L268.503 35.8121L266.828 36.3192L266.101 36.7714L265.512 37.3801L264.549 39.0002L264.127 39.3212L263.632 39.2115L263.49 39.1477L260.934 38.0076L260.336 37.5275L260.175 37.2245L259.734 36.2347L259.542 35.911L258.358 34.8015L258.138 34.432L258.04 34.1047L257.879 33.8269L257.46 33.6067L257.155 33.5761L256.566 33.6588L256.301 33.6498L255.831 33.5554L255.595 33.4547L255.422 33.1769L255.151 32.5502L255.015 32.3911L254.622 32.1987L254.512 32.0333L254.549 31.804L254.804 31.2601L254.842 30.9391L254.206 28.7813L254.388 28.3354L255.121 27.6197L255.313 27.3266L255.207 26.3457L254.709 25.6121L253.567 24.3741L253.251 23.4237L252.93 21.248L252.442 20.1169L252.433 20.1259L251.948 20.4559L250.651 21.0457L248.04 21.7119L246.123 21.4826L245.855 21.5222L245.515 21.7056L240.03 23.4543L234.895 24.0837L233.799 24.7103L233.226 24.597L227.095 27.1981L226.109 28.0935L225.184 29.3495L224.649 29.8872L224.038 30.1075L223.37 30.1659L223.093 30.2792L222.318 30.8816L222.321 31.1324L222.396 31.8175L222.91 33.6237L223.118 34.7458L222.939 35.6781L222.573 36.3992L221.896 38.334L221.736 39.2025L221.748 40.2176L222.082 42.3025L222.224 44.5979L222.397 45.2731L223.264 46.5686L222.272 47.2987L222.115 49.2919L222.092 51.5783L221.503 53.2227V53.5526L223.266 54.9093V55.2123L222.778 55.1179L222.045 54.9624L221.387 56.2553L221.119 58.1505L221.069 59.7122L221.374 60.1096L222.747 60.7578L223.052 61.3782L223.26 61.9221L223.755 62.3042L224.4 62.5092L225.02 62.5218V62.8823H224.362L224.536 63.2519L224.705 63.4568L224.916 63.5396L225.256 63.518V63.8515L224.983 64.1177L224.668 64.1392L221.503 62.6324L220.404 62.7825L219.315 64.2103L218.6 66.7717L218.316 67.1817L217.942 67.4874L216.255 69.5202L212.082 72.7847L210.806 74.1567L210.032 74.4166L209.251 75.0189L196.076 79.1574L193.321 79.1205L190.821 80.0097L189.561 80.8503L188.456 81.1803L184.451 83.5125L184.12 83.9585L179.939 85.8384L179.618 86.1441L179.268 86.1531L177.669 87.4028L177.19 87.9557L175.912 92.1733L174.271 95.1043L174.173 95.4495L174.135 95.9692L174.24 96.3756L174.696 96.6723L174.794 96.96L175.068 97.4212L175.707 97.7943L176.441 98.0263L177.001 98.0721H177.659L179.945 98.8327L182.596 99.178L185.238 98.8139L187.508 97.423L186.976 98.1351L186.358 98.67L184.888 99.4001L180.905 100.28L176.918 101.158L174.792 102.656L174.021 103.82L173.735 104.049L173.008 104.242L172.129 104.993L170.624 105.69L165.494 106.867L164.682 107.588L161.687 105.821L160.075 105.452L159.112 104.834L158.552 104.611H156.367L154.988 104.012L154.207 103.844L153.042 104.465L152.258 104.388L150.885 103.988L145.403 103.664L141.619 102.256L137.4 102.042L136.846 102.292L136.311 102.873L136.075 103.521L136.405 103.995V104.325L135.785 104.493L135.444 104.301L135.205 103.958L134.862 103.671L134.5 103.729L134.157 103.943L133.899 103.983L133.795 103.5L133.855 103.353L133.999 103.106L134.144 102.733L134.21 102.213L134.097 101.174L133.792 100.449L131.345 97.4599L130.866 96.1391L130.315 95.2985L129.912 94.3571L130.066 93.2261L130.275 92.9789L130.552 92.8782L131.26 92.8656L131.386 92.6642L131.465 92.212L131.601 91.766L132.419 91.1942L132.275 90.3626L131.573 88.9106L131.412 88.1248L131.286 87.7795L131.028 87.642L127.18 86.9542L126.623 87.0027L125.143 87.4487L124.683 87.7939L123.855 88.8881L123.361 89.3493L122.82 89.5965L122.435 89.5786L121.767 89.3277L121.393 89.2639L121.044 89.3736L120.606 89.8384L120.303 89.9481L120.074 89.8438L119.998 89.6118L119.989 89.3736L119.977 89.2639L119.469 89.3035L117.08 88.506L114.96 88.1913L114.255 87.953L114.1 87.9315L113.751 87.9989L113.6 87.953L113.459 87.7238L113.342 87.143L113.191 86.938L112.87 86.8094L111.982 86.938L111.601 86.8373L110.965 86.385L110.669 86.2844L109.809 86.394L109.673 86.7636L109.733 87.4756L109.478 88.6067L110.888 89.1812L111.915 89.3826L112.201 89.7125L112.374 90.1774L112.639 90.7123L112.875 91.3938L112.884 92.1886L112.739 93.6864L112.538 94.1665L111.634 94.973L111.436 95.6392L111.599 95.9269L112.428 96.9141L112.743 97.4248L112.856 97.7979L112.879 98.0452L112.92 98.2771L113.389 99.0998L113.521 99.4055L113.616 99.7354L113.638 100.421L113.515 102.037L113.613 102.657L113.924 102.987L114.299 102.951L114.721 102.764L115.161 102.66L115.038 102.844L114.982 102.981L114.897 103.315L115.533 103.679L116.251 104.449L116.843 104.819L117.108 103.993H117.347L117.76 104.972L117.769 105.262H117.117L117.357 106.005L117.748 106.531L118.664 107.236L118.529 107.31L118.434 107.378L118.226 107.592L118.702 108.148L119.234 109.897L119.741 110.478L119.99 109.579L120.683 109.597L121.505 109.979L122.182 110.181V110.474L121.03 110.14L120.447 110.18L120.198 110.632L120.249 111.491L120.39 112.423L120.601 113.312L120.869 114.064L121.032 113.832L121.111 113.758L121.502 114.061L120.881 114.48L120.661 114.773L120.433 115.382L120.279 115.991L120.248 116.519L120.417 116.88L120.868 116.972L120.726 117.445L120.657 117.952L120.628 119.08L120.726 119.477L120.953 119.951L121.183 120.226L121.281 120.034L121.536 119.309L122.135 118.97H122.849L123.467 119.258V119.546L122.686 119.185L122.258 119.414L122.049 120.111L121.7 122.847L121.832 123.125L122.216 123.219L122.377 123.488L122.355 123.903L122.175 124.441L121.898 124.041L121.687 124.524L121.428 126.782L121.211 127.33L120.871 127.755L120.43 127.951V128.303L121.201 128.495L121.591 129.229L121.723 130.347L121.736 131.649L122.01 132.762L123.2 133.792L123.468 134.902L123.637 135.19L124.037 135.447L125.136 135.761L125.305 135.945L125.412 136.214L125.45 136.51L125.535 136.731L125.715 136.657L125.865 136.473V136.364L127.093 136.473L127.808 136.834L128.312 137.65L127.14 137.222L123.702 137.965L121.167 137.65L120.846 137.714L120.653 137.76L119.108 138.576L116.582 138.956L114.237 138.925L112.886 138.556L112.161 137.758L112.151 136.664L112.945 135.404L112.715 135.074L112.611 134.824L112.614 134.619L112.708 134.417L109.449 135.053L109.648 135.404H108.445L108.159 135.56L108.102 135.89V136.223L107.995 136.37L107.501 136.51L107.129 136.853L106.893 137.272L106.795 137.651L107.107 138.223L107.698 139.62L108.001 139.895L108.362 139.913L108.696 140.023L108.989 140.311L109.225 140.855L108.835 140.567L108.699 140.427L108.567 140.215H108.35L108.467 140.964L108.936 141.796L108.766 142.165L109.654 142.774L108.662 143.394L108.347 143.728L108.47 142.701L108.272 142.075L107.45 140.855L107.548 140.672L107.684 140.211L107.291 140.071L107.007 139.728L106.846 139.258L106.796 138.756L106.119 137.542L106.034 137.328L104.501 137.479L103.071 137.968L103.336 138.643L103.51 138.964L103.73 139.252L103.321 138.836L102.931 138.799L102.556 139.068L102.203 139.597L102.49 139.844L102.622 139.893V140.214L102.143 140.482L101.857 140.207L101.684 139.624L101.548 138.936L101.561 139.51L101.454 139.991L101.224 140.345L100.875 140.531L100.808 140.039L100.692 139.498L100.481 139.092L100.119 138.923L100.012 138.673L99.8326 137.578L99.6818 137.321L98.9574 137.67L98.3021 138.327L97.7042 138.725L97.1342 138.281L98.0283 137.319L98.189 137.059L98.3057 136.793L98.4475 136.545L98.6872 136.353V136.001L98.259 136.075L97.9376 135.929L97.7105 135.586L97.5974 135.038L97.1504 135.891L96.3191 136.695L95.3496 137.312L94.5184 137.636L94.2347 136.991L93.539 136.891L92.1099 137.31L92.7302 137.597L93.004 137.634V137.949L92.5534 138.441L90.3962 139.746L89.8262 139.929L89.486 140.189L89.24 140.477L88.4842 141.641L87.8666 142.305L87.3441 142.528L86.0685 142.464L85.9366 142.809L85.9554 143.482L85.8674 143.919L85.4267 143.558L85.1529 143.207L84.8854 142.929L84.5766 142.761L84.2022 142.743L84.4509 142.511L84.6331 142.245L84.7588 141.911L84.8531 141.492L83.0299 140.624L82.2651 140.058L81.8521 139.857L81.6914 139.716L81.5846 139.42L81.651 139.181L81.7453 138.967L81.695 138.726L81.5631 138.352L81.248 136.953L79.1636 135.21L78.9526 134.74L78.4643 134.187L77.8853 133.698L77.4158 133.405L77.4095 133.108L77.5352 133.041L77.8467 132.784L77.8054 132.463V132.179L77.8467 131.79L77.2102 131.558L75.589 131.484L74.7703 131.179L74.3511 130.827V130.552L74.8924 130.137L75.1411 129.999L75.4463 129.907L75.4436 129.684L75.4122 129.626L75.3332 129.629L75.2102 129.583L75.4499 129.259L75.1285 128.999L74.7946 128.914L74.4543 128.999L74.1393 129.259L73.6168 129.14L72.9902 130.035L71.9319 132.153H71.6958V131.802L72.3825 130.915L72.5908 130.542L73.0037 129.313L73.2497 128.934L72.8116 128.582V128.289L73.0387 127.828L73.0199 127.336L72.7927 126.908L72.4023 126.657L71.9992 126.777L71.4103 127.474L71.0764 127.327L70.7927 127.679L70.009 128.336L69.0485 129.494L68.79 129.946L68.6733 130.54L68.5126 130.237L68.4749 130.105L68.4372 129.894L68.8492 129.42L69.079 128.568L69.0979 127.651L68.8896 126.969L68.3762 126.856L67.4219 128.011L67.1194 127.935H66.9022L66.5305 128.213L63.8321 129.2L63.6149 129.35L63.2935 129.729L63.0071 129.916L62.614 129.946L61.8617 129.891L61.9685 129.671L62.0287 129.521L62.1139 129.392L62.2962 129.246L61.8554 129.209L60.7504 128.573L59.7333 128.515L59.4308 128.283H59.2324L59.0529 128.671L58.3599 129.89L57.437 130.3L57.113 130.698L57.2449 131.465L58.35 132.806L58.8159 133.094L57.1471 133.39L57.0151 133.711L57.1471 134.427L57.4685 135.512L57.0115 135.754L56.0797 135.757L55.2961 135.515L55.3086 134.72L54.1497 135.056L53.7404 135.038L53.3786 134.861L52.6452 134.222L52.2897 134.082L50.8032 134.156L50.2053 133.978L49.7861 133.413L49.796 133.706L49.7771 133.96L49.708 134.183L49.5725 134.403L49.182 134.106L48.927 134.632L48.8328 135.537L48.9181 136.353L48.6631 136.096L48.5653 135.958L48.4611 135.68H48.2601L48.4333 136.634L48.5464 137.016L48.6972 137.307L48.4611 137.631L48.6972 137.945L48.4611 138.269L48.0482 137.734L47.0976 137.15L46.7134 136.649V136.356L46.8489 136.292L47.1703 136.004L46.5311 135.854L46.0616 136.092L45.164 136.97L45.3273 136.413L45.2798 135.943L45.0688 135.591L44.7412 135.39V135.038H44.9584V134.751L44.5841 134.611L44.5526 134.372L44.6658 134.03L44.7447 133.584L44.5437 133.428L43.4099 133.758L42.7268 134.168L42.3363 134.315L41.8955 134.4L42.0185 134.825L41.9996 135.177L41.8677 135.461L41.6567 135.684L41.4646 135.681L41.3327 135.33L41.1756 135.116L40.996 135.103L40.8075 135.391L40.2348 135.061L39.5077 135.012L38.7644 135.15L38.1468 135.392L37.6145 135.771L37.0633 136.324L36.8963 136.798L37.5139 136.966V137.311L37.0822 137.32L36.355 137.043L35.9645 136.966L35.6306 137.061L34.6512 137.632L33.9053 137.709L34.1414 136.673L33.5561 136.003L32.7284 135.964L31.8657 136.3L30.9716 136.807L30.0587 136.966V137.311L30.2571 137.375L30.6979 137.641L29.9546 137.659L28.8935 138.151L28.1754 138.28H25.678V138.567L25.9617 138.744L26.0308 138.895L25.968 139.041L25.8701 139.234L26.7454 139.579L26.1475 139.607L24.6798 139.234L24.2606 139.521L24.4904 140.166L25.2337 141.156L24.8342 141.269L23.7732 140.686L23.1529 140.511L22.1609 140.615L21.5595 140.808L21.0496 141.15L21.2893 141.502L20.9464 141.364L20.6124 141.153L20.0397 141.976L19.2498 143.403L18.9284 144.755L19.7408 145.329V145.622L19.1393 145.806L18.765 146.45L18.6079 147.322L18.6555 148.202L19.2004 149.458L19.2506 150.05L18.6591 150.105L18.8575 151.077L19.1411 151.557L19.5693 151.713L21.1878 151.731L21.4742 151.572L21.5245 151.233V150.894L21.6376 150.738L22.2579 150.839L23.3728 151.282L23.9329 151.404L24.5595 151.322L25.5138 150.848L27.0784 150.475L29.1 149.237L30.0883 148.827L32.2517 148.481L32.8909 148.249L33.8918 147.687L34.4618 147.519L31.3945 149.288L31.0201 149.581L29.1969 151.73V152.018L29.6377 151.972L30.0659 151.852L30.4312 151.666L30.705 151.406L30.9447 151.727L30.8217 151.822L30.7903 151.843L30.7023 152.02L31.4169 151.892L32.4277 151.21L32.9062 151.406L33.0228 151.21L33.2212 150.968L33.3191 150.739H33.5552V151.084L33.3254 151.091V151.412L33.829 151.265L34.5561 150.754L35.0911 150.745L34.4771 151.409L34.1656 151.632L34.0112 151.822L33.9986 152.018L33.7248 152.127L33.5866 152.231L33.3254 152.659L34.6952 152.565L34.8963 152.51L35.0758 152.984L35.469 153.143L35.9098 153.024L36.206 152.659L36.338 153.212L36.7123 153.389L37.7132 153.322V153.667L35.0902 154.211L34.4322 153.954L34.9017 153.945L35.1028 153.862L35.3047 153.666L33.1575 153.807L31.6521 154.235L31.2679 154.265L30.855 154.191L30.609 154.017L30.3819 153.827L30.0578 153.662L27.2149 153.858L26.3297 153.448L26.749 151.727L26.2166 151.48L25.8073 151.865L25.2373 153.317L25.2938 153.491L25.3791 153.821L25.3037 154.136L24.9006 154.273L24.5514 154.209L24.2839 154.109L24.0164 154.087L23.6636 154.273L23.7489 154.744L23.6636 155.227L25.5874 155.304L25.9779 155.404L26.1987 155.878L26.082 156.062L25.8333 156.267L25.6726 156.819L25.7516 157.158L25.95 157.556L26.3118 158.084L26.1511 158.39L25.8674 159.377L26.6951 159.102L27.2588 158.216L27.7059 157.158L28.1718 156.336L29.0596 156.039L30.7634 157.103L31.5659 156.815L31.6413 157.108L31.7832 157.386L31.9842 157.615L32.2392 157.771L33.5929 158.067L34.0247 158.493L34.1853 159.528L34.2832 159.858L34.7338 160.421L34.8784 160.947L34.5669 162.262L34.4223 162.592L33.9466 162.784L32.1171 162.246L21.8207 164.493L21.6322 164.426L21.3773 164.138L21.2857 164.132L21.1789 164.297L21.1376 164.474L21.1187 164.64L20.9203 164.979L20.7848 165.272L20.6214 165.556L20.4105 165.721L22.8126 166.385L23.8925 166.321L24.4437 166.415L25.4042 167.323L25.8235 167.103L26.2139 166.638L26.6457 166.376L26.9671 166.544L29.8074 168.72L31.3343 170.645L31.8128 171.486L32.1279 172.746L32.6036 173.929L32.7105 174.752L32.5938 175.066L32.32 175.125L32.021 175.127L31.82 175.247L31.7697 175.516L31.8388 176.16L31.82 176.512L36.5112 176.732L37.2949 176.512L37.7832 176.224L38.8228 175.252V174.907L37.9502 174.904V174.617L38.057 174.476L38.145 174.302L37.6791 173.978L37.7671 173.406L38.2177 173.287L38.8192 174.302L39.1405 173.996L39.4368 173.782L39.7519 173.669L40.1513 173.638V173.351L39.7671 172.99L39.3353 172.361L39.1468 171.664L39.487 171.117L39.5849 171.868L39.8964 172.589L40.3057 173.137L40.6962 173.351L41.2124 173.399L41.6406 173.567L42.5445 174.292L42.7079 173.895L42.9476 173.79L43.269 173.778L43.6595 173.638L43.5428 174.044L43.3542 174.255L43.1056 174.319L42.7842 174.297L43.4332 174.472L44.1514 173.705L44.3812 173.008L44.0912 172.061L44.9386 172.216L45.795 172.778L46.3965 173.444L46.4943 173.945L46.8875 174.192L47.0886 174.284L47.366 174.293L47.234 174.831L47.3471 175.108L47.5769 175.292L47.804 175.534L48.4145 176.643L48.462 176.793L49.041 176.852L49.7592 176.705L50.4423 176.693L50.9082 177.136L52.577 176.219L52.8544 176.35L53.1219 176.979L53.7395 177.191L54.9514 177.136L55.0959 177.219L55.4577 177.619L55.7126 177.759L55.9774 177.796L56.8051 177.759L57.9388 178.034L58.4613 178.047L58.8141 177.759L58.9371 178.101L59.0726 178.303L59.4254 178.7L59.885 179.644L60.8392 180.836L60.9748 181.094L61.4317 181.231L64.061 180.595V180.308L63.9066 180.07L63.7082 179.877L63.4596 179.737L64.1337 179.581L65.1068 179.025L65.9856 178.218L66.6813 177.424V177.766L66.272 178.087L65.9794 178.631L65.57 179.658L65.3689 179.716L64.8303 179.627L64.7235 179.813V180.239L64.6858 180.471L64.5476 180.571L64.2612 180.599V180.942L65.6059 181.073L66.1786 181.265L66.6822 181.568V181.856L65.4066 181.4L64.8303 181.33L64.2513 181.562L65.1077 181.59L66.5153 181.963L67.334 182.186L68.3133 183.262L68.5494 183.446L68.8421 183.253L68.9399 182.828L69.0943 182.4L69.5414 182.186L69.211 181.703L69.088 181.566L69.5387 181.443L69.7936 181.15L70.0207 180.976L70.4013 181.251L70.4426 181.074V181L70.474 180.97L70.6347 180.939L70.4992 180.303L70.2909 179.814L69.9884 179.475L69.5414 179.307L70.0449 179.203L70.4767 179.417L70.8196 179.502L71.0683 179.013H71.2694L71.2505 179.328L71.2694 180.3L71.4139 180.205L71.7882 180.059L71.939 179.958V180.419L71.9678 180.749L72.0369 181.009L72.1599 181.251L69.7577 182.333L69.3735 183.625L69.2981 184.219L69.4237 184.503L69.7263 184.68L70.0817 184.83L70.387 185.016L70.8439 185.523L71.1967 186.126L71.4175 186.923L71.4965 187.989L71.4274 188.61L71.1311 189.38L71.062 189.882L71.1123 190.297L71.4965 191.621H71.6949L71.896 191.419L72.5701 191.603L73.0019 191.624L72.2936 190.818L71.7676 189.754L71.5854 188.44L71.9346 186.894L71.7802 186.802L71.6446 186.646L71.5001 186.582L71.7739 186.093L72.1294 186.072L72.501 186.304L72.8125 186.588L72.6015 186.771L72.4005 186.9L72.8475 187.169L73.3547 187.12L74.3619 186.591L74.5728 186.812L74.7622 186.87L75.2192 186.901L75.0271 186.292L75.1402 185.781L75.3413 185.714L75.458 186.42L75.6088 187.018L75.905 187.141L76.0872 186.853L75.8951 186.244L76.3332 186.617L76.6734 187.091L76.966 187.388L77.2336 187.211L77.5639 187.672L77.6492 187.838L77.7372 187.66L77.7874 187.529L77.8727 187.214L77.5262 186.887L77.1707 186.422L76.8844 185.915L76.7713 185.454V184.354L76.73 184.033L76.5792 183.461L76.5379 183.1H76.7775L76.8628 183.672L77.0711 184.097L77.405 184.339L77.8709 184.357L77.5971 184.577L77.4993 184.932L77.5307 185.397L77.6537 185.959H77.8745L77.9975 185.758L78.0953 185.684L78.5083 185.617V185.959H78.291V186.247L79.3494 185.99L79.976 185.706L80.2596 185.158L80.5837 184.835L82.2399 184.66L82.9042 184.355L82.4634 184.067L83.4518 184.241L83.8324 184.48L84.2067 185.014L83.5676 184.794L82.8997 184.7L84.4994 185.7L84.6628 185.959L85.0344 185.938L85.1762 185.837L85.3181 185.617L84.8611 185.302L85.2606 185.198L85.4527 184.969L85.4114 184.672L85.0963 184.36V184.072L85.8208 184.98L85.67 185.839L84.4231 187.523L84.6592 187.838L83.976 188.272L83.1071 188.355L82.2947 188.095L81.7974 187.523L81.6151 188.198L81.5774 188.491L81.2848 188.216L81.064 188.149L80.8817 188.249L80.7022 188.491H80.4814L80.0056 187.574H79.1304L78.598 187.954L79.1492 188.159L79.1681 188.381L79.1205 188.445L79.2183 188.491L79.5801 188.555L79.8853 188.695L80.0173 188.943L80.134 188.988L80.6286 189.893L80.695 190.067L81.1268 190.467L81.546 190.669L82.0245 190.717L82.6448 190.662L84.3109 190.1L84.8459 190.063L85.9132 190.442L86.3513 190.191L86.4016 189.097L86.7445 189.335L87.1188 189.43L87.9276 189.417L87.8585 189.112L87.7328 188.937L87.5344 188.845L87.2696 188.797L87.8145 188.668L88.2903 188.708L88.7409 188.64L89.2355 188.167L88.9896 188.784L88.5111 189.304L87.951 189.643L87.4662 189.728L87.7966 190.021L87.9949 189.991L88.1772 189.823L88.4734 189.728H89.6727L90.7212 189.386L91.1395 189.331L91.6431 189.414L94.0902 190.355L94.6791 190.358L95.5453 190.211L96.0615 190.351L95.3936 190.306L94.2446 190.609L92.2517 190.713L91.8963 191.025L92.3469 191.624L92.0821 192.495L92.4851 192.746L93.1593 192.813L93.6817 193.156L93.3855 193.804L93.9115 194.005L94.6952 194.027L95.1836 194.121L95.0857 194.424L93.9869 195.023L93.6817 195.374L93.4456 195.087L93.5776 195.004L93.6153 195.001L93.6817 194.751L93.1467 194.65L92.8164 194.51L92.4735 194.488L89.9259 195.971L91.258 196.805L91.6234 197.508L91.6736 198.838H91.9133L92.083 198.392L92.0704 198.206L91.916 197.867L92.0103 197.772L92.1171 197.699L92.3469 197.585L92.8352 198.23L93.4744 198.841L93.7706 199.453L93.2194 200.079L92.495 200.199L91.1225 199.563L90.3891 199.459V199.771L93.3837 201.299L94.3191 201.327L94.3505 201.199L94.4008 200.915L94.5175 200.609L94.7724 200.389L95.0121 200.343L95.3083 200.325L95.8434 200.389L96.3568 200.682L97.1378 201.562L97.6163 201.977L98.189 202.207L98.8192 202.216L99.4269 201.977L100.173 201.253L101.127 200.978L101.457 200.681L101.631 200.393L101.756 200.096L101.983 199.757L102.991 199.159L107.405 198.862L108.617 199.207L109.064 199.653L109.351 199.757L110.107 199.834L110.752 200.039L111.851 200.693L112.978 201.601L113.948 202.72L114.508 203.163L115.821 203.423L116.467 203.838L114.735 203.784L114.002 203.469L113.296 202.726L112.966 202.512L111.634 202.255L110.32 201.32V200.981H110.976L110.689 200.684L110.378 200.492L110.035 200.398L109.663 200.389L109.884 200.701L109.396 200.713L107.755 200.294L107.515 200.08L107.26 199.768L107.024 199.808L106.807 199.912L106.586 200.08L103.641 200.377L102.877 200.701L102.59 201.089L102.389 201.633L102.264 202.223L102.226 202.724L102.32 203.411L102.66 204.123L102.648 204.744L102.554 205.419L102.456 205.792L102.207 205.951L101.167 206.098L100.796 206.358L100.447 206.672L100.025 206.956L101.167 207.565L104.858 208.201L106.782 209.246L107.276 209.72L107.625 210.249L107.981 211.053L108.037 211.819L107.477 212.229L107.097 213.033L106.555 214.671L106.165 215.353L104.943 216.093L104.474 216.573L104.663 217.218L103.844 217.798L103.627 218.263L103.548 219.25L103.586 220.027L103.712 220.889L103.948 221.595L104.319 221.888L105.147 222.166L106.139 222.86L107.914 224.673L108.865 226.549L109.139 226.827L109.665 226.885L110.2 227.06L110.622 227.393L110.946 228.549L111.33 228.983L111.825 229.398L112.303 229.942L112.502 230.468L112.646 231.07L112.901 231.572L113.415 231.783L113.273 232.569L113.981 235.873L114.283 236.283L114.586 236.442L114.722 236.241L114.68 235.853L114.492 235.119L114.488 234.556L114.793 235.036L115.149 236.026L115.379 236.399L115.778 236.641L116.685 236.883L117.762 237.8L119.466 238.093L119.988 238.573L119.705 239.132L120.565 239.408L122.709 239.499L123.588 239.674L124.325 240.165L124.832 240.987L125.022 242.118L125.371 243.072L126.183 243.112L127.887 242.586L128.315 242.76L129.04 243.372L130.022 243.952L130.343 244.011L130.85 244.139L131.439 245.002L132.049 245.723L132.909 245.955L132.872 244.537L134.062 243.843L135.495 243.937L136.19 244.891L136.276 245.536L136.42 245.909L136.449 246.273L136.19 246.845L133.987 248.174L133.637 248.764L133.811 249.623L133.514 249.819L133.199 250.201L132.991 250.638L133.029 251.002L133.334 251.323L133.608 251.378L133.9 251.36L134.234 251.454L134.719 251.426L134.889 251.454L134.927 251.583L134.885 251.812L134.883 252.008L135.008 252.1L135.254 252.167L136 252.72L135.62 253.084L135.617 253.28L135.809 253.418L136.001 253.629L136.108 253.712L136.521 253.843L136.638 253.917L136.679 254.085L136.67 254.495L136.906 255.113L136.935 255.559L137.048 255.923L137.658 256.146L137.869 256.314L138.051 256.51L138.183 256.715V256.99L137.831 257.748L137.409 258.121L136.874 258.081L136.199 257.626L136.65 259.096L137.003 259.694L137.529 260.033L137.366 260.156L137.044 260.494L136.871 260.632L137.069 260.879L137.299 261.27L137.491 261.726L137.532 262.191L137.397 262.708L137.196 262.802L136.937 262.754L136.641 262.793L136.146 263.081L135.785 263.387L135.634 263.583L135.471 263.858L135.25 264.133L134.894 264.31L135.168 264.775L135.379 265.43L135.521 266.096L135.568 266.606L135.738 267.006L136.566 267.969L139.444 270.225L140.158 271.023L137.917 269.999L137.536 269.653L137.162 269.403L135.125 267.064L134.498 267.036L132.37 267.672L132.373 268.234L131.828 271.336L132.4 271.568L133.524 271.318L134.116 271.755L134.506 272.262L134.957 272.708L135.483 273.028L136.091 273.142L137.054 273.524L138.77 275.181L139.829 275.554L140.03 275.75L140.156 276.582L140.262 276.768L144.8 279.968L146.28 281.625L146.995 282.728L147.64 283.966L148.708 286.741L149.126 288.434L150.339 296.861L150.742 298.258L151.331 299.398L152.467 300.257L153.859 300.7L155.134 301.318L155.937 302.696L155.212 302.103L154.479 301.751L153.651 301.583L152.663 301.535L153.421 301.987L154.13 302.675L154.495 303.629L154.193 304.812L154.385 305.356L154.501 306.594L154.627 307.202L154.199 306.888L153.931 306.176L153.789 305.277L153.752 304.36L153.846 303.657L153.798 303.257L153.534 302.704L153.247 302.408L152.221 301.814L150.993 300.646L149.907 299.264L148.827 296.722L148.701 296.215L148.103 292.146L147.681 290.508L147.595 289.637L147.215 288.296L146.317 286.994L142.441 282.812L141.95 282.666L140.596 281.926L138.452 280.306L138.168 279.972L137.834 279.437L137.736 279.195V278.957L137.803 278.715L137.897 278.575L137.916 278.083L137.928 277.753L137.853 277.548L137.513 277.398L136.997 277.575L136.537 278.26L135.447 280.418L135.246 281.075L134.673 290.373L133.341 297.321L131.389 318.879L131.597 318.389L131.883 317.354L132.245 315.413L133.688 313.282L133.896 312.882L133.971 312.796L134.013 312.619L134.073 312.433L134.208 312.314L134.426 312.292L134.58 312.384L134.716 312.515L134.86 312.609L135.209 312.747L137.63 314.948L137.942 315.583H137.504L138.294 316.39L138.285 317.053L137.639 317.509L136.512 317.668L134.566 317.188L133.763 317.216L133.133 317.974L132.56 319.973L132.472 320.499L132.349 320.786L131.502 321.988L131.47 322.348L131.744 323.586L131.823 324.234L131.602 326.927L130.724 333.007L128.658 345.212L127.534 350.793L126.772 353.254L125.459 360.268L124.688 362.701L124.47 364.049L123.526 365.333L123.28 365.816L122.021 367.408L121.737 367.747L121.601 368.221L120.908 369.541L120.625 369.915L120.026 370.334L119.308 370.707L118.565 371.737L115.731 372.183L115.145 372.418L114.906 372.739L114.417 372.394L114.398 372.385L114.313 372.321L114.234 372.813L114.215 373.7L114.218 374.217L115.143 374.657L115.537 375.183L115.643 376.015L115.731 376.192L115.807 376.351L116.15 376.296L116.524 376.119L117.211 376.025L117.86 375.75L118.152 375.786L118.76 376.071L119.075 376.3L119.072 376.496L118.984 376.765L119.034 377.129L119.27 377.85L119.424 378.055L119.815 378.223L120.164 378.278L120.564 378.223L120.916 378.027L121.096 377.663L121.351 376.932L121.829 376.644L122.466 376.672L123.458 376.96L124.793 377.644L125.148 377.577L125.501 377.457H125.885L126.808 378.37L126.931 379.936L126.582 381.629L126.093 382.967L125.69 383.496L124.374 384.874L124.109 385.226L124.509 386.152L125.092 386.791L125.797 387.182L126.581 387.387L127.46 387.47L128.005 387.293L128.278 386.712L128.357 385.618L128.578 384.759L129.129 384.151L129.844 383.875L130.568 384.071L129.9 384.634L129.642 385.187L129.784 385.749L130.325 386.358L130.926 386.703L132.785 387.033L133.883 387.632L134.929 388.454L136.129 388.354L136.406 388.454L136.938 388.784L137.178 388.98L138.287 389.109L138.819 389.249L139.209 389.701L140.324 390.514L141.546 390.905L144.094 391.101L146.56 390.673L147.416 390.961L147.885 392.129L148.017 392.468L148.005 392.756L147.898 392.952L147.867 393.175L148.046 393.557L148.376 393.862L148.688 393.911L149.003 393.862L149.324 393.921L150.423 394.578L150.993 395.043L152.234 396.663L152.281 396.84L152.221 397.014L152.219 397.174L152.429 397.268H152.946L153.087 397.317L153.27 397.567L153.228 397.852L153.226 398.102L153.531 398.307L153.78 398.262L154.315 397.916L154.598 397.822L154.655 396.813L155.474 396.841L157.199 397.618L158.178 397.544L158.953 397.098L160.49 395.921L160.773 396.19L161.022 396.098L161.243 395.777L161.416 395.358L161.904 395.814L161.98 395.86L163.841 396.954L164.221 397.731L165.078 397.835L166.003 397.569L166.582 397.337L166.513 398.067L166.702 398.792L167.086 399.431L167.612 399.85L167.81 400.079L167.852 400.376L167.94 400.651L168.28 400.798L168.683 400.911L168.904 401.097L169.055 401.311L169.237 401.488L170.502 401.971L171.607 401.877L174.076 400.996L176.038 400.709L176.639 400.318L177.155 400.235L178.859 400.663L179.372 400.929L180.059 402.097L180.556 402.678L181.032 402.601L181.93 401.379L182.494 400.816L183.076 400.611L183.961 401.351L184.03 401.482L184.021 401.659L184.043 401.827L184.197 401.967L184.837 402.087L185.463 402.05L186.681 401.738L187.214 401.958L191.207 401.854L192.34 401.994L192.76 401.854L192.977 401.509L193.037 401.415L193.068 400.733L192.851 400.094L192.467 399.62L192.016 399.461L192.215 399.042L192.331 398.865L192.571 398.679L192.218 398.205L192.665 397.013L192.596 396.117L192.747 395.509L193.484 395.224L194.359 395.148L194.923 395.215L196.028 395.634L196.588 395.754L197.208 395.69L197.76 395.785L199.142 396.579L200.093 396.943L200.37 397.139L200.877 397.629L201.226 397.769L201.529 397.619L201.831 397.387L202.156 397.282L202.429 397.377L202.962 397.802L203.208 397.949L205.935 398.117L206.603 398.322L207.173 398.82L207.484 399.419L207.724 400.076L208.054 400.666L208.599 401.048L208.955 401.094L210.022 400.764L213.961 400.773L214.713 400.969L214.578 401.567L214.738 401.736L215.041 401.754L215.308 401.885L215.872 402.875L216.49 403.706L217.031 405.149L217.497 405.739L218.205 405.451L218.693 403.804L219.704 403.859L220.646 403.505L221.134 403.468L222.876 404.626L223.225 404.785L226.865 405.13L226.588 405.98L227.101 406.31L227.844 406.524L228.118 406.897L228.244 407.083L227.444 407.157L226.855 407.71L226.502 408.581L226.389 409.629L226.487 409.693L226.547 409.767L226.57 409.871L226.557 410.003L227.146 410.244L229.136 410.513L229.81 410.788L231.605 411.983L232.357 412.151L232.956 412.188L233.45 412.393L233.889 413.105L234.307 414.676L234.609 415.324L235.24 415.859L235.633 416.11L236.064 416.165L236.896 416.082L237.422 415.951L237.793 415.709L238.335 415.165L239.1 414.593L239.25 414.342L239.496 413.713L239.647 413.499L240.154 413.252L241.662 413.453L243.643 412.842L244.65 412.741L245.544 413.224L245.928 413.536L247.789 414.386L248.781 414.606L249.294 414.634L249.534 415.3L250.031 415.966L250.643 416.44L251.241 416.595L251.896 416.941L252.245 417.06L252.579 417.051L252.796 416.837L253.074 416.165L253.313 415.942L253.94 415.933L255.41 416.416L256.085 416.562L256.941 416.516L256.932 416.33L256.539 415.893L256.243 415.096L256.507 414.735L257.852 413.696L258.416 413.408L259.08 413.362L260.337 413.548L261.011 413.444L261.515 413.139L262.488 412.23L262.985 411.934L263.507 411.875L264.042 411.897L264.584 411.811L265.632 411.017L266.678 411.399L267.229 411.054L267.553 411.13L268.498 411.158L268.709 411.222L268.91 411.678L269.158 412.069L269.48 412.39L269.851 412.631L270.519 412.827L271.338 412.922L272.179 412.882L273.561 412.65L273.58 412.5L273.398 411.605L272.894 410.829L272.589 410.526L272.353 410.116L272.447 409.642V409.162L272.17 408.743L271.446 408.501L270.577 408.324L269.89 408.021L269.433 407.486L269.245 406.104L269.109 404.365L268.983 402.082L269.157 400.343L269.031 399.267L269.078 397.574L269.308 395.169L269.592 392.635L269.523 391.776L269.11 391.535L269.016 391.1L269.243 390.205L269.567 388.995L269.794 388.329L270.021 387.552L270.525 386.403L270.83 385.614L271.095 384.96L271.41 384.184L272.112 383.545L272.71 382.936L273.065 382.215L273.484 381.671L274.029 381.197L274.385 380.76L274.835 380.406L275.034 380.045L275.566 379.391L277.918 377.539L280.084 376.659L281.463 376.595L282.225 376.454L283.503 377.072L284.18 376.784L286.627 373.639L287.667 372.79L291.442 371.173L297.812 366.057L298.253 365.745L299.465 365.28L301.276 365.042L303.134 365.228L303.971 365.894L304.019 366.034L303.522 366.997L304.019 367.987L304.904 368.653L305.581 368.974L306.362 369.142L312.88 369.668L316.19 369.323L317.55 369.858L318.321 370.43L318.598 370.983L318.523 371.511L317.867 372.214L317.896 372.92L318.725 373.394L321.086 373.92L325.101 374.014L326.033 373.969L326.121 373.088L325.387 372.285L324.424 371.612L323.539 370.732L323.098 369.304V366.245L322.966 365.792L322.006 364.319V364.072L322.566 364.401L323.016 365.037L323.34 365.767L323.539 366.422L323.624 367.143L323.539 369.649L324.027 370.771L325.113 371.761L326.439 372.491L326.999 373.472L327.154 374.202L327.841 373.82L328.596 373.135L327.535 373.22L327.438 372.668L327.122 371.891L326.978 371.668L327.243 371.078L327.558 370.812L328.339 370.635L328.669 370.375L329.488 370.011L331.232 370.992L331.72 371.086L332.652 370.992L333.404 370.466L333.76 369.522L333.376 368.458L332.91 368.076L332.526 367.871L332.233 367.517L332.06 366.713L332.116 366.401L332.271 365.811L332.479 365.23L332.696 364.955L332.894 365.069L333.36 365.686L333.483 365.826L334.239 365.79L334.485 365.826L335.162 366.04L335.316 366.263L335.335 366.628L335.565 367.294L336.252 368.061L337.074 368.201L337.972 367.889L338.897 367.29L339.01 368.299L338.597 369.253L337.939 370.041L337.322 370.515L336.437 370.793H333.596L332.605 371.337L331.937 372.505L332.21 373.523L332.859 374.476L333.851 374.797L335.775 374.892L336.997 374.752L339.399 374.81L341.185 373.627L342.617 374.525L343.029 376.078L343.165 376.344L343.203 376.836L343.577 377.261L343.312 377.949L343.085 378.377L342.987 378.829L342.874 379.569L343.62 379.902L344.413 379.725L344.873 379.774L345.836 379.911L346.485 379.875L347.899 379.997L348.221 379.902L348.563 379.697L348.975 379.92L349.272 380.492L349.646 381.018L350.093 381.544L350.581 381.599L351.353 381.911L351.687 381.226L352.048 380.78L352.716 380.844L353.327 381.095L353.767 381.568L354.041 382.494L355.48 383.13H356.107L356.595 383.189L356.746 383.494L356.831 383.858L357.382 383.978L357.731 384.198L357.942 384.513L357.454 384.956L356.78 385.366L357.047 385.757L357.96 386.445L359.172 386.809L359.764 385.791L360.177 385.651L361.109 385.633L361.846 385.71L362.195 385.327L361.433 385.006L360.891 384.765L360.441 383.821L359.899 383.616L360.825 383.144L361.332 383.022L361.855 383.031L361.757 383.251L361.706 383.661L361.631 383.903L362.415 384.392L363.473 384.383L364.263 384.521L364.597 385.401H365.167L366.675 385.205L367.245 385.141L367.872 385.694L367.966 386.48L367.557 386.801L367.04 386.987L366.575 387.229L366.867 387.388L368.697 387.284L369.518 387.189L369.688 386.789L369.237 386.921L368.639 386.679L368.648 385.67L368.96 384.79L369.463 384.353L369.923 384.111L370.779 383.772L371.856 383.595L372.716 383.689L373.544 384.071L374.171 384.301L374.269 384.475L374.707 384.872L375.765 384.863L375.595 384.234L375.472 383.69L375.875 382.941L376.612 382.485L377.261 382.256L378.197 382.238L379.091 382.092L379.941 382.306L380.615 381.906L380.927 381.398L381.024 380.988L381.796 380.894H382.356L382.74 380.763L382.806 381.093L382.942 381.298L383.257 381.362L383.887 381.093L384.243 381.007L384.888 380.643L385.515 380.169L385.256 379.659L385.051 379.316L385.149 378.549L385.691 378.185L386.094 377.445L385.958 377.124L385.275 376.996L383.339 377.496L382.665 377.3L382.873 376.656L383.752 376.149L384.63 375.345L384.927 375.024L385.071 374.559L385.349 373.996L385.975 373.905L386.74 373.81L386.731 373.122L387.219 372.465L387.159 371.384L387.648 370.94L387.988 370.744L388.491 370.922L388.813 371.347L389.959 371.026L390.466 371.035L390.847 371.175L391.269 371.035L391.143 370.482L391.21 370.17L391.364 370.03L391.477 370.198L391.575 370.348L391.622 370.599L392.366 370.525L392.491 370.088L393.193 369.614L393.344 368.606L394.27 367.438L394.261 367.242L394.116 367.128L394.135 367.11L393.849 366.914L393.981 366.275L394.516 365.728L394.954 365.44L395.543 365.348L396.201 365.431L396.714 365.394L396.931 365.892L397.186 365.626L397.608 365.311L398.021 364.837L398.597 364.526L399.111 364.543L399.388 364.694L399.791 365.415L400.213 365.146L400.128 364.782L400.011 364.308L399.992 364.085L399.81 362.936L400.031 361.726L400.138 361.42L400.387 361.234L400.626 360.843L401.044 360.775L401.464 360.61L402.065 360.739L402.301 361.274L402.616 361.096L403.195 360.461L403.089 360.005L403.517 359.544L404.011 359.247L404.745 359.171L405.409 359.428L405.988 359.528L406.353 359.474L406.599 358.967L406.735 358.557L407.088 358.218L407.481 357.921L407.537 357.441L407.707 356.934L408.186 356.423L408.816 356.185L409.423 356.524L409.789 357.041L410.063 356.763L410.336 356.451L410.604 356.237L410.786 356.255L411.045 356.133L411.073 355.983L411.026 355.439L411.045 355.283L411.17 355.216L411.306 355.243L411.438 355.234L411.857 354.941L411.221 352.884L411.07 351.799L411.558 350.913L412.947 349.434L413.605 348.419L415.255 347.071L415.963 346.294L416.218 345.811L416.486 344.848L416.696 344.322L417.046 343.931L417.505 343.586L417.861 343.13L417.93 342.381L417.798 342.106L417.433 341.33L416.724 340.643L416.334 339.836L416.775 338.436L415.783 338.259L414.469 339.1L413.553 339.176L407.979 340.738L406.682 340.692L406.379 340.616L406.083 340.338L405.91 339.974L405.68 339.662L405.258 339.506L404.427 339.375L403.819 339.124L400.415 337.082L399.14 336.621L397.26 335.649L396.857 335.539L396.435 335.576L396.042 335.698L395.667 335.762L395.239 335.594L394.943 335.271L394.798 334.897L394.692 334.494L394.491 334.059L394.194 333.726L393.555 333.274L393.263 332.986L393.083 332.652L392.702 331.781L392.456 331.362L391.761 330.558L391.629 330.347L391.512 329.956V329.733L391.6 329.473L391.874 328.126L392.101 327.743L393.178 327.172L392.341 326.496L391.368 325.497L390.653 324.274L390.555 322.926L390.898 322.336L392.52 321.117L393.619 319.277L394.07 318.947L393.708 318.021L393.938 317.15L394.526 316.438L395.26 316.047H395.849L397.001 316.376L397.571 316.367L397.392 315.805L396.419 314.01L396.293 313.637L396.13 312.57L395.768 311.626L395.797 311.562L395.948 310.887L396.014 310.85L396.005 310.636L396.043 310.523L396.053 310.403L395.983 310.128L395.848 309.914L395.263 309.296L393.66 308.652L393.1 308.606L391.519 308.911L390.911 308.761L388.71 307.511L387.649 306.639L387.098 305.722L387.158 303.281L386.96 302.031L386.104 301.428L384.995 301.334L384.661 301.05L384.277 300.396L384.191 300.005L384.229 299.651L384.169 299.348L383.653 298.911L383.093 298.07L383.473 297.581L383.952 297.19L384.05 297.108L385.148 296.481L385.445 296.426L386.024 296.454L386.282 296.405L386.566 296.25L387.139 295.816L387.375 295.696L388.499 295.882L389.673 296.509L390.828 296.9L391.868 296.411L391.934 296.142L391.742 295.937L391.606 295.695L391.77 295.322L392.028 295.218L392.762 295.209L393.058 295.145L393.534 294.726L394.079 293.782L394.498 293.4L395.64 292.893L396.764 292.6L397.019 292.704L397.429 293.178L397.589 293.241L397.807 293.019L398.424 291.946L399.293 291.243V290.555L398.953 289.675L398.79 288.391L398.953 288.14L399.999 286.936L400.667 285.787L400.95 285.112L400.988 284.568L400.733 284.391L399.36 283.801L398.939 283.48L398.68 282.991L398.459 282.453L398.248 282.133L398.144 281.964L396.755 280.947L395.288 280.149L395.039 279.495L394.859 277.669L394.737 277.355L394.396 276.829L394.33 276.486L394.415 276.113L394.78 275.336L394.856 275.07L394.667 274.413L394.268 274.135L393.228 273.884L392.806 273.572L392.079 272.869L391.657 272.71L390.816 272.555L389.941 271.925L389.289 270.975L388.928 269.144L388.833 268.338L388.862 267.552L389.035 266.812L389.438 266.168L389.927 265.875L390.887 265.746V265.67L390.975 265.474L391.12 265.269L391.262 265.159L391.385 265.177L391.643 265.336L391.76 265.354L391.981 265.317L392.771 265.326L393.454 265.13L394.187 264.766L394.826 264.249L395.273 263.543L395.474 262.932L395.733 262.403L396.063 261.988L396.523 261.783L396.302 261.419L396.129 260.973L395.908 260.156L395.543 259.233L395.436 258.759L395.281 258.655L393.052 256.271L392.338 255.959L392.061 256.063L391.833 256.295L391.587 256.463L391.282 256.417L390.999 256.221L390.98 256.081L391.046 255.895L391.027 255.55L391.075 255.504L391.066 255.039L391.009 254.593L390.911 254.639L391.056 254.407L391.321 254.104L391.551 253.765L391.588 253.42L391.094 252.964L388.55 252.42L388.263 251.671L388.56 250.136L389.104 248.529L390.241 246.383L389.523 245.169L388.386 243.996L387.775 242.969L387.945 242.452L388.795 241.489L389.025 240.74L388.987 240.297L388.946 239.887L388.649 239.459L388.171 239.221L383.397 238.019L381.259 237.956L379.212 238.353L376.485 240.159L375.43 240.425L374.384 240.471L373.395 240.783L372.349 241.652L371.436 242.82L370.759 243.709L370.586 244.326L370.718 244.779L371.014 245.546L371.024 245.723L371.336 246.456L371.468 246.642L371.802 246.811L372.359 246.579L372.58 246.673L372.743 247.709L371.916 248.558L369.865 249.879L368.228 251.731L367.186 252.248L366.106 251.774L364.645 251.838L363.193 252.168L362.422 252.614L362.85 251.642L363.096 251.186L363.194 250.813L362.624 250.119L362.315 249.499L362.428 248.964L363.218 248.49L365.136 247.564L365.192 247.555L365.24 247.546L365.306 247.555L365.555 247.638L365.747 247.656L365.939 247.638L366.635 247.424L366.77 247.121L366.741 246.711L366.76 246.231L366.987 244.971L367.092 244.617L367.557 243.593L368.13 242.364L368.083 241.872L367.698 241.197L367.214 240.708L365.643 239.773L365.492 239.678L365.857 239.336L365.914 239.043L365.847 238.74V238.397L365.819 238.259L365.743 238.073L365.668 237.859V237.63L365.791 237.346L366.162 236.973L367.271 235.114L368.399 233.727L367.659 232.88L367.561 232.288L367.983 231.74L372.294 227.919L374.583 226.696L374.898 226.439L375.735 225.513L376.803 224.966L377.137 224.718L377.489 224.282L377.615 223.902L377.605 223.142L377.359 222.884L377.186 222.661L377.107 222.404L377.155 222.184L377.649 220.71L377.87 220.322L377.939 220.172L378.052 219.888L378.109 219.261L378.002 218.763L377.58 217.968L377.445 217.562L377.933 215.97L379.476 215.098L382.927 214.05L385.055 212.476L385.788 211.449L385.398 210.606L385.83 209.885L386.126 209.597L386.929 209.319L387.042 209.031L387.165 208.955L387.63 208.723L387.58 207.944L388.541 207.62L390.571 205.805L390.647 205.741L391.254 204.769L392.18 203.834L394.356 202.29L394.23 201.159L394.439 200.224L395.046 199.622L395.339 199.585L395.512 199.521L395.982 198.91L396.312 198.717L396.642 198.632L396.939 198.439L397.193 197.938L396.863 197.464L396.378 197.045L395.894 196.666L395.295 196.941L391.485 197.305L391.646 196.721L392.045 196.009L392.53 195.41L393.349 194.937L393.399 194.074L394.237 193.888L394.759 193.601L395.237 193.21L395.483 192.827L395.329 192.28L395.005 191.651L394.926 191.14L395.515 190.963L395.801 190.742L396.097 190.669L396.394 190.742L396.69 190.963L397.518 191.076L399.117 190.807L399.86 190.963L400.279 191.195L400.345 191.204L400.717 191.262L401.583 191.177L401.013 192.479L401.186 193.221L401.879 193.628L402.815 193.915L402.947 194.02L403.045 194.185L403.168 194.353L403.413 194.454L403.631 194.414L404.84 193.904L405.69 193.729L406.584 193.766L407.916 193.824L408.221 193.702L408.8 193.473L409.26 192.892L409.423 192.669L409.53 192.241L409.474 191.981L409.323 191.767L409.219 191.658L409.037 191.367V191.083L409.402 190.974L409.897 191.148L410.041 191.233L410.315 191.401L410.733 191.46L411.221 191.032L411.288 190.956L411.326 190.824L411.335 190.705L411.326 190.687L411.297 190.586L411.07 190.274L410.991 190.088L411.041 189.941L411.221 189.847L411.551 189.921L411.818 189.835L411.944 189.569L411.935 189.108L411.837 189.111L411.305 188.713L411.22 188.685L412.448 187.713L412.621 187.576L413.386 187.166L414.503 186.751L414.522 186.748L414.648 186.278L414.733 186.112L414.658 185.675L414.485 185.437L414.292 185.26L414.091 185.028L413.377 183.628L412.936 183.038L412.467 182.796L412.35 182.585L412.252 182.093L412.158 181.103L412.262 180.818L412.794 180.275L412.984 179.969L413.003 179.217L412.609 177.606L412.695 176.967L413.154 175.469L413.336 175.249L413.768 175.017L413.835 174.5L413.68 173.641V173.436L413.658 173.317L413.639 173.203L413.68 173.011L413.778 172.81L413.986 172.608L414.112 172.379L414.313 171.914L414.373 171.709L414.332 170.96L414.505 170.342L415.365 169.462L415.661 168.906L415.592 167.463L414.201 165.097L414.103 163.184L414.314 162.276L414.525 161.573L414.755 161.158L414.972 160.88L415.133 160.51L415.202 159.838L415.419 159.272L417.441 156.516L417.781 155.843L417.982 155.055L418.048 154.111L418.269 153.132L418.783 152.722L419.372 152.41L419.812 151.725L419.863 151.072L419.702 150.451L419.485 149.858L419.381 149.308L419.418 148.696L419.654 147.458L419.815 146.93L420.042 146.486L420.253 146.183L420.414 145.728L420.48 144.838L420.641 144.413L421.031 144.034L421.831 143.422V143.099L421.457 142.103V140.476L421.734 138.948L423.079 136.897L423.451 136.64L423.983 136.472L424.471 136.056L425.356 135.038L425.737 134.797L426.159 134.399L426.499 133.953L426.644 133.58L426.681 132.682L426.855 132.263L427.21 132.15L428.108 132.132L428.354 132.055L428.533 131.896L428.609 131.636L428.675 131.193L428.829 130.942L428.965 130.802L429.04 130.689L429.327 130.676L430.498 130.065L430.697 129.906L431.096 129.257L432.554 125.373L433.555 123.538L434.219 122.805L434.228 122.792L433.856 122.45L433.838 122.453ZM301.889 353.713C301.583 353.803 294.643 355.402 288.832 355.6C283.02 355.797 276.313 355.15 272.941 355.133C269.569 355.116 258.88 355.007 258.646 354.971C258.413 354.935 258.287 354.719 258.199 354.397C258.109 354.073 258.091 352.205 258.199 352.098C258.306 351.99 258.504 351.99 258.504 351.99C258.504 351.99 258.252 351.271 258.324 351.092C258.396 350.912 258.916 350.876 258.916 350.876C258.916 350.876 257.857 348.846 258.091 346.727C258.324 344.607 258.7 343.44 258.952 342.9C258.952 342.9 258.575 342.487 258.79 342.146C259.006 341.804 259.059 341.086 259.095 340.745C259.131 340.403 259.006 339.667 259.059 339.362C259.113 339.057 259.293 337.099 259.347 336.542C259.401 335.985 260.19 335.446 260.19 335.446C260.19 335.446 260.136 334.027 259.974 333.201C259.813 332.375 259.902 330.668 260.369 329.572C260.836 328.476 260.907 327.758 260.853 327.219C260.799 326.681 260.799 325.89 260.584 325.585C260.368 325.279 259.31 322.585 259.095 321.04C258.88 319.495 257.947 313.747 257.929 310.37C257.911 306.993 257.875 295.873 257.822 295.567C257.768 295.262 257.57 294.561 257.66 293.987C257.75 293.412 258.037 292.927 257.929 292.586C257.822 292.244 257.804 290.664 258.055 289.712C258.306 288.76 258.593 287.664 258.7 286.963C258.808 286.263 258.88 285.687 258.88 285.687C258.88 285.687 258.288 284.161 258.234 283.371C258.181 282.58 258.594 281.466 258.664 281.215C258.736 280.963 258.88 280.226 258.88 279.76C258.88 279.293 259.077 277.532 259.239 276.939C259.401 276.347 259.634 276.221 260.279 275.879C260.925 275.538 261.158 275.071 260.71 274.747C260.261 274.424 259.168 274.245 259.06 273.885C258.953 273.526 258.827 271.981 258.523 271.173C258.217 270.365 258.182 269.718 258.487 269.34C258.792 268.963 258.774 268.55 258.72 267.957C258.666 267.364 258.093 265.514 257.68 264.831C257.267 264.148 256.12 260.142 255.725 259.118C255.33 258.094 252.335 250.406 251.689 248.753C251.043 247.101 250.218 244.406 250.093 243.993C250.093 243.993 249.429 248.43 249.106 249.454C248.783 250.478 247.743 255.831 247.043 258.687C246.344 261.544 246.057 263.789 245.985 264.418C245.913 265.046 245.68 266.897 245.303 267.256C244.927 267.616 244.873 269.537 244.73 270.095C244.586 270.651 244.55 272.592 243.618 274.119C242.685 275.646 241.86 276.993 241.179 277.658L240.497 278.322C240.497 278.322 241.556 280.478 241.52 281.465C241.484 282.453 241.322 283.478 240.443 284.142C239.565 284.806 239.134 285.04 238.668 285.615C238.201 286.189 236.982 287.303 236.982 287.303C236.982 287.303 237.233 290.195 236.928 291.722C236.623 293.249 236.247 293.518 236.229 295.549C236.211 297.579 236.784 302.554 237.287 304.35C237.789 306.147 237.933 310.117 237.521 312.398C237.108 314.679 236.911 315.829 236.606 316.925C236.301 318.021 236.068 318.452 236.014 319.099C235.96 319.745 236.391 321.811 236.642 323.176C236.893 324.541 237.144 328.997 237.144 330.02C237.144 330.02 240.838 332.427 241.161 333.397C241.485 334.367 241.359 335.463 241.036 335.66C240.713 335.858 240.552 335.84 240.569 336.216C240.587 336.594 240.425 337.833 240.425 338.085C240.425 338.336 240.785 338.695 240.731 339.181C240.677 339.665 241.412 340.563 241.304 341.139C241.304 341.139 242.255 341.713 242.075 342.181C242.075 342.181 242.936 342.647 242.9 343.079C242.9 343.079 243.797 343.689 243.6 344.247C243.6 344.247 244.622 344.929 245.034 345.809L245.447 346.69C245.447 346.69 247.85 348.306 248.209 348.63C248.209 348.63 250.54 348.414 251.904 349.546C253.268 350.678 253.554 351.109 253.428 352.402C253.428 352.402 254.02 352.402 254.038 352.69C254.056 352.978 254.02 353.714 254.02 353.714C254.02 353.714 254.361 353.84 254.361 354.271C254.361 354.701 254.558 355.115 254.092 355.457C253.626 355.798 251.885 356.049 246.63 356.624C241.375 357.199 235.08 356.624 232.479 356.481C229.879 356.337 228.443 355.834 226.579 355.852C224.713 355.87 223.279 355.457 223.207 355.386C223.135 355.314 223.369 352.745 223.422 352.655C223.476 352.565 223.566 352.475 223.566 352.475C223.566 352.475 223.53 351.505 223.638 351.397C223.746 351.289 224.229 351.253 224.229 351.253C224.229 351.253 223.369 349.493 223.584 348.145C223.799 346.798 224.714 344.193 224.714 344.193C224.714 344.193 224.355 343.851 224.589 343.367C224.822 342.882 224.786 341.786 224.624 341.211C224.463 340.636 224.93 339.863 224.445 339.396C223.961 338.93 222.256 337.582 221.916 336.127C221.575 334.673 220.93 331.816 220.93 330.648C220.93 329.48 220.158 320.966 219.925 319.457C219.692 317.948 219.154 309.595 219.082 307.17C219.01 304.745 218.885 295.691 219.28 291.129C219.675 286.566 220.212 281.554 220.284 280.063C220.356 278.572 220.786 274.979 221.647 273.273C222.508 271.567 223.907 270.417 223.907 270.417C223.907 270.417 222.777 267.506 223.423 265.243C224.069 262.98 224.428 261.633 224.464 260.986C224.5 260.34 224.015 256.19 224.015 250.657C224.015 245.124 224.517 235.388 224.446 233.717C224.375 232.047 224.589 231.328 224.554 230.663C224.518 229.998 224.052 229.513 224.248 228.993C224.445 228.472 224.661 227.628 224.607 227.358C224.554 227.088 224.338 226.748 224.464 226.334C224.589 225.921 224.697 225.382 224.338 225.058C223.979 224.735 223.764 223.586 223.298 221.556C222.832 219.525 222.347 218.107 222.275 217.397C222.275 217.397 221.396 217.574 221.3 217.397C221.204 217.221 221.133 211.065 221.42 208.191C221.42 208.191 220.702 204.79 220.272 203.808C219.842 202.826 216.972 196.024 215.393 191.999C213.814 187.975 213.79 186.466 213.552 185.388C213.313 184.31 212.738 181.413 212.523 179.257C212.307 177.101 212.595 174.012 212.523 172.694C212.451 171.377 212.499 166.467 212.619 164.503C212.738 162.539 212.929 156.12 213.384 154.324C213.838 152.527 214.579 145.294 214.986 142.587C215.393 139.881 215.919 136.384 217.234 133.39C218.549 130.396 219.864 127.832 220.917 126.994C221.969 126.157 223.284 125.342 225.604 124.216C227.923 123.091 233.83 120.121 235.408 119.426C236.986 118.731 237.728 118.3 237.728 118.3C237.728 118.3 237.704 117.989 238.206 117.605C238.708 117.222 239.618 116.48 240.072 115.761C240.526 115.043 241.339 113.319 242.057 113.055C242.057 113.055 242.2 111.905 242.558 111.522C242.917 111.139 243.276 111.115 243.276 111.115C243.276 111.115 243.18 110.804 242.916 110.588C242.653 110.372 242.199 110.516 241.936 110.349C241.673 110.182 241.051 109.176 240.765 108.457C240.477 107.739 239.497 105.751 239.258 105.176C239.02 104.601 237.943 102.015 237.752 100.649C237.561 99.2841 237.154 95.356 237.991 92.9366C238.828 90.5172 239.474 88.9123 239.928 88.3378C240.382 87.7633 240.813 85.7512 241.722 84.4341C242.63 83.1169 243.491 82.5415 245.213 81.9193C246.934 81.2963 251.359 80.0987 255.113 80.9609C258.867 81.8231 262.168 83.5952 262.885 84.0025C263.603 84.4098 263.89 84.7209 263.89 84.7209C263.89 84.7209 265.11 84.5294 266.257 85.3916C267.405 86.2538 267.165 87.0441 267.165 87.0441C267.165 87.0441 266.759 86.9245 266.687 86.9721C266.615 87.0198 266.831 87.499 266.735 87.9306C266.639 88.3621 266.782 88.5051 266.472 88.7208C266.161 88.9366 265.921 89.0562 265.778 89.6793C265.634 90.3023 265.204 90.3976 265.204 90.3976C265.204 90.3976 265.706 91.356 265.898 92.194C266.09 93.0319 267.183 94.2061 267.186 95.0198C267.19 95.8343 267.165 96.3612 267.309 96.6003C267.453 96.8395 267.309 97.343 266.999 97.5588C266.688 97.7745 266.281 98.1333 266.281 98.3733C266.281 98.6134 266.52 99.0917 266.975 99.1636C266.975 99.1636 266.521 99.3551 266.186 99.2598C265.851 99.1636 265.613 99.3794 265.613 99.3794C265.613 99.3794 266.736 101.344 267.095 102.134C267.095 102.134 268.219 103.307 268.172 104.17C268.124 105.032 267.215 105.463 266.785 105.606C266.355 105.749 265.852 105.87 265.78 106.109C265.709 106.348 265.684 106.995 265.972 107.594C266.259 108.193 266.354 108.625 266.259 109.079C266.163 109.534 266.163 110.181 265.805 110.493C265.805 110.493 266.115 111.067 265.685 111.738C265.255 112.409 265.063 113.223 265.063 113.582C265.063 113.941 265.661 115.139 265.254 115.93C264.848 116.72 264.274 117.151 263.007 117.223C261.739 117.295 259.898 117.199 259.228 117.726C259.228 117.726 258.797 118.061 258.774 118.397C258.774 118.397 259.061 118.828 258.893 119.306C258.726 119.786 258.392 121.294 258.392 121.294C258.392 121.294 258.655 121.175 259.061 122.204C259.061 122.204 261.549 123.449 263.27 124.527C264.992 125.605 266.954 126.635 267.288 126.755C267.623 126.875 269.321 127.474 270.325 128.863C271.33 130.252 273.458 134.132 273.984 137.246C274.51 140.359 274.606 142.108 274.438 143.857C274.271 145.605 274.514 147.857 274.514 147.857C274.514 147.857 275.132 148.145 275.299 149.067C275.466 149.988 275.299 150.491 275.299 150.491C275.299 150.491 275.036 153.102 274.845 154.347C274.654 155.592 274.272 158.227 273.984 159.329C273.697 160.43 273.482 161.508 273.482 161.508C273.482 161.508 273.842 165.532 274.008 167.424C274.175 169.317 274.463 170.634 274.272 171.4C274.08 172.166 274.128 173.986 274.368 174.561C274.607 175.135 275.109 176.98 275.109 177.962C275.109 178.944 275.085 179.232 275.085 179.232C275.085 179.232 276.519 180.956 276.519 182.921C276.519 184.885 277.38 191.351 277.715 194.225C278.05 197.1 278.409 199.184 278.672 200.213C278.935 201.243 279.007 202.297 279.054 203.351C279.102 204.405 280.274 206.178 280.489 209.051C280.704 211.926 281.709 214.584 281.852 215.566C281.995 216.548 282.282 216.986 281.636 217.474C281.636 217.474 281.636 218.224 281.134 218.56C281.134 218.56 282.617 223.638 283.024 224.931C283.431 226.224 284.674 229.098 284.889 229.721C285.105 230.344 284.817 231.11 284.387 231.756C283.957 232.403 283.551 234.367 283.479 235.516C283.407 236.666 283.072 237.074 282.738 237.265C282.738 237.265 282.713 237.888 282.115 238.295C281.518 238.703 281.087 239.086 280.465 239.493C279.843 239.9 278.863 240.475 278.863 240.475C278.863 240.475 279.987 250.463 279.748 254.965C279.509 259.468 279.854 260.876 279.746 261.814C279.638 262.753 279.349 263.006 279.638 263.584C279.927 264.162 280.431 265.389 280.215 266.689C279.999 267.989 279.746 268.494 279.746 268.494C279.746 268.494 280.251 271.383 280.251 273.369C280.251 275.355 279.963 275.932 279.746 276.872C279.53 277.811 279.458 281.133 278.954 282.793C278.449 284.454 277.836 285.249 277.836 285.249C277.836 285.249 278.882 288.066 278.63 290.124C278.378 292.181 278.017 295.575 277.621 300.306C277.224 305.036 277.152 308.249 276.9 309.152C276.648 310.054 276.719 312.762 276.215 314.134C275.711 315.506 275.53 317.059 275.746 317.89C275.963 318.72 277.946 323.703 277.837 325.111C277.728 326.519 277.08 329.552 277.08 329.552C277.08 329.552 277.946 331.141 277.946 332.296C277.946 333.452 278.234 334.499 278.378 334.824C278.523 335.148 279.28 336.412 279.28 337.351C279.28 338.29 280.145 339.878 280.145 339.878L280 340.276C280 340.276 280.929 340.562 281.18 340.866C281.431 341.172 281.915 341.351 282.167 341.567C282.418 341.783 282.346 341.926 282.167 341.854C281.987 341.783 281.449 341.388 281.252 341.28C281.054 341.172 280.606 341.1 280.553 341.1C280.499 341.1 280.553 341.316 280.804 341.388C281.055 341.46 281.629 341.587 281.79 341.873C281.952 342.16 282.58 342.412 282.867 342.986C283.154 343.561 284.015 344.298 284.301 344.639C284.589 344.981 287.619 346.974 288.122 347.1C288.625 347.226 290.794 347.548 291.44 347.53C292.085 347.512 296.049 347.135 297.143 347.333C298.238 347.53 299.942 348.015 300.713 349.021C301.484 350.027 301.322 350.853 301.322 350.853C301.322 350.853 301.806 350.907 301.932 351.375C302.057 351.841 301.932 352.093 301.932 352.093C301.932 352.093 302.469 352.021 302.523 352.829C302.577 353.638 302.2 353.62 301.896 353.71L301.889 353.713Z" fill="#050504"/>
<path d="M184.224 33.5355C183.991 33.5355 183.76 33.5436 183.53 33.5535C181.003 23.4137 171.853 15.901 160.946 15.901C158.729 15.901 156.587 16.2184 154.556 16.7974C149.975 6.88242 139.961 0 128.336 0C112.384 0 99.452 12.9521 99.452 28.9286C99.452 29.2874 99.4663 29.6416 99.4789 29.9967C98.3353 29.7783 97.1566 29.6596 95.9501 29.6596C85.5891 29.6596 77.1904 38.0713 77.1904 48.4484C77.1904 58.8256 85.5891 67.2373 95.9501 67.2373H184.224C193.516 67.2373 201.05 59.6932 201.05 50.3859C201.05 41.0787 193.517 33.5355 184.224 33.5355Z" fill="#010200"/>
<path d="M402.926 214.307C403.1 214.307 403.273 214.313 403.446 214.321C405.336 206.735 412.182 201.115 420.341 201.115C421.999 201.115 423.601 201.352 425.121 201.786C428.549 194.368 436.041 189.219 444.737 189.219C456.671 189.219 466.345 198.909 466.345 210.861C466.345 211.129 466.335 211.394 466.325 211.66C467.18 211.497 468.062 211.408 468.965 211.408C476.715 211.408 482.999 217.702 482.999 225.465C482.999 233.228 476.715 239.521 468.965 239.521H402.925C395.974 239.521 390.338 233.876 390.338 226.914C390.338 219.951 395.974 214.307 402.925 214.307H402.926Z" fill="#010200"/>
<path d="M16.8252 260.61C17.0586 260.61 17.2893 260.619 17.52 260.628C20.0461 250.489 29.197 242.976 40.1038 242.976C42.3202 242.976 44.4621 243.293 46.4935 243.872C51.0744 233.957 61.0889 227.075 72.7138 227.075C88.6656 227.075 101.598 240.027 101.598 256.004C101.598 256.362 101.583 256.717 101.571 257.072C102.714 256.853 103.893 256.735 105.099 256.735C115.46 256.735 123.859 265.146 123.859 275.523C123.859 285.901 115.46 294.312 105.099 294.312H16.8252C7.53333 294.312 0 286.768 0 277.461C0 268.155 7.53243 260.61 16.8252 260.61Z" fill="#010200"/>
<path d="M55.7844 319.864C55.9128 319.864 56.0402 319.868 56.1668 319.874C57.5582 314.29 62.5978 310.152 68.6042 310.152C69.825 310.152 71.0046 310.326 72.1231 310.646C74.6455 305.186 80.1609 301.395 86.5631 301.395C95.3478 301.395 102.47 308.527 102.47 317.327C102.47 317.524 102.462 317.72 102.455 317.915C103.085 317.794 103.734 317.729 104.398 317.729C110.104 317.729 114.73 322.362 114.73 328.077C114.73 333.791 110.104 338.424 104.398 338.424H55.7844C50.6667 338.424 46.5186 334.27 46.5186 329.144C46.5186 324.018 50.6667 319.864 55.7844 319.864Z" fill="#010200"/>
<path d="M291.756 400.745C291.896 400.745 292.035 400.749 292.173 400.755C293.691 394.662 299.191 390.146 305.746 390.146C307.078 390.146 308.365 390.337 309.586 390.685C312.339 384.726 318.358 380.59 325.345 380.59C334.932 380.59 342.704 388.374 342.704 397.976C342.704 398.192 342.696 398.405 342.688 398.618C343.376 398.487 344.084 398.416 344.809 398.416C351.036 398.416 356.084 403.472 356.084 409.708C356.084 415.945 351.037 421.001 344.809 421.001H291.756C286.172 421.001 281.645 416.467 281.645 410.874C281.645 405.28 286.172 400.746 291.756 400.746L291.756 400.745Z" fill="#010200"/>
<path d="M79.8208 90.9657C79.6934 90.9657 79.5668 90.9702 79.4402 90.9756C78.0578 85.4283 73.0523 81.3187 67.0855 81.3187C65.8727 81.3187 64.7012 81.4922 63.5899 81.8096C61.0836 76.3854 55.605 72.6201 49.2459 72.6201C40.5195 72.6201 33.4449 79.7057 33.4449 88.4456C33.4449 88.6416 33.453 88.8358 33.4593 89.03C32.8336 88.9105 32.1891 88.8457 31.5284 88.8457C25.8604 88.8457 21.2661 93.4481 21.2661 99.1239C21.2661 104.8 25.8613 109.402 31.5284 109.402H79.8199C84.9035 109.402 89.0247 105.275 89.0247 100.183C89.0247 95.0916 84.9035 90.9639 79.8199 90.9639L79.8208 90.9657Z" fill="#010200"/>
</g>
<defs>
<clipPath id="clip0_241_171">
<rect width="483" height="421" fill="white"/>
</clipPath>
</defs>
</svg>
